AnnapurnaSIL-Regular.ufo
<glyph name="exclam" format="1">
  <advance width="789"/>
  <unicode hex="0021"/>
  <outline>
    <contour>
      <point x="342" y="-28" type="curve" smooth="yes"/>
      <point x="342" y="-88"/>
      <point x="390" y="-136"/>
      <point x="450" y="-136" type="curve" smooth="yes"/>
      <point x="509" y="-136"/>
      <point x="558" y="-88"/>
      <point x="558" y="-28" type="curve" smooth="yes"/>
      <point x="558" y="31"/>
      <point x="509" y="80"/>
      <point x="450" y="80" type="curve" smooth="yes"/>
      <point x="390" y="80"/>
      <point x="342" y="31"/>
    </contour>
    <contour>
      <point x="400" y="272" type="line"/>
      <point x="500" y="214" type="line"/>
      <point x="580" y="1390" type="line"/>
      <point x="320" y="1390" type="line"/>
    </contour>
  </outline>
</glyph>
<glyph name="quotedbl" format="1">
  <advance width="614"/>
  <unicode hex="0022"/>
  <outline>
    <contour>
      <point x="535" y="1266" type="curve"/>
      <point x="470" y="816" type="line"/>
      <point x="440" y="816" type="line"/>
      <point x="378" y="1266" type="line"/>
      <point x="378" y="1326"/>
      <point x="404" y="1356"/>
      <point x="455" y="1356" type="curve" smooth="yes"/>
      <point x="508" y="1356"/>
      <point x="535" y="1326"/>
    </contour>
    <contour>
      <point x="236" y="1266" type="curve"/>
      <point x="174" y="816" type="line"/>
      <point x="144" y="816" type="line"/>
      <point x="79" y="1266" type="line"/>
      <point x="79" y="1326"/>
      <point x="105" y="1356"/>
      <point x="158" y="1356" type="curve" smooth="yes"/>
      <point x="210" y="1356"/>
      <point x="236" y="1326"/>
    </contour>
  </outline>
</glyph>
<glyph name="numbersign" format="1">
  <advance width="1370"/>
  <unicode hex="0023"/>
  <outline>
    <contour>
      <point x="1256" y="816" type="line"/>
      <point x="967" y="816" type="line"/>
      <point x="878" y="552" type="line"/>
      <point x="1175" y="552" type="line"/>
      <point x="1175" y="460" type="line"/>
      <point x="847" y="460" type="line"/>
      <point x="690" y="-2" type="line"/>
      <point x="598" y="27" type="line"/>
      <point x="743" y="460" type="line"/>
      <point x="476" y="460" type="line"/>
      <point x="319" y="-2" type="line"/>
      <point x="228" y="29" type="line"/>
      <point x="375" y="460" type="line"/>
      <point x="113" y="460" type="line"/>
      <point x="113" y="552" type="line"/>
      <point x="405" y="552" type="line"/>
      <point x="495" y="816" type="line"/>
      <point x="198" y="816" type="line"/>
      <point x="198" y="910" type="line"/>
      <point x="526" y="910" type="line"/>
      <point x="674" y="1345" type="line"/>
      <point x="768" y="1315" type="line"/>
      <point x="627" y="910" type="line"/>
      <point x="896" y="910" type="line"/>
      <point x="1042" y="1345" type="line"/>
      <point x="1138" y="1315" type="line"/>
      <point x="998" y="910" type="line"/>
      <point x="1256" y="910" type="line"/>
    </contour>
    <contour>
      <point x="864" y="816" type="line"/>
      <point x="597" y="816" type="line"/>
      <point x="508" y="552" type="line"/>
      <point x="775" y="552" type="line"/>
    </contour>
  </outline>
</glyph>
<glyph name="dollar" format="2">
  <advance width="1038"/>
  <unicode hex="0024"/>
  <outline>
    <contour>
      <point x="931" y="390" type="curve" smooth="yes"/>
      <point x="931" y="615"/>
      <point x="781" y="682"/>
      <point x="565" y="747" type="curve"/>
      <point x="565" y="1187" type="line"/>
      <point x="663" y="1187"/>
      <point x="727" y="1170"/>
      <point x="755" y="1139" type="curve"/>
      <point x="784" y="944" type="line"/>
      <point x="878" y="944" type="line"/>
      <point x="878" y="1234" type="line"/>
      <point x="768" y="1262"/>
      <point x="663" y="1277"/>
      <point x="565" y="1277" type="curve"/>
      <point x="565" y="1410" type="line"/>
      <point x="481" y="1410" type="line"/>
      <point x="481" y="1271" type="line"/>
      <point x="300" y="1245"/>
      <point x="136" y="1132"/>
      <point x="136" y="932" type="curve" smooth="yes"/>
      <point x="136" y="761"/>
      <point x="250" y="649"/>
      <point x="479" y="596" type="curve"/>
      <point x="479" y="130" type="line"/>
      <point x="350" y="130"/>
      <point x="268" y="152"/>
      <point x="233" y="195" type="curve"/>
      <point x="200" y="401" type="line"/>
      <point x="106" y="401" type="line"/>
      <point x="106" y="88" type="line"/>
      <point x="222" y="53"/>
      <point x="358" y="46"/>
      <point x="479" y="40" type="curve"/>
      <point x="479" y="-150" type="line"/>
      <point x="563" y="-150" type="line"/>
      <point x="563" y="40" type="line"/>
      <point x="719" y="48"/>
      <point x="931" y="185"/>
    </contour>
    <contour>
      <point x="481" y="772" type="line"/>
      <point x="364" y="814"/>
      <point x="307" y="880"/>
      <point x="307" y="969" type="curve" smooth="yes"/>
      <point x="307" y="1085"/>
      <point x="364" y="1155"/>
      <point x="481" y="1179" type="curve"/>
    </contour>
    <contour>
      <point x="762" y="355" type="curve" smooth="yes"/>
      <point x="762" y="233"/>
      <point x="696" y="161"/>
      <point x="563" y="138" type="curve"/>
      <point x="563" y="575" type="line"/>
      <point x="696" y="532"/>
      <point x="762" y="459"/>
    </contour>
  </outline>
</glyph>
<glyph name="percent" format="2">
  <advance width="1586"/>
  <unicode hex="0025"/>
  <outline>
    <contour>
      <point x="1526" y="397" type="curve" smooth="yes"/>
      <point x="1526" y="601"/>
      <point x="1447" y="784"/>
      <point x="1245" y="784" type="curve" smooth="yes"/>
      <point x="1042" y="784"/>
      <point x="961" y="600"/>
      <point x="961" y="397" type="curve" smooth="yes"/>
      <point x="961" y="194"/>
      <point x="1043" y="10"/>
      <point x="1245" y="10" type="curve" smooth="yes"/>
      <point x="1446" y="10"/>
      <point x="1526" y="194"/>
    </contour>
    <contour>
      <point x="1242" y="1277" type="line"/>
      <point x="1128" y="1277" type="line"/>
      <point x="345" y="40" type="line"/>
      <point x="461" y="40" type="line"/>
    </contour>
    <contour>
      <point x="625" y="919" type="curve" smooth="yes"/>
      <point x="625" y="1121"/>
      <point x="545" y="1306"/>
      <point x="343" y="1306" type="curve" smooth="yes"/>
      <point x="141" y="1306"/>
      <point x="59" y="1121"/>
      <point x="59" y="919" type="curve" smooth="yes"/>
      <point x="59" y="718"/>
      <point x="142" y="532"/>
      <point x="343" y="532" type="curve" smooth="yes"/>
      <point x="544" y="532"/>
      <point x="625" y="718"/>
    </contour>
    <contour>
      <point x="1385" y="397" type="curve" smooth="yes"/>
      <point x="1385" y="186"/>
      <point x="1338" y="80"/>
      <point x="1245" y="80" type="curve" smooth="yes"/>
      <point x="1147" y="80"/>
      <point x="1099" y="186"/>
      <point x="1099" y="397" type="curve" smooth="yes"/>
      <point x="1099" y="609"/>
      <point x="1147" y="714"/>
      <point x="1245" y="714" type="curve" smooth="yes"/>
      <point x="1338" y="714"/>
      <point x="1385" y="609"/>
    </contour>
    <contour>
      <point x="483" y="919" type="curve" smooth="yes"/>
      <point x="483" y="708"/>
      <point x="436" y="602"/>
      <point x="343" y="602" type="curve" smooth="yes"/>
      <point x="246" y="602"/>
      <point x="197" y="708"/>
      <point x="197" y="919" type="curve" smooth="yes"/>
      <point x="197" y="1131"/>
      <point x="246" y="1236"/>
      <point x="343" y="1236" type="curve" smooth="yes"/>
      <point x="436" y="1236"/>
      <point x="483" y="1131"/>
    </contour>
  </outline>
</glyph>
<glyph name="ampersand" format="2">
  <advance width="1288"/>
  <unicode hex="0026"/>
  <outline>
    <contour>
      <point x="1251" y="40" type="line"/>
      <point x="1251" y="119" type="line"/>
      <point x="1087" y="128" type="line"/>
      <point x="938" y="300" type="line"/>
      <point x="1013" y="404"/>
      <point x="1066" y="508"/>
      <point x="1094" y="611" type="curve"/>
      <point x="1228" y="631" type="line"/>
      <point x="1228" y="709" type="line"/>
      <point x="850" y="709" type="line"/>
      <point x="850" y="631" type="line"/>
      <point x="949" y="617" type="line" smooth="yes"/>
      <point x="962" y="615"/>
      <point x="980" y="592"/>
      <point x="980" y="582" type="curve"/>
      <point x="971" y="514"/>
      <point x="937" y="442"/>
      <point x="877" y="366" type="curve"/>
      <point x="567" y="700" type="line"/>
      <point x="719" y="767"/>
      <point x="839" y="857"/>
      <point x="839" y="1023" type="curve" smooth="yes"/>
      <point x="839" y="1189"/>
      <point x="694" y="1301"/>
      <point x="514" y="1301" type="curve" smooth="yes"/>
      <point x="319" y="1301"/>
      <point x="164" y="1179"/>
      <point x="164" y="989" type="curve" smooth="yes"/>
      <point x="164" y="904"/>
      <point x="215" y="810"/>
      <point x="319" y="707" type="curve"/>
      <point x="154" y="638"/>
      <point x="72" y="530"/>
      <point x="72" y="383" type="curve" smooth="yes"/>
      <point x="72" y="167"/>
      <point x="249" y="17"/>
      <point x="455" y="17" type="curve" smooth="yes"/>
      <point x="609" y="17"/>
      <point x="708" y="81"/>
      <point x="829" y="177" type="curve"/>
      <point x="912" y="84" type="line"/>
      <point x="912" y="40" type="line"/>
    </contour>
    <contour>
      <point x="669" y="1011" type="curve" smooth="yes"/>
      <point x="669" y="901"/>
      <point x="613" y="818"/>
      <point x="501" y="763" type="curve"/>
      <point x="419" y="839"/>
      <point x="329" y="924"/>
      <point x="329" y="1037" type="curve" smooth="yes"/>
      <point x="329" y="1129"/>
      <point x="391" y="1210"/>
      <point x="496" y="1210" type="curve" smooth="yes"/>
      <point x="614" y="1210"/>
      <point x="669" y="1116"/>
    </contour>
    <contour>
      <point x="770" y="241" type="line"/>
      <point x="690" y="172"/>
      <point x="608" y="138"/>
      <point x="525" y="138" type="curve" smooth="yes"/>
      <point x="370" y="138"/>
      <point x="257" y="265"/>
      <point x="257" y="425" type="curve" smooth="yes"/>
      <point x="257" y="515"/>
      <point x="301" y="592"/>
      <point x="391" y="654" type="curve"/>
    </contour>
  </outline>
</glyph>
<glyph name="quotesingle" format="1">
  <advance width="315"/>
  <unicode hex="0027"/>
  <outline>
    <contour>
      <point x="236" y="1266" type="curve"/>
      <point x="174" y="816" type="line"/>
      <point x="144" y="816" type="line"/>
      <point x="79" y="1266" type="line"/>
      <point x="79" y="1326"/>
      <point x="105" y="1356"/>
      <point x="157" y="1356" type="curve" smooth="yes"/>
      <point x="210" y="1356"/>
      <point x="236" y="1326"/>
    </contour>
  </outline>
</glyph>
<glyph name="parenleft" format="2">
  <advance width="771"/>
  <unicode hex="0028"/>
  <outline>
    <contour>
      <point x="702" y="-291" type="line"/>
      <point x="501" y="-269"/>
      <point x="350" y="-172"/>
      <point x="250" y="0" type="curve" smooth="yes"/>
      <point x="163" y="150"/>
      <point x="120" y="347"/>
      <point x="120" y="590" type="curve" smooth="yes"/>
      <point x="120" y="833"/>
      <point x="163" y="1030"/>
      <point x="250" y="1179" type="curve" smooth="yes"/>
      <point x="350" y="1350"/>
      <point x="501" y="1446"/>
      <point x="702" y="1468" type="curve"/>
      <point x="702" y="1378" type="line"/>
      <point x="563" y="1355"/>
      <point x="462" y="1275"/>
      <point x="399" y="1137" type="curve" smooth="yes"/>
      <point x="341" y="1010"/>
      <point x="312" y="828"/>
      <point x="312" y="590" type="curve" smooth="yes"/>
      <point x="312" y="351"/>
      <point x="341" y="169"/>
      <point x="399" y="42" type="curve" smooth="yes"/>
      <point x="463" y="-97"/>
      <point x="563" y="-178"/>
      <point x="702" y="-201" type="curve"/>
    </contour>
  </outline>
</glyph>
<glyph name="parenright" format="2">
  <advance width="771"/>
  <unicode hex="0029"/>
  <outline>
    <contour>
      <point x="651" y="590" type="curve" smooth="yes"/>
      <point x="651" y="1028"/>
      <point x="504" y="1420"/>
      <point x="69" y="1468" type="curve"/>
      <point x="69" y="1378" type="line"/>
      <point x="410" y="1322"/>
      <point x="459" y="925"/>
      <point x="459" y="590" type="curve" smooth="yes"/>
      <point x="459" y="248"/>
      <point x="406" y="-145"/>
      <point x="69" y="-201" type="curve"/>
      <point x="69" y="-291" type="line"/>
      <point x="504" y="-243"/>
      <point x="651" y="152"/>
    </contour>
  </outline>
</glyph>
<glyph name="asterisk" format="1">
  <advance width="922"/>
  <unicode hex="002A"/>
  <outline>
    <contour>
      <point x="823" y="1090" type="line"/>
      <point x="741" y="986" type="line"/>
      <point x="503" y="972" type="line"/>
      <point x="494" y="998" type="line"/>
      <point x="693" y="1129" type="line"/>
    </contour>
    <contour>
      <point x="538" y="1247" type="line"/>
      <point x="473" y="1016" type="line"/>
      <point x="448" y="1016" type="line"/>
      <point x="385" y="1247" type="line"/>
      <point x="461" y="1359" type="line"/>
    </contour>
    <contour>
      <point x="684" y="661" type="line"/>
      <point x="556" y="709" type="line"/>
      <point x="472" y="930" type="line"/>
      <point x="494" y="947" type="line"/>
      <point x="680" y="798" type="line"/>
    </contour>
    <contour>
      <point x="427" y="998" type="line"/>
      <point x="420" y="972" type="line"/>
      <point x="181" y="986" type="line"/>
      <point x="98" y="1090" type="line"/>
      <point x="229" y="1129" type="line"/>
    </contour>
    <contour>
      <point x="450" y="930" type="line"/>
      <point x="365" y="709" type="line"/>
      <point x="238" y="661" type="line"/>
      <point x="241" y="798" type="line"/>
      <point x="427" y="947" type="line"/>
    </contour>
  </outline>
</glyph>
<glyph name="comma" format="2">
  <advance width="606"/>
  <unicode hex="002C"/>
  <outline>
    <contour>
      <point x="470" y="58" type="curve" smooth="yes"/>
      <point x="470" y="196"/>
      <point x="418" y="265"/>
      <point x="317" y="265" type="curve" smooth="yes"/>
      <point x="249" y="265"/>
      <point x="202" y="201"/>
      <point x="202" y="138" type="curve" smooth="yes"/>
      <point x="202" y="103"/>
      <point x="213" y="75"/>
      <point x="236" y="53" type="curve"/>
      <point x="352" y="53" type="line"/>
      <point x="352" y="-100"/>
      <point x="299" y="-173"/>
      <point x="149" y="-207" type="curve"/>
      <point x="149" y="-273" type="line"/>
      <point x="331" y="-256"/>
      <point x="470" y="-119"/>
    </contour>
  </outline>
</glyph>
<glyph name="hyphen" format="1">
  <advance width="589"/>
  <unicode hex="002D"/>
  <outline>
    <contour>
      <point x="508" y="552" type="line"/>
      <point x="81" y="552" type="line"/>
      <point x="81" y="414" type="line"/>
      <point x="508" y="414" type="line"/>
    </contour>
  </outline>
</glyph>
<glyph name="period" format="2">
  <advance width="516"/>
  <unicode hex="002E"/>
  <outline>
    <contour>
      <point x="361" y="142" type="curve" smooth="yes"/>
      <point x="361" y="107"/>
      <point x="348" y="79"/>
      <point x="324" y="54" type="curve" smooth="yes"/>
      <point x="300" y="30"/>
      <point x="270" y="18"/>
      <point x="236" y="18" type="curve" smooth="yes"/>
      <point x="202" y="18"/>
      <point x="173" y="30"/>
      <point x="148" y="54" type="curve"/>
      <point x="124" y="79"/>
      <point x="112" y="107"/>
      <point x="112" y="142" type="curve" smooth="yes"/>
      <point x="112" y="176"/>
      <point x="124" y="205"/>
      <point x="148" y="229" type="curve" smooth="yes"/>
      <point x="173" y="253"/>
      <point x="202" y="265"/>
      <point x="236" y="265" type="curve" smooth="yes"/>
      <point x="270" y="265"/>
      <point x="300" y="253"/>
      <point x="324" y="229" type="curve" smooth="yes"/>
      <point x="348" y="205"/>
      <point x="361" y="176"/>
    </contour>
  </outline>
</glyph>
<glyph name="slash" format="2">
  <advance width="904"/>
  <unicode hex="002F"/>
  <outline>
    <contour>
      <point x="904" y="1277" type="line"/>
      <point x="118" y="-131" type="line"/>
      <point x="0" y="-131" type="line"/>
      <point x="785" y="1277" type="line"/>
    </contour>
  </outline>
</glyph>
<glyph name="zero" format="1">
  <advance width="1038"/>
  <unicode hex="0030"/>
  <outline>
    <contour>
      <point x="964" y="657" type="curve" smooth="yes"/>
      <point x="964" y="471"/>
      <point x="927" y="319"/>
      <point x="853" y="202" type="curve" smooth="yes"/>
      <point x="773" y="74"/>
      <point x="661" y="10"/>
      <point x="517" y="10" type="curve" smooth="yes"/>
      <point x="374" y="10"/>
      <point x="262" y="74"/>
      <point x="183" y="202" type="curve" smooth="yes"/>
      <point x="110" y="319"/>
      <point x="74" y="471"/>
      <point x="74" y="657" type="curve" smooth="yes"/>
      <point x="74" y="845"/>
      <point x="110" y="997"/>
      <point x="183" y="1114" type="curve" smooth="yes"/>
      <point x="263" y="1242"/>
      <point x="374" y="1306"/>
      <point x="517" y="1306" type="curve" smooth="yes"/>
      <point x="661" y="1306"/>
      <point x="773" y="1242"/>
      <point x="853" y="1114" type="curve" smooth="yes"/>
      <point x="927" y="996"/>
      <point x="964" y="844"/>
    </contour>
    <contour>
      <point x="769" y="657" type="curve" smooth="yes"/>
      <point x="769" y="817"/>
      <point x="751" y="944"/>
      <point x="716" y="1039" type="curve" smooth="yes"/>
      <point x="674" y="1155"/>
      <point x="607" y="1214"/>
      <point x="517" y="1214" type="curve" smooth="yes"/>
      <point x="351" y="1214"/>
      <point x="267" y="1028"/>
      <point x="267" y="657" type="curve" smooth="yes"/>
      <point x="267" y="287"/>
      <point x="351" y="103"/>
      <point x="517" y="103" type="curve" smooth="yes"/>
      <point x="685" y="103"/>
      <point x="769" y="287"/>
    </contour>
  </outline>
</glyph>
<glyph name="one" format="1">
  <advance width="1038"/>
  <unicode hex="0031"/>
  <outline>
    <contour>
      <point x="822" y="40" type="line"/>
      <point x="199" y="40" type="line"/>
      <point x="199" y="123" type="line"/>
      <point x="385" y="130" type="line" smooth="yes"/>
      <point x="412" y="131"/>
      <point x="426" y="144"/>
      <point x="426" y="170" type="curve" smooth="yes"/>
      <point x="426" y="1150" type="line"/>
      <point x="140" y="1099" type="line"/>
      <point x="140" y="1183" type="line"/>
      <point x="538" y="1306" type="line"/>
      <point x="608" y="1306" type="line"/>
      <point x="608" y="170" type="line" smooth="yes"/>
      <point x="608" y="144"/>
      <point x="622" y="131"/>
      <point x="649" y="130" type="curve" smooth="yes"/>
      <point x="822" y="123" type="line"/>
    </contour>
  </outline>
</glyph>
<glyph name="two" format="2">
  <advance width="1038"/>
  <unicode hex="0032"/>
  <outline>
    <contour>
      <point x="951" y="40" type="line"/>
      <point x="951" y="353" type="line"/>
      <point x="860" y="353" type="line"/>
      <point x="828" y="195" type="line"/>
      <point x="282" y="195" type="line"/>
      <point x="639" y="461"/>
      <point x="929" y="720"/>
      <point x="929" y="947" type="curve" smooth="yes"/>
      <point x="929" y="1166"/>
      <point x="753" y="1306"/>
      <point x="517" y="1306" type="curve" smooth="yes"/>
      <point x="331" y="1306"/>
      <point x="112" y="1206"/>
      <point x="112" y="1032" type="curve" smooth="yes"/>
      <point x="112" y="966"/>
      <point x="160" y="923"/>
      <point x="223" y="923" type="curve" smooth="yes"/>
      <point x="258" y="923"/>
      <point x="289" y="934"/>
      <point x="313" y="954" type="curve"/>
      <point x="313" y="1159" type="line"/>
      <point x="365" y="1187"/>
      <point x="406" y="1206"/>
      <point x="466" y="1206" type="curve" smooth="yes"/>
      <point x="617" y="1206"/>
      <point x="730" y="1099"/>
      <point x="730" y="928" type="curve" smooth="yes"/>
      <point x="730" y="686"/>
      <point x="445" y="441"/>
      <point x="86" y="163" type="curve"/>
      <point x="86" y="40" type="line"/>
    </contour>
  </outline>
</glyph>
<glyph name="three" format="1">
  <advance width="1038"/>
  <unicode hex="0033"/>
  <outline>
    <contour>
      <point x="951" y="392" type="curve" smooth="yes"/>
      <point x="951" y="282"/>
      <point x="904" y="190"/>
      <point x="809" y="117" type="curve" smooth="yes"/>
      <point x="716" y="46"/>
      <point x="603" y="10"/>
      <point x="468" y="10" type="curve" smooth="yes"/>
      <point x="354" y="10"/>
      <point x="258" y="35"/>
      <point x="184" y="85" type="curve" smooth="yes"/>
      <point x="119" y="128"/>
      <point x="86" y="177"/>
      <point x="86" y="228" type="curve" smooth="yes"/>
      <point x="86" y="255"/>
      <point x="95" y="278"/>
      <point x="114" y="297" type="curve" smooth="yes"/>
      <point x="133" y="317"/>
      <point x="160" y="327"/>
      <point x="195" y="327" type="curve" smooth="yes"/>
      <point x="226" y="327"/>
      <point x="247" y="323"/>
      <point x="258" y="314" type="curve"/>
      <point x="313" y="151" type="line"/>
      <point x="368" y="119"/>
      <point x="422" y="103"/>
      <point x="473" y="103" type="curve" smooth="yes"/>
      <point x="556" y="103"/>
      <point x="625" y="133"/>
      <point x="681" y="192" type="curve" smooth="yes"/>
      <point x="734" y="249"/>
      <point x="761" y="315"/>
      <point x="761" y="392" type="curve" smooth="yes"/>
      <point x="761" y="473"/>
      <point x="731" y="533"/>
      <point x="669" y="575" type="curve" smooth="yes"/>
      <point x="619" y="607"/>
      <point x="558" y="624"/>
      <point x="485" y="624" type="curve" smooth="yes"/>
      <point x="445" y="624"/>
      <point x="408" y="621"/>
      <point x="373" y="617" type="curve"/>
      <point x="373" y="731" type="line"/>
      <point x="373" y="731"/>
      <point x="379" y="731"/>
      <point x="391" y="730" type="curve" smooth="yes"/>
      <point x="403" y="729"/>
      <point x="413" y="729"/>
      <point x="420" y="729" type="curve" smooth="yes"/>
      <point x="504" y="729"/>
      <point x="573" y="747"/>
      <point x="626" y="785" type="curve" smooth="yes"/>
      <point x="686" y="827"/>
      <point x="715" y="887"/>
      <point x="715" y="963" type="curve" smooth="yes"/>
      <point x="715" y="1037"/>
      <point x="691" y="1097"/>
      <point x="642" y="1142" type="curve" smooth="yes"/>
      <point x="597" y="1184"/>
      <point x="540" y="1205"/>
      <point x="473" y="1205" type="curve" smooth="yes"/>
      <point x="413" y="1205"/>
      <point x="357" y="1187"/>
      <point x="308" y="1153" type="curve"/>
      <point x="308" y="969" type="line"/>
      <point x="276" y="953"/>
      <point x="249" y="945"/>
      <point x="225" y="945" type="curve" smooth="yes"/>
      <point x="154" y="945"/>
      <point x="118" y="980"/>
      <point x="118" y="1048" type="curve" smooth="yes"/>
      <point x="118" y="1118"/>
      <point x="158" y="1178"/>
      <point x="238" y="1230" type="curve" smooth="yes"/>
      <point x="319" y="1281"/>
      <point x="415" y="1306"/>
      <point x="526" y="1306" type="curve" smooth="yes"/>
      <point x="634" y="1306"/>
      <point x="724" y="1277"/>
      <point x="795" y="1220" type="curve" smooth="yes"/>
      <point x="867" y="1160"/>
      <point x="904" y="1084"/>
      <point x="904" y="988" type="curve" smooth="yes"/>
      <point x="904" y="843"/>
      <point x="809" y="744"/>
      <point x="619" y="691" type="curve"/>
      <point x="707" y="686"/>
      <point x="782" y="661"/>
      <point x="843" y="614" type="curve" smooth="yes"/>
      <point x="915" y="559"/>
      <point x="951" y="485"/>
    </contour>
  </outline>
</glyph>
<glyph name="four" format="2">
  <advance width="1038"/>
  <unicode hex="0034"/>
  <outline>
    <contour>
      <point x="964" y="407" type="line"/>
      <point x="807" y="407" type="line"/>
      <point x="807" y="10" type="line"/>
      <point x="634" y="10" type="line"/>
      <point x="634" y="407" type="line"/>
      <point x="74" y="407" type="line"/>
      <point x="74" y="534" type="line"/>
      <point x="679" y="1306" type="line"/>
      <point x="807" y="1306" type="line"/>
      <point x="807" y="532" type="line"/>
      <point x="964" y="532" type="line"/>
    </contour>
    <contour>
      <point x="634" y="532" type="line"/>
      <point x="634" y="1070" type="line"/>
      <point x="220" y="532" type="line"/>
    </contour>
  </outline>
</glyph>
<glyph name="five" format="2">
  <advance width="1038"/>
  <unicode hex="0035"/>
  <outline>
    <contour>
      <point x="953" y="440" type="curve" smooth="yes"/>
      <point x="953" y="686"/>
      <point x="782" y="818"/>
      <point x="536" y="818" type="curve" smooth="yes"/>
      <point x="465" y="818"/>
      <point x="318" y="788"/>
      <point x="287" y="770" type="curve"/>
      <point x="287" y="1120" type="line"/>
      <point x="868" y="1120" type="line"/>
      <point x="868" y="1277" type="line"/>
      <point x="157" y="1277" type="line"/>
      <point x="157" y="638" type="line"/>
      <point x="278" y="679"/>
      <point x="375" y="700"/>
      <point x="450" y="700" type="curve" smooth="yes"/>
      <point x="659" y="700"/>
      <point x="765" y="572"/>
      <point x="765" y="395" type="curve" smooth="yes"/>
      <point x="765" y="237"/>
      <point x="633" y="101"/>
      <point x="461" y="101" type="curve" smooth="yes"/>
      <point x="404" y="101"/>
      <point x="356" y="119"/>
      <point x="319" y="154" type="curve"/>
      <point x="248" y="323" type="line"/>
      <point x="227" y="329"/>
      <point x="211" y="332"/>
      <point x="199" y="332" type="curve" smooth="yes"/>
      <point x="121" y="332"/>
      <point x="83" y="297"/>
      <point x="83" y="228" type="curve" smooth="yes"/>
      <point x="83" y="97"/>
      <point x="302" y="10"/>
      <point x="433" y="10" type="curve" smooth="yes"/>
      <point x="729" y="10"/>
      <point x="953" y="153"/>
    </contour>
  </outline>
</glyph>
<glyph name="six" format="2">
  <advance width="1038"/>
  <unicode hex="0036"/>
  <outline>
    <contour>
      <point x="964" y="462" type="curve" smooth="yes"/>
      <point x="964" y="689"/>
      <point x="808" y="845"/>
      <point x="580" y="845" type="curve" smooth="yes"/>
      <point x="464" y="845"/>
      <point x="362" y="807"/>
      <point x="273" y="729" type="curve"/>
      <point x="308" y="998"/>
      <point x="489" y="1195"/>
      <point x="748" y="1195" type="curve" smooth="yes"/>
      <point x="769" y="1195"/>
      <point x="790" y="1194"/>
      <point x="811" y="1192" type="curve"/>
      <point x="811" y="1306" type="line"/>
      <point x="344" y="1306"/>
      <point x="74" y="1017"/>
      <point x="74" y="569" type="curve" smooth="yes"/>
      <point x="74" y="248"/>
      <point x="200" y="10"/>
      <point x="516" y="10" type="curve" smooth="yes"/>
      <point x="772" y="10"/>
      <point x="964" y="197"/>
    </contour>
    <contour>
      <point x="776" y="438" type="curve" smooth="yes"/>
      <point x="776" y="258"/>
      <point x="696" y="107"/>
      <point x="516" y="107" type="curve" smooth="yes"/>
      <point x="347" y="107"/>
      <point x="264" y="249"/>
      <point x="264" y="532" type="curve" smooth="yes"/>
      <point x="264" y="575"/>
      <point x="265" y="608"/>
      <point x="267" y="633" type="curve"/>
      <point x="347" y="695"/>
      <point x="430" y="726"/>
      <point x="516" y="726" type="curve" smooth="yes"/>
      <point x="687" y="726"/>
      <point x="776" y="606"/>
    </contour>
  </outline>
</glyph>
<glyph name="seven" format="2">
  <advance width="1038"/>
  <unicode hex="0037"/>
  <outline>
    <contour>
      <point x="960" y="1174" type="line"/>
      <point x="355" y="71" type="line"/>
      <point x="355" y="10" type="line"/>
      <point x="160" y="10" type="line"/>
      <point x="769" y="1120" type="line"/>
      <point x="201" y="1120" type="line"/>
      <point x="171" y="953" type="line"/>
      <point x="77" y="953" type="line"/>
      <point x="77" y="1277" type="line"/>
      <point x="960" y="1277" type="line"/>
    </contour>
  </outline>
</glyph>
<glyph name="eight" format="2">
  <advance width="1038"/>
  <unicode hex="0038"/>
  <outline>
    <contour>
      <point x="962" y="376" type="curve" smooth="yes"/>
      <point x="962" y="270"/>
      <point x="920" y="183"/>
      <point x="835" y="114" type="curve" smooth="yes"/>
      <point x="751" y="44"/>
      <point x="644" y="10"/>
      <point x="517" y="10" type="curve" smooth="yes"/>
      <point x="383" y="10"/>
      <point x="276" y="44"/>
      <point x="195" y="112" type="curve" smooth="yes"/>
      <point x="114" y="179"/>
      <point x="74" y="267"/>
      <point x="74" y="372" type="curve" smooth="yes"/>
      <point x="74" y="511"/>
      <point x="162" y="613"/>
      <point x="337" y="680" type="curve"/>
      <point x="279" y="703"/>
      <point x="230" y="737"/>
      <point x="193" y="781" type="curve" smooth="yes"/>
      <point x="147" y="833"/>
      <point x="123" y="892"/>
      <point x="123" y="960" type="curve" smooth="yes"/>
      <point x="123" y="1065"/>
      <point x="159" y="1150"/>
      <point x="231" y="1212" type="curve" smooth="yes"/>
      <point x="303" y="1275"/>
      <point x="399" y="1306"/>
      <point x="517" y="1306" type="curve" smooth="yes"/>
      <point x="630" y="1306"/>
      <point x="724" y="1276"/>
      <point x="799" y="1214" type="curve" smooth="yes"/>
      <point x="875" y="1154"/>
      <point x="913" y="1079"/>
      <point x="913" y="989" type="curve" smooth="yes"/>
      <point x="913" y="864"/>
      <point x="838" y="764"/>
      <point x="688" y="691" type="curve"/>
      <point x="870" y="625"/>
      <point x="962" y="520"/>
    </contour>
    <contour>
      <point x="742" y="972" type="curve" smooth="yes"/>
      <point x="742" y="1045"/>
      <point x="720" y="1105"/>
      <point x="676" y="1149" type="curve" smooth="yes"/>
      <point x="634" y="1191"/>
      <point x="581" y="1212"/>
      <point x="517" y="1212" type="curve" smooth="yes"/>
      <point x="456" y="1212"/>
      <point x="406" y="1191"/>
      <point x="365" y="1150" type="curve"/>
      <point x="326" y="1108"/>
      <point x="306" y="1059"/>
      <point x="306" y="1002" type="curve" smooth="yes"/>
      <point x="306" y="941"/>
      <point x="333" y="888"/>
      <point x="386" y="842" type="curve" smooth="yes"/>
      <point x="433" y="801"/>
      <point x="507" y="763"/>
      <point x="608" y="726" type="curve"/>
      <point x="697" y="791"/>
      <point x="742" y="873"/>
    </contour>
    <contour>
      <point x="776" y="346" type="curve" smooth="yes"/>
      <point x="776" y="415"/>
      <point x="744" y="472"/>
      <point x="680" y="515" type="curve" smooth="yes"/>
      <point x="642" y="542"/>
      <point x="552" y="584"/>
      <point x="411" y="639" type="curve"/>
      <point x="301" y="579"/>
      <point x="245" y="495"/>
      <point x="245" y="386" type="curve" smooth="yes"/>
      <point x="245" y="305"/>
      <point x="268" y="238"/>
      <point x="314" y="188" type="curve" smooth="yes"/>
      <point x="363" y="136"/>
      <point x="430" y="110"/>
      <point x="517" y="110" type="curve" smooth="yes"/>
      <point x="594" y="110"/>
      <point x="657" y="134"/>
      <point x="706" y="182" type="curve" smooth="yes"/>
      <point x="752" y="227"/>
      <point x="776" y="282"/>
    </contour>
  </outline>
</glyph>
<glyph name="nine" format="2">
  <advance width="1038"/>
  <unicode hex="0039"/>
  <outline>
    <contour>
      <point x="964" y="747" type="curve" smooth="yes"/>
      <point x="964" y="1065"/>
      <point x="838" y="1306"/>
      <point x="520" y="1306" type="curve" smooth="yes"/>
      <point x="266" y="1306"/>
      <point x="74" y="1120"/>
      <point x="74" y="853" type="curve" smooth="yes"/>
      <point x="74" y="631"/>
      <point x="225" y="471"/>
      <point x="457" y="471" type="curve" smooth="yes"/>
      <point x="573" y="471"/>
      <point x="676" y="510"/>
      <point x="765" y="587" type="curve"/>
      <point x="729" y="319"/>
      <point x="545" y="114"/>
      <point x="287" y="123" type="curve"/>
      <point x="225" y="125" type="line"/>
      <point x="225" y="10" type="line"/>
      <point x="679" y="10"/>
      <point x="964" y="293"/>
    </contour>
    <contour>
      <point x="772" y="784" type="curve" smooth="yes"/>
      <point x="772" y="742"/>
      <point x="771" y="709"/>
      <point x="769" y="683" type="curve"/>
      <point x="688" y="621"/>
      <point x="606" y="591"/>
      <point x="520" y="591" type="curve" smooth="yes"/>
      <point x="348" y="591"/>
      <point x="260" y="707"/>
      <point x="260" y="879" type="curve" smooth="yes"/>
      <point x="260" y="1058"/>
      <point x="339" y="1210"/>
      <point x="520" y="1210" type="curve" smooth="yes"/>
      <point x="688" y="1210"/>
      <point x="772" y="1068"/>
    </contour>
  </outline>
</glyph>
<glyph name="colon" format="2">
  <advance width="516"/>
  <unicode hex="003A"/>
  <outline>
    <contour>
      <point x="361" y="827" type="curve" smooth="yes"/>
      <point x="361" y="893"/>
      <point x="307" y="950"/>
      <point x="236" y="950" type="curve" smooth="yes"/>
      <point x="167" y="950"/>
      <point x="112" y="896"/>
      <point x="112" y="827" type="curve" smooth="yes"/>
      <point x="112" y="757"/>
      <point x="167" y="703"/>
      <point x="236" y="703" type="curve" smooth="yes"/>
      <point x="307" y="703"/>
      <point x="361" y="760"/>
    </contour>
    <contour>
      <point x="361" y="142" type="curve" smooth="yes"/>
      <point x="361" y="208"/>
      <point x="307" y="265"/>
      <point x="236" y="265" type="curve" smooth="yes"/>
      <point x="167" y="265"/>
      <point x="112" y="211"/>
      <point x="112" y="142" type="curve" smooth="yes"/>
      <point x="112" y="72"/>
      <point x="167" y="18"/>
      <point x="236" y="18" type="curve" smooth="yes"/>
      <point x="307" y="18"/>
      <point x="361" y="75"/>
    </contour>
  </outline>
</glyph>
<glyph name="semicolon" format="2">
  <advance width="516"/>
  <unicode hex="003B"/>
  <outline>
    <contour>
      <point x="359" y="827" type="curve" smooth="yes"/>
      <point x="359" y="893"/>
      <point x="308" y="950"/>
      <point x="238" y="950" type="curve" smooth="yes"/>
      <point x="167" y="950"/>
      <point x="112" y="894"/>
      <point x="112" y="827" type="curve" smooth="yes"/>
      <point x="112" y="757"/>
      <point x="167" y="703"/>
      <point x="236" y="703" type="curve" smooth="yes"/>
      <point x="305" y="703"/>
      <point x="359" y="758"/>
    </contour>
    <contour>
      <point x="380" y="58" type="curve" smooth="yes"/>
      <point x="380" y="196"/>
      <point x="328" y="265"/>
      <point x="227" y="265" type="curve" smooth="yes"/>
      <point x="159" y="265"/>
      <point x="112" y="201"/>
      <point x="112" y="138" type="curve" smooth="yes"/>
      <point x="112" y="103"/>
      <point x="123" y="75"/>
      <point x="146" y="53" type="curve"/>
      <point x="262" y="53" type="line"/>
      <point x="262" y="-99"/>
      <point x="207" y="-173"/>
      <point x="59" y="-207" type="curve"/>
      <point x="59" y="-273" type="line"/>
      <point x="241" y="-256"/>
      <point x="380" y="-119"/>
    </contour>
  </outline>
</glyph>
<glyph name="less" format="2">
  <advance width="1535"/>
  <unicode hex="003C"/>
  <outline>
    <contour>
      <point x="1298" y="108" type="line"/>
      <point x="1298" y="224" type="line"/>
      <point x="398" y="589" type="line"/>
      <point x="1298" y="956" type="line"/>
      <point x="1298" y="1070" type="line"/>
      <point x="238" y="636" type="line"/>
      <point x="238" y="541" type="line"/>
    </contour>
  </outline>
</glyph>
<glyph name="question" format="2">
  <advance width="1115"/>
  <unicode hex="003F"/>
  <outline>
    <contour>
      <point x="325" y="1189" type="line"/>
      <point x="413" y="1267"/>
      <point x="526" y="1300"/>
      <point x="606" y="1300" type="curve" smooth="yes"/>
      <point x="655" y="1300"/>
      <point x="695" y="1281"/>
      <point x="725" y="1249" type="curve" smooth="yes"/>
      <point x="767" y="1204"/>
      <point x="789" y="1133"/>
      <point x="789" y="1057" type="curve" smooth="yes"/>
      <point x="789" y="897"/>
      <point x="461" y="736"/>
      <point x="461" y="410" type="curve" smooth="yes"/>
      <point x="461" y="362"/>
      <point x="468" y="312"/>
      <point x="485" y="259" type="curve"/>
      <point x="626" y="173" type="line"/>
      <point x="606" y="243"/>
      <point x="597" y="305"/>
      <point x="597" y="362" type="curve" smooth="yes"/>
      <point x="597" y="708"/>
      <point x="920" y="784"/>
      <point x="920" y="987" type="curve" smooth="yes"/>
      <point x="920" y="1088"/>
      <point x="860" y="1195"/>
      <point x="781" y="1277" type="curve" smooth="yes"/>
      <point x="705" y="1356"/>
      <point x="607" y="1410"/>
      <point x="523" y="1410" type="curve" smooth="yes"/>
      <point x="417" y="1410"/>
      <point x="334" y="1379"/>
      <point x="250" y="1320" type="curve"/>
    </contour>
    <contour>
      <point x="449" y="-44" type="curve" smooth="yes"/>
      <point x="449" y="-104"/>
      <point x="497" y="-152"/>
      <point x="557" y="-152" type="curve" smooth="yes"/>
      <point x="616" y="-152"/>
      <point x="665" y="-104"/>
      <point x="665" y="-44" type="curve" smooth="yes"/>
      <point x="665" y="15"/>
      <point x="616" y="64"/>
      <point x="557" y="64" type="curve" smooth="yes"/>
      <point x="497" y="64"/>
      <point x="449" y="15"/>
    </contour>
  </outline>
</glyph>
<glyph name="at" format="2">
  <advance width="1725"/>
  <unicode hex="0040"/>
  <outline>
    <contour>
      <point x="1592" y="728" type="curve" smooth="yes"/>
      <point x="1592" y="555"/>
      <point x="1540" y="411"/>
      <point x="1436" y="296" type="curve" smooth="yes"/>
      <point x="1345" y="194"/>
      <point x="1247" y="143"/>
      <point x="1142" y="143" type="curve" smooth="yes"/>
      <point x="1046" y="143"/>
      <point x="998" y="195"/>
      <point x="998" y="296" type="curve"/>
      <point x="897" y="196"/>
      <point x="809" y="145"/>
      <point x="733" y="145" type="curve" smooth="yes"/>
      <point x="665" y="145"/>
      <point x="609" y="172"/>
      <point x="566" y="227" type="curve" smooth="yes"/>
      <point x="524" y="282"/>
      <point x="502" y="355"/>
      <point x="502" y="446" type="curve" smooth="yes"/>
      <point x="502" y="584"/>
      <point x="549" y="702"/>
      <point x="643" y="802" type="curve" smooth="yes"/>
      <point x="735" y="899"/>
      <point x="841" y="947"/>
      <point x="959" y="947" type="curve" smooth="yes"/>
      <point x="1020" y="947"/>
      <point x="1080" y="930"/>
      <point x="1140" y="897" type="curve"/>
      <point x="1174" y="939" type="line"/>
      <point x="1278" y="939" type="line"/>
      <point x="1272" y="921"/>
      <point x="1229" y="738"/>
      <point x="1151" y="392" type="curve"/>
      <point x="1147" y="370"/>
      <point x="1144" y="350"/>
      <point x="1144" y="333" type="curve" smooth="yes"/>
      <point x="1144" y="277"/>
      <point x="1169" y="248"/>
      <point x="1219" y="248" type="curve" smooth="yes"/>
      <point x="1282" y="248"/>
      <point x="1343" y="291"/>
      <point x="1402" y="377" type="curve" smooth="yes"/>
      <point x="1470" y="475"/>
      <point x="1503" y="591"/>
      <point x="1503" y="726" type="curve" smooth="yes"/>
      <point x="1503" y="889"/>
      <point x="1449" y="1016"/>
      <point x="1342" y="1109" type="curve" smooth="yes"/>
      <point x="1246" y="1191"/>
      <point x="1127" y="1232"/>
      <point x="985" y="1232" type="curve" smooth="yes"/>
      <point x="777" y="1232"/>
      <point x="605" y="1164"/>
      <point x="469" y="1027" type="curve" smooth="yes"/>
      <point x="334" y="891"/>
      <point x="266" y="719"/>
      <point x="266" y="513" type="curve" smooth="yes"/>
      <point x="266" y="320"/>
      <point x="323" y="162"/>
      <point x="436" y="41" type="curve" smooth="yes"/>
      <point x="554" y="-86"/>
      <point x="713" y="-150"/>
      <point x="912" y="-150" type="curve" smooth="yes"/>
      <point x="1073" y="-150"/>
      <point x="1235" y="-104"/>
      <point x="1399" y="-13" type="curve"/>
      <point x="1426" y="-80" type="line"/>
      <point x="1223" y="-188"/>
      <point x="1038" y="-242"/>
      <point x="868" y="-242" type="curve" smooth="yes"/>
      <point x="663" y="-242"/>
      <point x="491" y="-178"/>
      <point x="353" y="-49" type="curve" smooth="yes"/>
      <point x="207" y="87"/>
      <point x="134" y="263"/>
      <point x="134" y="480" type="curve" smooth="yes"/>
      <point x="134" y="738"/>
      <point x="220" y="945"/>
      <point x="394" y="1101" type="curve" smooth="yes"/>
      <point x="552" y="1242"/>
      <point x="741" y="1313"/>
      <point x="963" y="1313" type="curve" smooth="yes"/>
      <point x="1151" y="1313"/>
      <point x="1301" y="1264"/>
      <point x="1415" y="1163" type="curve" smooth="yes"/>
      <point x="1533" y="1059"/>
      <point x="1592" y="913"/>
    </contour>
    <contour>
      <point x="1077" y="764" type="line"/>
      <point x="1081" y="782"/>
      <point x="1072" y="804"/>
      <point x="1050" y="829" type="curve" smooth="yes"/>
      <point x="1027" y="856"/>
      <point x="999" y="870"/>
      <point x="968" y="870" type="curve" smooth="yes"/>
      <point x="879" y="870"/>
      <point x="806" y="830"/>
      <point x="751" y="750" type="curve" smooth="yes"/>
      <point x="697" y="674"/>
      <point x="670" y="577"/>
      <point x="670" y="462" type="curve" smooth="yes"/>
      <point x="670" y="330"/>
      <point x="719" y="263"/>
      <point x="815" y="263" type="curve" smooth="yes"/>
      <point x="877" y="263"/>
      <point x="940" y="303"/>
      <point x="1003" y="383" type="curve"/>
    </contour>
  </outline>
</glyph>
<glyph name="A" format="2">
  <advance width="1242"/>
  <unicode hex="0041"/>
  <outline>
    <contour>
      <point x="1233" y="40" type="line"/>
      <point x="1233" y="119" type="line"/>
      <point x="1150" y="134" type="line" smooth="yes"/>
      <point x="1137" y="136"/>
      <point x="1129" y="139"/>
      <point x="1125" y="143" type="curve" smooth="yes"/>
      <point x="1121" y="146"/>
      <point x="1116" y="155"/>
      <point x="1111" y="169" type="curve" smooth="yes"/>
      <point x="684" y="1306" type="line"/>
      <point x="545" y="1306" type="line"/>
      <point x="116" y="142" type="line"/>
      <point x="9" y="119" type="line"/>
      <point x="9" y="40" type="line"/>
      <point x="380" y="40" type="line"/>
      <point x="380" y="119" type="line"/>
      <point x="271" y="128" type="line" smooth="yes"/>
      <point x="253" y="129"/>
      <point x="244" y="140"/>
      <point x="244" y="160" type="curve" smooth="yes"/>
      <point x="244" y="161"/>
      <point x="244" y="163"/>
      <point x="245" y="165" type="curve" smooth="yes"/>
      <point x="367" y="497" type="line"/>
      <point x="793" y="497" type="line"/>
      <point x="920" y="160" type="line" smooth="yes"/>
      <point x="922" y="155"/>
      <point x="920" y="149"/>
      <point x="916" y="141" type="curve" smooth="yes"/>
      <point x="912" y="133"/>
      <point x="906" y="128"/>
      <point x="901" y="128" type="curve"/>
      <point x="794" y="119" type="line"/>
      <point x="794" y="40" type="line"/>
    </contour>
    <contour>
      <point x="760" y="585" type="line"/>
      <point x="400" y="585" type="line"/>
      <point x="579" y="1068" type="line"/>
    </contour>
  </outline>
</glyph>
<glyph name="B" format="2">
  <advance width="1115"/>
  <unicode hex="0042"/>
  <outline>
    <contour>
      <point x="1043" y="405" type="curve" smooth="yes"/>
      <point x="1043" y="602"/>
      <point x="895" y="696"/>
      <point x="702" y="696" type="curve"/>
      <point x="879" y="741"/>
      <point x="967" y="836"/>
      <point x="967" y="980" type="curve" smooth="yes"/>
      <point x="967" y="1178"/>
      <point x="829" y="1277"/>
      <point x="553" y="1277" type="curve" smooth="yes"/>
      <point x="59" y="1277" type="line"/>
      <point x="59" y="1197" type="line"/>
      <point x="157" y="1190" type="line" smooth="yes"/>
      <point x="183" y="1188"/>
      <point x="195" y="1175"/>
      <point x="195" y="1150" type="curve" smooth="yes"/>
      <point x="195" y="167" type="line" smooth="yes"/>
      <point x="195" y="142"/>
      <point x="183" y="128"/>
      <point x="157" y="126" type="curve" smooth="yes"/>
      <point x="59" y="119" type="line"/>
      <point x="59" y="40" type="line"/>
      <point x="575" y="40" type="line" smooth="yes"/>
      <point x="827" y="40"/>
      <point x="1043" y="142"/>
    </contour>
    <contour>
      <point x="769" y="967" type="curve" smooth="yes"/>
      <point x="769" y="774"/>
      <point x="639" y="719"/>
      <point x="446" y="719" type="curve" smooth="yes"/>
      <point x="434" y="719"/>
      <point x="411" y="719"/>
      <point x="380" y="720" type="curve"/>
      <point x="380" y="1187" type="line"/>
      <point x="406" y="1189"/>
      <point x="457" y="1192"/>
      <point x="485" y="1192" type="curve" smooth="yes"/>
      <point x="674" y="1192"/>
      <point x="769" y="1117"/>
    </contour>
    <contour>
      <point x="842" y="390" type="curve" smooth="yes"/>
      <point x="842" y="180"/>
      <point x="700" y="130"/>
      <point x="494" y="130" type="curve" smooth="yes"/>
      <point x="472" y="130"/>
      <point x="435" y="132"/>
      <point x="380" y="135" type="curve"/>
      <point x="380" y="622" type="line"/>
      <point x="441" y="629"/>
      <point x="521" y="633"/>
      <point x="545" y="633" type="curve" smooth="yes"/>
      <point x="743" y="633"/>
      <point x="842" y="552"/>
    </contour>
  </outline>
</glyph>
<glyph name="C" format="2">
  <advance width="1156"/>
  <unicode hex="0043"/>
  <outline>
    <contour>
      <point x="1084" y="381" type="line"/>
      <point x="977" y="381" type="line"/>
      <point x="934" y="180" type="line"/>
      <point x="923" y="127"/>
      <point x="795" y="112"/>
      <point x="751" y="112" type="curve" smooth="yes"/>
      <point x="440" y="112"/>
      <point x="284" y="340"/>
      <point x="284" y="661" type="curve" smooth="yes"/>
      <point x="284" y="966"/>
      <point x="435" y="1203"/>
      <point x="726" y="1203" type="curve" smooth="yes"/>
      <point x="780" y="1203"/>
      <point x="936" y="1175"/>
      <point x="946" y="1113" type="curve" smooth="yes"/>
      <point x="973" y="945" type="line"/>
      <point x="1084" y="945" type="line"/>
      <point x="1084" y="1234" type="line"/>
      <point x="928" y="1282"/>
      <point x="806" y="1306"/>
      <point x="717" y="1306" type="curve" smooth="yes"/>
      <point x="331" y="1306"/>
      <point x="72" y="1047"/>
      <point x="72" y="661" type="curve" smooth="yes"/>
      <point x="72" y="288"/>
      <point x="330" y="10"/>
      <point x="715" y="10" type="curve" smooth="yes"/>
      <point x="841" y="10"/>
      <point x="964" y="35"/>
      <point x="1084" y="82" type="curve"/>
    </contour>
  </outline>
</glyph>
<glyph name="D" format="2">
  <advance width="1283"/>
  <unicode hex="0044"/>
  <outline>
    <contour>
      <point x="1211" y="661" type="curve" smooth="yes"/>
      <point x="1211" y="1071"/>
      <point x="940" y="1277"/>
      <point x="535" y="1277" type="curve" smooth="yes"/>
      <point x="59" y="1277" type="line"/>
      <point x="59" y="1197" type="line"/>
      <point x="157" y="1190" type="line" smooth="yes"/>
      <point x="184" y="1188"/>
      <point x="197" y="1175"/>
      <point x="197" y="1150" type="curve" smooth="yes"/>
      <point x="197" y="167" type="line" smooth="yes"/>
      <point x="197" y="142"/>
      <point x="184" y="128"/>
      <point x="157" y="126" type="curve" smooth="yes"/>
      <point x="59" y="119" type="line"/>
      <point x="59" y="40" type="line"/>
      <point x="571" y="40" type="line" smooth="yes"/>
      <point x="984" y="40"/>
      <point x="1211" y="283"/>
    </contour>
    <contour>
      <point x="1003" y="657" type="curve" smooth="yes"/>
      <point x="1003" y="309"/>
      <point x="846" y="134"/>
      <point x="533" y="130" type="curve" smooth="yes"/>
      <point x="383" y="128" type="line"/>
      <point x="383" y="1188" type="line"/>
      <point x="524" y="1188" type="line" smooth="yes"/>
      <point x="843" y="1188"/>
      <point x="1003" y="1011"/>
    </contour>
  </outline>
</glyph>
<glyph name="F" format="2">
  <advance width="996"/>
  <unicode hex="0046"/>
  <outline>
    <contour>
      <point x="942" y="984" type="line"/>
      <point x="833" y="984" type="line"/>
      <point x="807" y="1153" type="line" smooth="yes"/>
      <point x="804" y="1176"/>
      <point x="793" y="1187"/>
      <point x="776" y="1187" type="curve" smooth="yes"/>
      <point x="383" y="1187" type="line"/>
      <point x="383" y="707" type="line"/>
      <point x="666" y="707" type="line" smooth="yes"/>
      <point x="685" y="707"/>
      <point x="696" y="718"/>
      <point x="698" y="740" type="curve"/>
      <point x="715" y="870" type="line"/>
      <point x="807" y="870" type="line"/>
      <point x="807" y="455" type="line"/>
      <point x="715" y="455" type="line"/>
      <point x="698" y="584" type="line"/>
      <point x="696" y="606"/>
      <point x="685" y="617"/>
      <point x="666" y="617" type="curve" smooth="yes"/>
      <point x="383" y="617" type="line"/>
      <point x="383" y="167" type="line" smooth="yes"/>
      <point x="383" y="142"/>
      <point x="396" y="128"/>
      <point x="422" y="126" type="curve" smooth="yes"/>
      <point x="545" y="119" type="line"/>
      <point x="545" y="40" type="line"/>
      <point x="61" y="40" type="line"/>
      <point x="61" y="119" type="line"/>
      <point x="158" y="126" type="line" smooth="yes"/>
      <point x="184" y="128"/>
      <point x="197" y="142"/>
      <point x="197" y="167" type="curve" smooth="yes"/>
      <point x="197" y="1150" type="line" smooth="yes"/>
      <point x="197" y="1175"/>
      <point x="184" y="1188"/>
      <point x="158" y="1190" type="curve" smooth="yes"/>
      <point x="46" y="1197" type="line"/>
      <point x="46" y="1277" type="line"/>
      <point x="942" y="1277" type="line"/>
    </contour>
  </outline>
</glyph>
<glyph name="G" format="2">
  <advance width="1282"/>
  <unicode hex="0047"/>
  <outline>
    <contour>
      <point x="1235" y="557" type="line"/>
      <point x="1235" y="638" type="line"/>
      <point x="754" y="638" type="line"/>
      <point x="754" y="557" type="line"/>
      <point x="877" y="548" type="line"/>
      <point x="904" y="546"/>
      <point x="916" y="534"/>
      <point x="916" y="510" type="curve" smooth="yes"/>
      <point x="916" y="141" type="line"/>
      <point x="872" y="128"/>
      <point x="788" y="114"/>
      <point x="754" y="114" type="curve"/>
      <point x="437" y="114"/>
      <point x="282" y="351"/>
      <point x="282" y="670" type="curve" smooth="yes"/>
      <point x="282" y="974"/>
      <point x="432" y="1203"/>
      <point x="732" y="1203" type="curve" smooth="yes"/>
      <point x="785" y="1203"/>
      <point x="949" y="1171"/>
      <point x="960" y="1111" type="curve" smooth="yes"/>
      <point x="990" y="945" type="line"/>
      <point x="1101" y="945" type="line"/>
      <point x="1101" y="1243" type="line"/>
      <point x="940" y="1286"/>
      <point x="820" y="1306"/>
      <point x="739" y="1306" type="curve" smooth="yes"/>
      <point x="335" y="1306"/>
      <point x="72" y="1063"/>
      <point x="72" y="661" type="curve" smooth="yes"/>
      <point x="72" y="289"/>
      <point x="327" y="10"/>
      <point x="715" y="10" type="curve" smooth="yes"/>
      <point x="839" y="10"/>
      <point x="967" y="35"/>
      <point x="1102" y="84" type="curve"/>
      <point x="1102" y="510" type="line" smooth="yes"/>
      <point x="1102" y="533"/>
      <point x="1115" y="546"/>
      <point x="1141" y="548" type="curve" smooth="yes"/>
    </contour>
  </outline>
</glyph>
<glyph name="H" format="2">
  <advance width="1370"/>
  <unicode hex="0048"/>
  <outline>
    <contour>
      <point x="1310" y="40" type="line"/>
      <point x="1310" y="119" type="line"/>
      <point x="1215" y="126" type="line" smooth="yes"/>
      <point x="1188" y="128"/>
      <point x="1174" y="142"/>
      <point x="1174" y="167" type="curve" smooth="yes"/>
      <point x="1174" y="1150" type="line" smooth="yes"/>
      <point x="1174" y="1174"/>
      <point x="1188" y="1186"/>
      <point x="1215" y="1188" type="curve" smooth="yes"/>
      <point x="1310" y="1196" type="line"/>
      <point x="1310" y="1277" type="line"/>
      <point x="844" y="1277" type="line"/>
      <point x="844" y="1196" type="line"/>
      <point x="949" y="1188" type="line" smooth="yes"/>
      <point x="976" y="1186"/>
      <point x="988" y="1174"/>
      <point x="988" y="1150" type="curve" smooth="yes"/>
      <point x="988" y="735" type="line"/>
      <point x="382" y="735" type="line"/>
      <point x="382" y="1150" type="line" smooth="yes"/>
      <point x="382" y="1174"/>
      <point x="394" y="1186"/>
      <point x="420" y="1188" type="curve" smooth="yes"/>
      <point x="526" y="1196" type="line"/>
      <point x="526" y="1277" type="line"/>
      <point x="59" y="1277" type="line"/>
      <point x="59" y="1196" type="line"/>
      <point x="155" y="1188" type="line" smooth="yes"/>
      <point x="182" y="1186"/>
      <point x="195" y="1174"/>
      <point x="195" y="1150" type="curve" smooth="yes"/>
      <point x="195" y="167" type="line" smooth="yes"/>
      <point x="195" y="142"/>
      <point x="182" y="128"/>
      <point x="155" y="126" type="curve" smooth="yes"/>
      <point x="59" y="119" type="line"/>
      <point x="59" y="40" type="line"/>
      <point x="526" y="40" type="line"/>
      <point x="526" y="119" type="line"/>
      <point x="420" y="126" type="line" smooth="yes"/>
      <point x="394" y="128"/>
      <point x="382" y="142"/>
      <point x="382" y="167" type="curve" smooth="yes"/>
      <point x="382" y="643" type="line"/>
      <point x="988" y="643" type="line"/>
      <point x="988" y="167" type="line" smooth="yes"/>
      <point x="988" y="142"/>
      <point x="976" y="128"/>
      <point x="949" y="126" type="curve" smooth="yes"/>
      <point x="844" y="119" type="line"/>
      <point x="844" y="40" type="line"/>
    </contour>
  </outline>
</glyph>
<glyph name="J" format="2">
  <advance width="895"/>
  <unicode hex="004A"/>
  <outline>
    <contour>
      <point x="846" y="1197" type="line"/>
      <point x="846" y="1277" type="line"/>
      <point x="359" y="1277" type="line"/>
      <point x="359" y="1197" type="line"/>
      <point x="475" y="1190" type="line" smooth="yes"/>
      <point x="501" y="1188"/>
      <point x="514" y="1175"/>
      <point x="514" y="1150" type="curve" smooth="yes"/>
      <point x="514" y="494" type="line" smooth="yes"/>
      <point x="514" y="295"/>
      <point x="481" y="105"/>
      <point x="282" y="105" type="curve" smooth="yes"/>
      <point x="231" y="105"/>
      <point x="202" y="121"/>
      <point x="197" y="152" type="curve" smooth="yes"/>
      <point x="157" y="377" type="line"/>
      <point x="46" y="377" type="line"/>
      <point x="46" y="62" type="line"/>
      <point x="150" y="27"/>
      <point x="233" y="10"/>
      <point x="295" y="10" type="curve" smooth="yes"/>
      <point x="565" y="10"/>
      <point x="700" y="176"/>
      <point x="700" y="506" type="curve" smooth="yes"/>
      <point x="700" y="1150" type="line" smooth="yes"/>
      <point x="700" y="1175"/>
      <point x="713" y="1188"/>
      <point x="739" y="1190" type="curve" smooth="yes"/>
    </contour>
  </outline>
</glyph>
<glyph name="K" format="1">
  <advance width="1176"/>
  <unicode hex="004B"/>
  <outline>
    <contour>
      <point x="1176" y="40" type="line"/>
      <point x="853" y="40" type="line"/>
      <point x="853" y="97" type="line"/>
      <point x="510" y="589" type="line"/>
      <point x="382" y="589" type="line"/>
      <point x="382" y="167" type="line" smooth="yes"/>
      <point x="382" y="142"/>
      <point x="395" y="128"/>
      <point x="422" y="126" type="curve" smooth="yes"/>
      <point x="527" y="119" type="line"/>
      <point x="527" y="40" type="line"/>
      <point x="59" y="40" type="line"/>
      <point x="59" y="119" type="line"/>
      <point x="157" y="126" type="line" smooth="yes"/>
      <point x="183" y="128"/>
      <point x="195" y="142"/>
      <point x="195" y="167" type="curve" smooth="yes"/>
      <point x="195" y="1150" type="line" smooth="yes"/>
      <point x="195" y="1175"/>
      <point x="183" y="1188"/>
      <point x="157" y="1190" type="curve" smooth="yes"/>
      <point x="59" y="1197" type="line"/>
      <point x="59" y="1277" type="line"/>
      <point x="527" y="1277" type="line"/>
      <point x="527" y="1197" type="line"/>
      <point x="422" y="1190" type="line" smooth="yes"/>
      <point x="395" y="1188"/>
      <point x="382" y="1175"/>
      <point x="382" y="1150" type="curve" smooth="yes"/>
      <point x="382" y="666" type="line"/>
      <point x="448" y="666" type="line"/>
      <point x="850" y="1157" type="line" smooth="yes"/>
      <point x="854" y="1162"/>
      <point x="854" y="1169"/>
      <point x="850" y="1177" type="curve" smooth="yes"/>
      <point x="847" y="1184"/>
      <point x="841" y="1187"/>
      <point x="835" y="1188" type="curve" smooth="yes"/>
      <point x="741" y="1197" type="line"/>
      <point x="741" y="1277" type="line"/>
      <point x="1131" y="1277" type="line"/>
      <point x="1131" y="1197" type="line"/>
      <point x="1006" y="1183" type="line"/>
      <point x="630" y="733" type="line"/>
      <point x="1043" y="128" type="line"/>
      <point x="1176" y="119" type="line"/>
    </contour>
  </outline>
</glyph>
<glyph name="L" format="1">
  <advance width="978"/>
  <unicode hex="004C"/>
  <outline>
    <contour>
      <point x="946" y="40" type="line"/>
      <point x="49" y="40" type="line"/>
      <point x="49" y="119" type="line"/>
      <point x="157" y="126" type="line" smooth="yes"/>
      <point x="183" y="128"/>
      <point x="195" y="142"/>
      <point x="195" y="167" type="curve" smooth="yes"/>
      <point x="195" y="1150" type="line" smooth="yes"/>
      <point x="195" y="1175"/>
      <point x="183" y="1188"/>
      <point x="157" y="1190" type="curve" smooth="yes"/>
      <point x="49" y="1197" type="line"/>
      <point x="49" y="1277" type="line"/>
      <point x="520" y="1277" type="line"/>
      <point x="520" y="1197" type="line"/>
      <point x="422" y="1190" type="line" smooth="yes"/>
      <point x="395" y="1188"/>
      <point x="382" y="1175"/>
      <point x="382" y="1150" type="curve" smooth="yes"/>
      <point x="382" y="130" type="line"/>
      <point x="769" y="130" type="line" smooth="yes"/>
      <point x="793" y="130"/>
      <point x="806" y="141"/>
      <point x="809" y="161" type="curve" smooth="yes"/>
      <point x="839" y="383" type="line"/>
      <point x="946" y="383" type="line"/>
    </contour>
  </outline>
</glyph>
<glyph name="M" format="1">
  <advance width="1615"/>
  <unicode hex="004D"/>
  <outline>
    <contour>
      <point x="1557" y="40" type="line"/>
      <point x="1093" y="40" type="line"/>
      <point x="1093" y="119" type="line"/>
      <point x="1191" y="126" type="line" smooth="yes"/>
      <point x="1218" y="128"/>
      <point x="1231" y="142"/>
      <point x="1231" y="167" type="curve" smooth="yes"/>
      <point x="1231" y="1183" type="line"/>
      <point x="807" y="40" type="line"/>
      <point x="715" y="40" type="line"/>
      <point x="306" y="1166" type="line"/>
      <point x="306" y="167" type="line" smooth="yes"/>
      <point x="306" y="142"/>
      <point x="319" y="128"/>
      <point x="346" y="126" type="curve" smooth="yes"/>
      <point x="452" y="119" type="line"/>
      <point x="452" y="40" type="line"/>
      <point x="53" y="40" type="line"/>
      <point x="53" y="119" type="line"/>
      <point x="158" y="126" type="line" smooth="yes"/>
      <point x="184" y="128"/>
      <point x="197" y="142"/>
      <point x="197" y="167" type="curve" smooth="yes"/>
      <point x="197" y="1150" type="line" smooth="yes"/>
      <point x="197" y="1175"/>
      <point x="184" y="1188"/>
      <point x="158" y="1190" type="curve" smooth="yes"/>
      <point x="53" y="1197" type="line"/>
      <point x="53" y="1277" type="line"/>
      <point x="466" y="1277" type="line"/>
      <point x="466" y="1227" type="line"/>
      <point x="800" y="322" type="line"/>
      <point x="1134" y="1222" type="line"/>
      <point x="1134" y="1277" type="line"/>
      <point x="1557" y="1277" type="line"/>
      <point x="1557" y="1197" type="line"/>
      <point x="1458" y="1190" type="line" smooth="yes"/>
      <point x="1431" y="1188"/>
      <point x="1417" y="1175"/>
      <point x="1417" y="1150" type="curve" smooth="yes"/>
      <point x="1417" y="167" type="line" smooth="yes"/>
      <point x="1417" y="142"/>
      <point x="1431" y="128"/>
      <point x="1458" y="126" type="curve" smooth="yes"/>
      <point x="1557" y="119" type="line"/>
    </contour>
  </outline>
</glyph>
<glyph name="N" format="2">
  <advance width="1328"/>
  <unicode hex="004E"/>
  <outline>
    <contour>
      <point x="1275" y="1197" type="line"/>
      <point x="1275" y="1277" type="line"/>
      <point x="881" y="1277" type="line"/>
      <point x="881" y="1197" type="line"/>
      <point x="986" y="1190" type="line" smooth="yes"/>
      <point x="1012" y="1188"/>
      <point x="1025" y="1175"/>
      <point x="1025" y="1150" type="curve" smooth="yes"/>
      <point x="1025" y="304" type="line"/>
      <point x="411" y="1231" type="line"/>
      <point x="411" y="1277" type="line"/>
      <point x="46" y="1277" type="line"/>
      <point x="46" y="1197" type="line"/>
      <point x="155" y="1190" type="line" smooth="yes"/>
      <point x="182" y="1188"/>
      <point x="195" y="1175"/>
      <point x="195" y="1150" type="curve" smooth="yes"/>
      <point x="195" y="167" type="line" smooth="yes"/>
      <point x="195" y="142"/>
      <point x="182" y="128"/>
      <point x="155" y="126" type="curve" smooth="yes"/>
      <point x="49" y="119" type="line"/>
      <point x="49" y="40" type="line"/>
      <point x="448" y="40" type="line"/>
      <point x="448" y="119" type="line"/>
      <point x="343" y="126" type="line" smooth="yes"/>
      <point x="317" y="128"/>
      <point x="304" y="142"/>
      <point x="304" y="167" type="curve" smooth="yes"/>
      <point x="304" y="1072" type="line"/>
      <point x="990" y="40" type="line"/>
      <point x="1134" y="40" type="line"/>
      <point x="1134" y="1150" type="line" smooth="yes"/>
      <point x="1134" y="1175"/>
      <point x="1147" y="1188"/>
      <point x="1173" y="1190" type="curve" smooth="yes"/>
    </contour>
  </outline>
</glyph>
<glyph name="O" format="2">
  <advance width="1347"/>
  <unicode hex="004F"/>
  <outline>
    <contour>
      <point x="1275" y="657" type="curve" smooth="yes"/>
      <point x="1275" y="1020"/>
      <point x="1036" y="1306"/>
      <point x="673" y="1306" type="curve" smooth="yes"/>
      <point x="309" y="1306"/>
      <point x="72" y="1023"/>
      <point x="72" y="659" type="curve" smooth="yes"/>
      <point x="72" y="292"/>
      <point x="308" y="10"/>
      <point x="675" y="10" type="curve" smooth="yes"/>
      <point x="1036" y="10"/>
      <point x="1275" y="296"/>
    </contour>
    <contour>
      <point x="1062" y="656" type="curve" smooth="yes"/>
      <point x="1062" y="378"/>
      <point x="948" y="112"/>
      <point x="671" y="112" type="curve" smooth="yes"/>
      <point x="396" y="112"/>
      <point x="284" y="384"/>
      <point x="284" y="659" type="curve" smooth="yes"/>
      <point x="284" y="936"/>
      <point x="398" y="1201"/>
      <point x="675" y="1201" type="curve" smooth="yes"/>
      <point x="949" y="1201"/>
      <point x="1062" y="937"/>
    </contour>
  </outline>
</glyph>
<glyph name="P" format="2">
  <advance width="1067"/>
  <unicode hex="0050"/>
  <outline>
    <contour>
      <point x="995" y="905" type="curve" smooth="yes"/>
      <point x="995" y="1207"/>
      <point x="788" y="1277"/>
      <point x="487" y="1277" type="curve" smooth="yes"/>
      <point x="46" y="1277" type="line"/>
      <point x="46" y="1197" type="line"/>
      <point x="157" y="1190" type="line" smooth="yes"/>
      <point x="184" y="1188"/>
      <point x="197" y="1175"/>
      <point x="197" y="1150" type="curve" smooth="yes"/>
      <point x="197" y="167" type="line" smooth="yes"/>
      <point x="197" y="142"/>
      <point x="184" y="128"/>
      <point x="157" y="126" type="curve" smooth="yes"/>
      <point x="59" y="119" type="line"/>
      <point x="59" y="40" type="line"/>
      <point x="544" y="40" type="line"/>
      <point x="544" y="119" type="line"/>
      <point x="422" y="126" type="line" smooth="yes"/>
      <point x="396" y="127"/>
      <point x="383" y="142"/>
      <point x="383" y="167" type="curve" smooth="yes"/>
      <point x="383" y="510" type="line"/>
      <point x="406" y="505"/>
      <point x="449" y="503"/>
      <point x="514" y="503" type="curve" smooth="yes"/>
      <point x="784" y="503"/>
      <point x="995" y="634"/>
    </contour>
    <contour>
      <point x="804" y="902" type="curve" smooth="yes"/>
      <point x="804" y="695"/>
      <point x="698" y="594"/>
      <point x="487" y="594" type="curve" smooth="yes"/>
      <point x="469" y="594"/>
      <point x="404" y="599"/>
      <point x="383" y="604" type="curve"/>
      <point x="383" y="1185" type="line"/>
      <point x="404" y="1186"/>
      <point x="455" y="1187"/>
      <point x="477" y="1187" type="curve" smooth="yes"/>
      <point x="695" y="1187"/>
      <point x="804" y="1092"/>
    </contour>
  </outline>
</glyph>
<glyph name="Q" format="2">
  <advance width="1363"/>
  <unicode hex="0051"/>
  <outline>
    <contour>
      <point x="1291" y="657" type="curve" smooth="yes"/>
      <point x="1291" y="1028"/>
      <point x="1050" y="1306"/>
      <point x="679" y="1306" type="curve" smooth="yes"/>
      <point x="314" y="1306"/>
      <point x="72" y="1027"/>
      <point x="72" y="657" type="curve" smooth="yes"/>
      <point x="72" y="324"/>
      <point x="264" y="62"/>
      <point x="584" y="17" type="curve"/>
      <point x="584" y="-190"/>
      <point x="703" y="-293"/>
      <point x="940" y="-293" type="curve" smooth="yes"/>
      <point x="1027" y="-293"/>
      <point x="1118" y="-283"/>
      <point x="1213" y="-262" type="curve"/>
      <point x="1213" y="-183" type="line"/>
      <point x="1154" y="-197"/>
      <point x="1094" y="-203"/>
      <point x="1036" y="-203" type="curve" smooth="yes"/>
      <point x="868" y="-203"/>
      <point x="781" y="-128"/>
      <point x="781" y="20" type="curve"/>
      <point x="1105" y="73"/>
      <point x="1291" y="326"/>
    </contour>
    <contour>
      <point x="1073" y="657" type="curve" smooth="yes"/>
      <point x="1073" y="381"/>
      <point x="956" y="112"/>
      <point x="680" y="112" type="curve" smooth="yes"/>
      <point x="406" y="112"/>
      <point x="288" y="383"/>
      <point x="288" y="661" type="curve" smooth="yes"/>
      <point x="288" y="943"/>
      <point x="402" y="1203"/>
      <point x="680" y="1203" type="curve" smooth="yes"/>
      <point x="959" y="1203"/>
      <point x="1073" y="936"/>
    </contour>
  </outline>
</glyph>
<glyph name="R" format="2">
  <advance width="1196"/>
  <unicode hex="0052"/>
  <outline>
    <contour>
      <point x="1196" y="34" type="curve"/>
      <point x="1196" y="117" type="line"/>
      <point x="1083" y="117"/>
      <point x="1004" y="153"/>
      <point x="974" y="232" type="curve" smooth="yes"/>
      <point x="946" y="306"/>
      <point x="935" y="387"/>
      <point x="909" y="463" type="curve" smooth="yes"/>
      <point x="877" y="557"/>
      <point x="800" y="615"/>
      <point x="689" y="641" type="curve"/>
      <point x="891" y="686"/>
      <point x="992" y="789"/>
      <point x="992" y="949" type="curve" smooth="yes"/>
      <point x="992" y="1168"/>
      <point x="841" y="1277"/>
      <point x="540" y="1277" type="curve" smooth="yes"/>
      <point x="59" y="1277" type="line"/>
      <point x="59" y="1197" type="line"/>
      <point x="155" y="1190" type="line" smooth="yes"/>
      <point x="182" y="1188"/>
      <point x="195" y="1175"/>
      <point x="195" y="1150" type="curve" smooth="yes"/>
      <point x="195" y="167" type="line" smooth="yes"/>
      <point x="195" y="142"/>
      <point x="182" y="128"/>
      <point x="155" y="126" type="curve" smooth="yes"/>
      <point x="59" y="119" type="line"/>
      <point x="59" y="40" type="line"/>
      <point x="518" y="40" type="line"/>
      <point x="518" y="119" type="line"/>
      <point x="420" y="126" type="line" smooth="yes"/>
      <point x="394" y="128"/>
      <point x="382" y="142"/>
      <point x="382" y="167" type="curve" smooth="yes"/>
      <point x="382" y="587" type="line"/>
      <point x="399" y="589"/>
      <point x="437" y="591"/>
      <point x="464" y="591" type="curve" smooth="yes"/>
      <point x="590" y="591"/>
      <point x="683" y="542"/>
      <point x="725" y="440" type="curve" smooth="yes"/>
      <point x="762" y="349"/>
      <point x="784" y="251"/>
      <point x="821" y="161" type="curve" smooth="yes"/>
      <point x="863" y="59"/>
      <point x="953" y="10"/>
      <point x="1075" y="10" type="curve" smooth="yes"/>
      <point x="1115" y="10"/>
      <point x="1171" y="26"/>
    </contour>
    <contour>
      <point x="791" y="941" type="curve" smooth="yes"/>
      <point x="791" y="741"/>
      <point x="673" y="680"/>
      <point x="473" y="680" type="curve" smooth="yes"/>
      <point x="454" y="680"/>
      <point x="401" y="681"/>
      <point x="382" y="682" type="curve"/>
      <point x="382" y="1187" type="line"/>
      <point x="466" y="1187" type="line" smooth="yes"/>
      <point x="683" y="1187"/>
      <point x="791" y="1105"/>
    </contour>
  </outline>
</glyph>
<glyph name="S" format="2">
  <advance width="960"/>
  <unicode hex="0053"/>
  <outline>
    <contour>
      <point x="888" y="386" type="curve" smooth="yes"/>
      <point x="888" y="588"/>
      <point x="725" y="674"/>
      <point x="538" y="746" type="curve" smooth="yes"/>
      <point x="368" y="811"/>
      <point x="283" y="891"/>
      <point x="283" y="989" type="curve" smooth="yes"/>
      <point x="283" y="1120"/>
      <point x="376" y="1206"/>
      <point x="520" y="1206" type="curve" smooth="yes"/>
      <point x="569" y="1206"/>
      <point x="703" y="1181"/>
      <point x="710" y="1133" type="curve" smooth="yes"/>
      <point x="737" y="956" type="line"/>
      <point x="842" y="956" type="line"/>
      <point x="842" y="1243" type="line"/>
      <point x="710" y="1286"/>
      <point x="602" y="1306"/>
      <point x="518" y="1306" type="curve" smooth="yes"/>
      <point x="285" y="1306"/>
      <point x="93" y="1176"/>
      <point x="93" y="945" type="curve" smooth="yes"/>
      <point x="93" y="766"/>
      <point x="215" y="690"/>
      <point x="376" y="613" type="curve" smooth="yes"/>
      <point x="548" y="531"/>
      <point x="700" y="448"/>
      <point x="700" y="332" type="curve" smooth="yes"/>
      <point x="700" y="182"/>
      <point x="573" y="114"/>
      <point x="429" y="114" type="curve" smooth="yes"/>
      <point x="376" y="114"/>
      <point x="315" y="128"/>
      <point x="244" y="156" type="curve" smooth="yes"/>
      <point x="225" y="163"/>
      <point x="214" y="177"/>
      <point x="212" y="197" type="curve" smooth="yes"/>
      <point x="188" y="405" type="line"/>
      <point x="72" y="405" type="line"/>
      <point x="72" y="79" type="line"/>
      <point x="168" y="33"/>
      <point x="277" y="10"/>
      <point x="400" y="10" type="curve" smooth="yes"/>
      <point x="661" y="10"/>
      <point x="888" y="131"/>
    </contour>
  </outline>
</glyph>
<glyph name="T" format="2">
  <advance width="1104"/>
  <unicode hex="0054"/>
  <outline>
    <contour>
      <point x="1075" y="982" type="line"/>
      <point x="1075" y="1277" type="line"/>
      <point x="30" y="1277" type="line"/>
      <point x="30" y="982" type="line"/>
      <point x="137" y="982" type="line"/>
      <point x="162" y="1155" type="line" smooth="yes"/>
      <point x="165" y="1176"/>
      <point x="175" y="1187"/>
      <point x="193" y="1187" type="curve" smooth="yes"/>
      <point x="459" y="1187" type="line"/>
      <point x="459" y="167" type="line" smooth="yes"/>
      <point x="459" y="142"/>
      <point x="446" y="128"/>
      <point x="420" y="126" type="curve" smooth="yes"/>
      <point x="302" y="119" type="line"/>
      <point x="302" y="40" type="line"/>
      <point x="802" y="40" type="line"/>
      <point x="802" y="119" type="line"/>
      <point x="684" y="126" type="line" smooth="yes"/>
      <point x="658" y="128"/>
      <point x="645" y="142"/>
      <point x="645" y="167" type="curve" smooth="yes"/>
      <point x="645" y="1187" type="line"/>
      <point x="909" y="1187" type="line" smooth="yes"/>
      <point x="926" y="1187"/>
      <point x="937" y="1176"/>
      <point x="940" y="1155" type="curve" smooth="yes"/>
      <point x="966" y="982" type="line"/>
    </contour>
  </outline>
</glyph>
<glyph name="U" format="2">
  <advance width="1313"/>
  <unicode hex="0055"/>
  <outline>
    <contour>
      <point x="1262" y="1197" type="line"/>
      <point x="1262" y="1277" type="line"/>
      <point x="863" y="1277" type="line"/>
      <point x="863" y="1197" type="line"/>
      <point x="968" y="1190" type="line" smooth="yes"/>
      <point x="995" y="1188"/>
      <point x="1009" y="1175"/>
      <point x="1009" y="1150" type="curve" smooth="yes"/>
      <point x="1009" y="497" type="line" smooth="yes"/>
      <point x="1009" y="258"/>
      <point x="919" y="134"/>
      <point x="694" y="134" type="curve" smooth="yes"/>
      <point x="456" y="134"/>
      <point x="381" y="259"/>
      <point x="381" y="497" type="curve" smooth="yes"/>
      <point x="381" y="1150" type="line" smooth="yes"/>
      <point x="381" y="1175"/>
      <point x="393" y="1188"/>
      <point x="419" y="1190" type="curve" smooth="yes"/>
      <point x="525" y="1197" type="line"/>
      <point x="525" y="1277" type="line"/>
      <point x="58" y="1277" type="line"/>
      <point x="58" y="1197" type="line"/>
      <point x="156" y="1190" type="line" smooth="yes"/>
      <point x="182" y="1188"/>
      <point x="194" y="1175"/>
      <point x="194" y="1150" type="curve" smooth="yes"/>
      <point x="194" y="449" type="line" smooth="yes"/>
      <point x="194" y="157"/>
      <point x="344" y="10"/>
      <point x="643" y="10" type="curve" smooth="yes"/>
      <point x="959" y="10"/>
      <point x="1118" y="157"/>
      <point x="1118" y="449" type="curve" smooth="yes"/>
      <point x="1118" y="1150" type="line" smooth="yes"/>
      <point x="1118" y="1175"/>
      <point x="1130" y="1188"/>
      <point x="1156" y="1190" type="curve" smooth="yes"/>
    </contour>
  </outline>
</glyph>
<glyph name="V" format="1">
  <advance width="1227"/>
  <unicode hex="0056"/>
  <outline>
    <contour>
      <point x="1209" y="1197" type="line"/>
      <point x="1102" y="1178" type="line"/>
      <point x="689" y="10" type="line"/>
      <point x="549" y="10" type="line"/>
      <point x="127" y="1179" type="line"/>
      <point x="18" y="1197" type="line"/>
      <point x="18" y="1277" type="line"/>
      <point x="459" y="1277" type="line"/>
      <point x="459" y="1197" type="line"/>
      <point x="350" y="1188" type="line" smooth="yes"/>
      <point x="344" y="1187"/>
      <point x="339" y="1184"/>
      <point x="336" y="1176" type="curve" smooth="yes"/>
      <point x="332" y="1168"/>
      <point x="332" y="1161"/>
      <point x="334" y="1155" type="curve" smooth="yes"/>
      <point x="658" y="244" type="line"/>
      <point x="969" y="1151" type="line" smooth="yes"/>
      <point x="972" y="1159"/>
      <point x="970" y="1167"/>
      <point x="965" y="1175" type="curve" smooth="yes"/>
      <point x="959" y="1183"/>
      <point x="952" y="1187"/>
      <point x="944" y="1188" type="curve" smooth="yes"/>
      <point x="842" y="1197" type="line"/>
      <point x="842" y="1277" type="line"/>
      <point x="1209" y="1277" type="line"/>
    </contour>
  </outline>
</glyph>
<glyph name="W" format="2">
  <advance width="1715"/>
  <unicode hex="0057"/>
  <outline>
    <contour>
      <point x="1697" y="1197" type="line"/>
      <point x="1697" y="1277" type="line"/>
      <point x="1321" y="1277" type="line"/>
      <point x="1321" y="1197" type="line"/>
      <point x="1437" y="1187" type="line" smooth="yes"/>
      <point x="1460" y="1185"/>
      <point x="1469" y="1172"/>
      <point x="1463" y="1150" type="curve"/>
      <point x="1259" y="288" type="line"/>
      <point x="962" y="1277" type="line"/>
      <point x="820" y="1277" type="line"/>
      <point x="531" y="318" type="line"/>
      <point x="311" y="1150" type="line" smooth="yes"/>
      <point x="305" y="1172"/>
      <point x="311" y="1185"/>
      <point x="330" y="1187" type="curve" smooth="yes"/>
      <point x="440" y="1197" type="line"/>
      <point x="440" y="1277" type="line"/>
      <point x="18" y="1277" type="line"/>
      <point x="18" y="1197" type="line"/>
      <point x="125" y="1176" type="line"/>
      <point x="426" y="10" type="line"/>
      <point x="559" y="10" type="line"/>
      <point x="860" y="1032" type="line"/>
      <point x="1168" y="10" type="line"/>
      <point x="1303" y="10" type="line"/>
      <point x="1585" y="1176" type="line"/>
    </contour>
  </outline>
</glyph>
<glyph name="X" format="2">
  <advance width="1168"/>
  <unicode hex="0058"/>
  <outline>
    <contour>
      <point x="1150" y="40" type="line"/>
      <point x="677" y="40" type="line"/>
      <point x="677" y="119" type="line"/>
      <point x="783" y="130" type="line" smooth="yes"/>
      <point x="800" y="132"/>
      <point x="809" y="141"/>
      <point x="809" y="156" type="curve" smooth="yes"/>
      <point x="809" y="161"/>
      <point x="808" y="164"/>
      <point x="805" y="169" type="curve" smooth="yes"/>
      <point x="561" y="554" type="line"/>
      <point x="276" y="163" type="line" smooth="yes"/>
      <point x="261" y="143"/>
      <point x="269" y="131"/>
      <point x="299" y="128" type="curve" smooth="yes"/>
      <point x="409" y="119" type="line"/>
      <point x="409" y="40" type="line"/>
      <point x="18" y="40" type="line"/>
      <point x="18" y="119" type="line"/>
      <point x="129" y="142" type="line"/>
      <point x="499" y="650" type="line"/>
      <point x="164" y="1176" type="line"/>
      <point x="42" y="1197" type="line"/>
      <point x="42" y="1277" type="line"/>
      <point x="505" y="1277" type="line"/>
      <point x="505" y="1197" type="line"/>
      <point x="411" y="1188" type="line" smooth="yes"/>
      <point x="382" y="1186"/>
      <point x="374" y="1173"/>
      <point x="389" y="1151" type="curve" smooth="yes"/>
      <point x="614" y="805" type="line"/>
      <point x="862" y="1146" type="line" smooth="yes"/>
      <point x="866" y="1151"/>
      <point x="868" y="1156"/>
      <point x="868" y="1160" type="curve" smooth="yes"/>
      <point x="868" y="1174"/>
      <point x="859" y="1183"/>
      <point x="842" y="1185" type="curve" smooth="yes"/>
      <point x="748" y="1197" type="line"/>
      <point x="748" y="1277" type="line"/>
      <point x="1134" y="1277" type="line"/>
      <point x="1134" y="1197" type="line"/>
      <point x="1015" y="1179" type="line"/>
      <point x="673" y="709" type="line"/>
      <point x="1036" y="142" type="line"/>
      <point x="1150" y="119" type="line"/>
    </contour>
  </outline>
</glyph>
<glyph name="Y" format="2">
  <advance width="1154"/>
  <unicode hex="0059"/>
  <outline>
    <contour>
      <point x="1136" y="1197" type="line"/>
      <point x="1136" y="1277" type="line"/>
      <point x="761" y="1277" type="line"/>
      <point x="761" y="1197" type="line"/>
      <point x="864" y="1185" type="line" smooth="yes"/>
      <point x="881" y="1183"/>
      <point x="890" y="1174"/>
      <point x="890" y="1159" type="curve" smooth="yes"/>
      <point x="890" y="1154"/>
      <point x="889" y="1151"/>
      <point x="886" y="1146" type="curve" smooth="yes"/>
      <point x="601" y="670" type="line"/>
      <point x="341" y="1151" type="line" smooth="yes"/>
      <point x="337" y="1158"/>
      <point x="336" y="1164"/>
      <point x="336" y="1169" type="curve" smooth="yes"/>
      <point x="336" y="1180"/>
      <point x="345" y="1186"/>
      <point x="363" y="1188" type="curve" smooth="yes"/>
      <point x="455" y="1197" type="line"/>
      <point x="455" y="1277" type="line"/>
      <point x="18" y="1277" type="line"/>
      <point x="18" y="1197" type="line"/>
      <point x="125" y="1176" type="line"/>
      <point x="479" y="538" type="line"/>
      <point x="479" y="167" type="line" smooth="yes"/>
      <point x="479" y="142"/>
      <point x="465" y="128"/>
      <point x="438" y="126" type="curve" smooth="yes"/>
      <point x="324" y="119" type="line"/>
      <point x="324" y="40" type="line"/>
      <point x="822" y="40" type="line"/>
      <point x="822" y="119" type="line"/>
      <point x="704" y="126" type="line" smooth="yes"/>
      <point x="678" y="128"/>
      <point x="665" y="142"/>
      <point x="665" y="167" type="curve" smooth="yes"/>
      <point x="665" y="566" type="line"/>
      <point x="1036" y="1179" type="line"/>
    </contour>
  </outline>
</glyph>
<glyph name="Z" format="2">
  <advance width="1060"/>
  <unicode hex="005A"/>
  <outline>
    <contour>
      <point x="988" y="40" type="line"/>
      <point x="72" y="40" type="line"/>
      <point x="72" y="121" type="line"/>
      <point x="758" y="1185" type="line"/>
      <point x="279" y="1185" type="line" smooth="yes"/>
      <point x="262" y="1185"/>
      <point x="251" y="1174"/>
      <point x="247" y="1153" type="curve"/>
      <point x="220" y="982" type="line"/>
      <point x="111" y="982" type="line"/>
      <point x="111" y="1277" type="line"/>
      <point x="979" y="1277" type="line"/>
      <point x="979" y="1192" type="line"/>
      <point x="292" y="134" type="line"/>
      <point x="817" y="134" type="line" smooth="yes"/>
      <point x="834" y="134"/>
      <point x="844" y="144"/>
      <point x="848" y="167" type="curve"/>
      <point x="879" y="381" type="line"/>
      <point x="988" y="381" type="line"/>
    </contour>
  </outline>
</glyph>
<glyph name="bracketleft" format="2">
  <advance width="867"/>
  <unicode hex="005B"/>
  <outline>
    <contour>
      <point x="777" y="-270" type="line"/>
      <point x="278" y="-270" type="line"/>
      <point x="278" y="1450" type="line"/>
      <point x="777" y="1450" type="line"/>
      <point x="777" y="1358" type="line"/>
      <point x="456" y="1358" type="line"/>
      <point x="456" y="-176" type="line"/>
      <point x="777" y="-176" type="line"/>
    </contour>
  </outline>
</glyph>
<glyph name="backslash" format="1">
  <advance width="901"/>
  <unicode hex="005C"/>
  <outline>
    <contour>
      <point x="901" y="-131" type="line"/>
      <point x="783" y="-131" type="line"/>
      <point x="0" y="1277" type="line"/>
      <point x="118" y="1277" type="line"/>
    </contour>
  </outline>
</glyph>
<glyph name="bracketright" format="2">
  <advance width="867"/>
  <unicode hex="005D"/>
  <outline>
    <contour>
      <point x="589" y="-270" type="line"/>
      <point x="589" y="1450" type="line"/>
      <point x="90" y="1450" type="line"/>
      <point x="90" y="1358" type="line"/>
      <point x="411" y="1358" type="line"/>
      <point x="411" y="-176" type="line"/>
      <point x="90" y="-176" type="line"/>
      <point x="90" y="-270" type="line"/>
    </contour>
  </outline>
</glyph>
<glyph name="underscore" format="1">
  <advance width="922"/>
  <unicode hex="005F"/>
  <outline>
    <contour>
      <point x="922" y="-275" type="line"/>
      <point x="0" y="-275" type="line"/>
      <point x="0" y="-395" type="line"/>
      <point x="922" y="-395" type="line"/>
    </contour>
    <contour>
      <point x="0" y="1448" type="move" smooth="yes"/>
    </contour>
  </outline>
</glyph>
<glyph name="grave" format="2">
  <advance width="644"/>
  <unicode hex="0060"/>
  <outline>
    <contour>
      <point x="427" y="1055" type="line"/>
      <point x="322" y="1055" type="line"/>
      <point x="42" y="1234" type="line" smooth="yes"/>
      <point x="14" y="1252"/>
      <point x="0" y="1277"/>
      <point x="0" y="1308" type="curve" smooth="yes"/>
      <point x="0" y="1363"/>
      <point x="28" y="1391"/>
      <point x="85" y="1391" type="curve" smooth="yes"/>
      <point x="121" y="1391"/>
      <point x="153" y="1375"/>
      <point x="181" y="1341" type="curve" smooth="yes"/>
    </contour>
  </outline>
</glyph>
<glyph name="b" format="2">
  <advance width="1022"/>
  <unicode hex="0062"/>
  <outline>
    <contour>
      <point x="959" y="527" type="curve" smooth="yes"/>
      <point x="959" y="765"/>
      <point x="827" y="950"/>
      <point x="592" y="950" type="curve" smooth="yes"/>
      <point x="517" y="950"/>
      <point x="433" y="927"/>
      <point x="337" y="881" type="curve"/>
      <point x="337" y="1398" type="line"/>
      <point x="263" y="1398" type="line"/>
      <point x="26" y="1327" type="line"/>
      <point x="26" y="1266" type="line"/>
      <point x="166" y="1266" type="line"/>
      <point x="166" y="40" type="line"/>
      <point x="432" y="40" type="line" smooth="yes"/>
      <point x="755" y="40"/>
      <point x="959" y="204"/>
    </contour>
    <contour>
      <point x="773" y="490" type="curve" smooth="yes"/>
      <point x="773" y="247"/>
      <point x="671" y="126"/>
      <point x="428" y="126" type="curve" smooth="yes"/>
      <point x="407" y="126"/>
      <point x="376" y="126"/>
      <point x="337" y="128" type="curve"/>
      <point x="337" y="813" type="line"/>
      <point x="391" y="832"/>
      <point x="442" y="841"/>
      <point x="490" y="841" type="curve" smooth="yes"/>
      <point x="679" y="841"/>
      <point x="773" y="724"/>
    </contour>
  </outline>
</glyph>
<glyph name="c" format="2">
  <advance width="859"/>
  <unicode hex="0063"/>
  <outline>
    <contour>
      <point x="796" y="108" type="curve"/>
      <point x="796" y="214" type="line"/>
      <point x="715" y="161"/>
      <point x="635" y="134"/>
      <point x="557" y="134" type="curve" smooth="yes"/>
      <point x="353" y="134"/>
      <point x="251" y="299"/>
      <point x="251" y="503" type="curve" smooth="yes"/>
      <point x="251" y="688"/>
      <point x="330" y="872"/>
      <point x="515" y="872" type="curve" smooth="yes"/>
      <point x="540" y="872"/>
      <point x="566" y="865"/>
      <point x="592" y="850" type="curve"/>
      <point x="592" y="688" type="line"/>
      <point x="622" y="668"/>
      <point x="652" y="658"/>
      <point x="684" y="658" type="curve" smooth="yes"/>
      <point x="744" y="658"/>
      <point x="793" y="698"/>
      <point x="793" y="765" type="curve" smooth="yes"/>
      <point x="793" y="900"/>
      <point x="642" y="950"/>
      <point x="507" y="950" type="curve" smooth="yes"/>
      <point x="239" y="950"/>
      <point x="63" y="758"/>
      <point x="63" y="478" type="curve" smooth="yes"/>
      <point x="63" y="215"/>
      <point x="224" y="18"/>
      <point x="485" y="18" type="curve" smooth="yes"/>
      <point x="580" y="18"/>
      <point x="684" y="48"/>
    </contour>
  </outline>
</glyph>
<glyph name="d" format="2">
  <advance width="1039"/>
  <unicode hex="0064"/>
  <outline>
    <contour>
      <point x="991" y="40" type="line"/>
      <point x="702" y="40" type="line"/>
      <point x="702" y="138" type="line"/>
      <point x="597" y="58"/>
      <point x="502" y="18"/>
      <point x="417" y="18" type="curve" smooth="yes"/>
      <point x="302" y="18"/>
      <point x="212" y="66"/>
      <point x="148" y="161" type="curve" smooth="yes"/>
      <point x="92" y="243"/>
      <point x="63" y="343"/>
      <point x="63" y="460" type="curve" smooth="yes"/>
      <point x="63" y="596"/>
      <point x="102" y="709"/>
      <point x="179" y="799" type="curve" smooth="yes"/>
      <point x="265" y="899"/>
      <point x="382" y="950"/>
      <point x="533" y="950" type="curve" smooth="yes"/>
      <point x="588" y="950"/>
      <point x="644" y="943"/>
      <point x="702" y="928" type="curve"/>
      <point x="702" y="1266" type="line"/>
      <point x="562" y="1266" type="line"/>
      <point x="562" y="1327" type="line"/>
      <point x="800" y="1398" type="line"/>
      <point x="873" y="1398" type="line"/>
      <point x="873" y="158" type="line" smooth="yes"/>
      <point x="873" y="133"/>
      <point x="886" y="119"/>
      <point x="912" y="117" type="curve" smooth="yes"/>
      <point x="991" y="112" type="line"/>
    </contour>
    <contour>
      <point x="702" y="207" type="curve"/>
      <point x="702" y="835" type="line"/>
      <point x="649" y="854"/>
      <point x="597" y="863"/>
      <point x="545" y="863" type="curve" smooth="yes"/>
      <point x="454" y="863"/>
      <point x="382" y="828"/>
      <point x="327" y="761" type="curve" smooth="yes"/>
      <point x="273" y="693"/>
      <point x="246" y="603"/>
      <point x="246" y="492" type="curve" smooth="yes"/>
      <point x="246" y="388"/>
      <point x="269" y="305"/>
      <point x="315" y="242" type="curve" smooth="yes"/>
      <point x="364" y="177"/>
      <point x="429" y="143"/>
      <point x="512" y="143" type="curve" smooth="yes"/>
      <point x="570" y="143"/>
      <point x="633" y="165"/>
    </contour>
  </outline>
</glyph>
<glyph name="f" format="2">
  <advance width="601"/>
  <unicode hex="0066"/>
  <outline>
    <contour>
      <point x="717" y="1287" type="curve" smooth="yes"/>
      <point x="717" y="1365"/>
      <point x="639" y="1398"/>
      <point x="559" y="1398" type="curve" smooth="yes"/>
      <point x="310" y="1398"/>
      <point x="183" y="1166"/>
      <point x="183" y="917" type="curve"/>
      <point x="65" y="883" type="line"/>
      <point x="65" y="820" type="line"/>
      <point x="183" y="820" type="line"/>
      <point x="183" y="158" type="line" smooth="yes"/>
      <point x="183" y="133"/>
      <point x="170" y="118"/>
      <point x="144" y="117" type="curve" smooth="yes"/>
      <point x="53" y="112" type="line"/>
      <point x="53" y="40" type="line"/>
      <point x="501" y="40" type="line"/>
      <point x="501" y="112" type="line"/>
      <point x="392" y="117" type="line" smooth="yes"/>
      <point x="366" y="118"/>
      <point x="354" y="132"/>
      <point x="354" y="158" type="curve" smooth="yes"/>
      <point x="354" y="820" type="line"/>
      <point x="582" y="820" type="line"/>
      <point x="582" y="913" type="line"/>
      <point x="354" y="913" type="line"/>
      <point x="354" y="1031" type="line" smooth="yes"/>
      <point x="354" y="1178"/>
      <point x="390" y="1271"/>
      <point x="463" y="1309" type="curve"/>
      <point x="632" y="1187" type="line"/>
      <point x="688" y="1204"/>
      <point x="717" y="1237"/>
    </contour>
  </outline>
</glyph>
<glyph name="g" format="2">
  <advance width="967"/>
  <unicode hex="0067"/>
  <outline>
    <contour>
      <point x="937" y="805" type="line"/>
      <point x="937" y="895" type="line"/>
      <point x="688" y="895" type="line"/>
      <point x="608" y="932"/>
      <point x="537" y="950"/>
      <point x="474" y="950" type="curve" smooth="yes"/>
      <point x="267" y="950"/>
      <point x="103" y="842"/>
      <point x="103" y="638" type="curve" smooth="yes"/>
      <point x="103" y="495"/>
      <point x="200" y="390"/>
      <point x="332" y="360" type="curve"/>
      <point x="270" y="296"/>
      <point x="239" y="239"/>
      <point x="239" y="188" type="curve" smooth="yes"/>
      <point x="239" y="169"/>
      <point x="246" y="141"/>
      <point x="258" y="103" type="curve"/>
      <point x="137" y="80"/>
      <point x="63" y="1"/>
      <point x="63" y="-120" type="curve" smooth="yes"/>
      <point x="63" y="-298"/>
      <point x="229" y="-383"/>
      <point x="409" y="-383" type="curve" smooth="yes"/>
      <point x="624" y="-383"/>
      <point x="888" y="-246"/>
      <point x="888" y="-34" type="curve" smooth="yes"/>
      <point x="888" y="173"/>
      <point x="595" y="204"/>
      <point x="389" y="224" type="curve"/>
      <point x="383" y="240"/>
      <point x="381" y="255"/>
      <point x="381" y="271" type="curve" smooth="yes"/>
      <point x="381" y="297"/>
      <point x="389" y="323"/>
      <point x="404" y="348" type="curve"/>
      <point x="416" y="347"/>
      <point x="428" y="347"/>
      <point x="441" y="347" type="curve" smooth="yes"/>
      <point x="628" y="347"/>
      <point x="802" y="452"/>
      <point x="802" y="639" type="curve" smooth="yes"/>
      <point x="802" y="697"/>
      <point x="786" y="752"/>
      <point x="752" y="805" type="curve"/>
    </contour>
    <contour>
      <point x="627" y="650" type="curve" smooth="yes"/>
      <point x="627" y="533"/>
      <point x="572" y="423"/>
      <point x="455" y="423" type="curve" smooth="yes"/>
      <point x="337" y="423"/>
      <point x="281" y="530"/>
      <point x="281" y="648" type="curve" smooth="yes"/>
      <point x="281" y="771"/>
      <point x="336" y="874"/>
      <point x="455" y="874" type="curve" smooth="yes"/>
      <point x="570" y="874"/>
      <point x="627" y="765"/>
    </contour>
    <contour>
      <point x="730" y="-83" type="curve" smooth="yes"/>
      <point x="730" y="-204"/>
      <point x="609" y="-297"/>
      <point x="470" y="-297" type="curve" smooth="yes"/>
      <point x="341" y="-297"/>
      <point x="229" y="-208"/>
      <point x="229" y="-83" type="curve" smooth="yes"/>
      <point x="229" y="-1"/>
      <point x="275" y="56"/>
      <point x="369" y="89" type="curve"/>
      <point x="515" y="75"/>
      <point x="730" y="52"/>
    </contour>
  </outline>
</glyph>
<glyph name="h" format="2">
  <advance width="1058"/>
  <unicode hex="0068"/>
  <outline>
    <contour>
      <point x="1016" y="40" type="line"/>
      <point x="1016" y="112" type="line"/>
      <point x="932" y="117" type="line" smooth="yes"/>
      <point x="905" y="119"/>
      <point x="892" y="133"/>
      <point x="892" y="158" type="curve" smooth="yes"/>
      <point x="892" y="672" type="line" smooth="yes"/>
      <point x="892" y="837"/>
      <point x="805" y="950"/>
      <point x="642" y="950" type="curve" smooth="yes"/>
      <point x="562" y="950"/>
      <point x="461" y="912"/>
      <point x="337" y="836" type="curve"/>
      <point x="337" y="1398" type="line"/>
      <point x="264" y="1398" type="line"/>
      <point x="28" y="1327" type="line"/>
      <point x="28" y="1266" type="line"/>
      <point x="166" y="1266" type="line"/>
      <point x="166" y="158" type="line" smooth="yes"/>
      <point x="166" y="133"/>
      <point x="154" y="118"/>
      <point x="128" y="117" type="curve" smooth="yes"/>
      <point x="39" y="112" type="line"/>
      <point x="39" y="40" type="line"/>
      <point x="454" y="40" type="line"/>
      <point x="454" y="112" type="line"/>
      <point x="374" y="117" type="line" smooth="yes"/>
      <point x="350" y="119"/>
      <point x="337" y="133"/>
      <point x="337" y="158" type="curve" smooth="yes"/>
      <point x="337" y="763" type="line"/>
      <point x="403" y="799"/>
      <point x="470" y="817"/>
      <point x="538" y="817" type="curve" smooth="yes"/>
      <point x="660" y="817"/>
      <point x="721" y="755"/>
      <point x="721" y="633" type="curve" smooth="yes"/>
      <point x="721" y="158" type="line" smooth="yes"/>
      <point x="721" y="133"/>
      <point x="707" y="119"/>
      <point x="680" y="117" type="curve" smooth="yes"/>
      <point x="605" y="112" type="line"/>
      <point x="605" y="40" type="line"/>
    </contour>
  </outline>
</glyph>
<glyph name="i" format="2">
  <advance width="559"/>
  <unicode hex="0069"/>
  <outline>
    <contour>
      <point x="401" y="1232" type="curve" smooth="yes"/>
      <point x="401" y="1300"/>
      <point x="348" y="1345"/>
      <point x="290" y="1345" type="curve" smooth="yes"/>
      <point x="227" y="1345"/>
      <point x="175" y="1295"/>
      <point x="175" y="1232" type="curve" smooth="yes"/>
      <point x="175" y="1170"/>
      <point x="224" y="1118"/>
      <point x="290" y="1118" type="curve" smooth="yes"/>
      <point x="354" y="1118"/>
      <point x="401" y="1168"/>
    </contour>
    <contour>
      <point x="496" y="40" type="line"/>
      <point x="496" y="112" type="line"/>
      <point x="401" y="117" type="line" smooth="yes"/>
      <point x="375" y="118"/>
      <point x="363" y="132"/>
      <point x="363" y="158" type="curve" smooth="yes"/>
      <point x="363" y="950" type="line"/>
      <point x="290" y="950" type="line"/>
      <point x="65" y="880" type="line"/>
      <point x="65" y="817" type="line"/>
      <point x="192" y="817" type="line"/>
      <point x="192" y="158" type="line" smooth="yes"/>
      <point x="192" y="133"/>
      <point x="179" y="118"/>
      <point x="153" y="117" type="curve" smooth="yes"/>
      <point x="63" y="112" type="line"/>
      <point x="63" y="40" type="line"/>
    </contour>
  </outline>
</glyph>
<glyph name="j" format="2">
  <advance width="538"/>
  <unicode hex="006A"/>
  <outline>
    <contour>
      <point x="392" y="1232" type="curve" smooth="yes"/>
      <point x="392" y="1298"/>
      <point x="340" y="1345"/>
      <point x="280" y="1345" type="curve" smooth="yes"/>
      <point x="217" y="1345"/>
      <point x="166" y="1297"/>
      <point x="166" y="1232" type="curve" smooth="yes"/>
      <point x="166" y="1168"/>
      <point x="216" y="1118"/>
      <point x="280" y="1118" type="curve" smooth="yes"/>
      <point x="341" y="1118"/>
      <point x="392" y="1167"/>
    </contour>
    <contour>
      <point x="372" y="159" type="curve"/>
      <point x="372" y="950" type="line"/>
      <point x="297" y="950" type="line"/>
      <point x="70" y="881" type="line"/>
      <point x="70" y="819" type="line"/>
      <point x="201" y="819" type="line"/>
      <point x="201" y="2" type="line" smooth="yes"/>
      <point x="201" y="-163"/>
      <point x="171" y="-263"/>
      <point x="112" y="-297" type="curve"/>
      <point x="-67" y="-173" type="line"/>
      <point x="-120" y="-192"/>
      <point x="-146" y="-227"/>
      <point x="-146" y="-280" type="curve" smooth="yes"/>
      <point x="-146" y="-349"/>
      <point x="-99" y="-383"/>
      <point x="-5" y="-383" type="curve" smooth="yes"/>
      <point x="124" y="-383"/>
      <point x="226" y="-325"/>
      <point x="301" y="-210" type="curve" smooth="yes"/>
      <point x="348" y="-137"/>
      <point x="372" y="-14"/>
    </contour>
  </outline>
</glyph>
<glyph name="k" format="1">
  <advance width="984"/>
  <unicode hex="006B"/>
  <outline>
    <contour>
      <point x="966" y="40" type="line"/>
      <point x="671" y="40" type="line"/>
      <point x="671" y="112" type="line"/>
      <point x="441" y="458" type="line"/>
      <point x="337" y="458" type="line"/>
      <point x="337" y="158" type="line" smooth="yes"/>
      <point x="337" y="133"/>
      <point x="350" y="119"/>
      <point x="376" y="117" type="curve" smooth="yes"/>
      <point x="455" y="112" type="line"/>
      <point x="455" y="40" type="line"/>
      <point x="37" y="40" type="line"/>
      <point x="37" y="112" type="line"/>
      <point x="128" y="117" type="line" smooth="yes"/>
      <point x="154" y="119"/>
      <point x="166" y="133"/>
      <point x="166" y="158" type="curve" smooth="yes"/>
      <point x="166" y="1266" type="line"/>
      <point x="26" y="1266" type="line"/>
      <point x="26" y="1327" type="line"/>
      <point x="262" y="1398" type="line"/>
      <point x="337" y="1398" type="line"/>
      <point x="337" y="512" type="line"/>
      <point x="374" y="512" type="line"/>
      <point x="645" y="818" type="line" smooth="yes"/>
      <point x="650" y="823"/>
      <point x="651" y="829"/>
      <point x="648" y="836" type="curve" smooth="yes"/>
      <point x="645" y="845"/>
      <point x="639" y="848"/>
      <point x="631" y="849" type="curve" smooth="yes"/>
      <point x="555" y="856" type="line"/>
      <point x="555" y="928" type="line"/>
      <point x="913" y="928" type="line"/>
      <point x="913" y="856" type="line"/>
      <point x="795" y="844" type="line"/>
      <point x="552" y="584" type="line"/>
      <point x="868" y="123" type="line"/>
      <point x="966" y="112" type="line"/>
    </contour>
  </outline>
</glyph>
<glyph name="l" format="2">
  <advance width="547"/>
  <unicode hex="006C"/>
  <outline>
    <contour>
      <point x="498" y="40" type="line"/>
      <point x="498" y="112" type="line"/>
      <point x="398" y="117" type="line" smooth="yes"/>
      <point x="382" y="118"/>
      <point x="359" y="138"/>
      <point x="359" y="156" type="curve" smooth="yes"/>
      <point x="359" y="1398" type="line"/>
      <point x="283" y="1398" type="line"/>
      <point x="48" y="1327" type="line"/>
      <point x="48" y="1266" type="line"/>
      <point x="188" y="1266" type="line"/>
      <point x="188" y="156" type="line" smooth="yes"/>
      <point x="188" y="138"/>
      <point x="163" y="118"/>
      <point x="148" y="117" type="curve" smooth="yes"/>
      <point x="49" y="112" type="line"/>
      <point x="49" y="40" type="line"/>
    </contour>
  </outline>
</glyph>
<glyph name="m" format="1">
  <advance width="1566"/>
  <unicode hex="006D"/>
  <outline>
    <contour>
      <point x="1526" y="40" type="line"/>
      <point x="1114" y="40" type="line"/>
      <point x="1114" y="112" type="line"/>
      <point x="1190" y="117" type="line" smooth="yes"/>
      <point x="1216" y="119"/>
      <point x="1228" y="133"/>
      <point x="1228" y="158" type="curve" smooth="yes"/>
      <point x="1228" y="629" type="line" smooth="yes"/>
      <point x="1228" y="754"/>
      <point x="1174" y="817"/>
      <point x="1065" y="817" type="curve" smooth="yes"/>
      <point x="1003" y="817"/>
      <point x="937" y="799"/>
      <point x="868" y="764" type="curve"/>
      <point x="868" y="158" type="line" smooth="yes"/>
      <point x="868" y="133"/>
      <point x="881" y="119"/>
      <point x="907" y="117" type="curve" smooth="yes"/>
      <point x="985" y="112" type="line"/>
      <point x="985" y="40" type="line"/>
      <point x="581" y="40" type="line"/>
      <point x="581" y="112" type="line"/>
      <point x="659" y="117" type="line" smooth="yes"/>
      <point x="685" y="119"/>
      <point x="697" y="133"/>
      <point x="697" y="158" type="curve" smooth="yes"/>
      <point x="697" y="638" type="line" smooth="yes"/>
      <point x="697" y="757"/>
      <point x="643" y="817"/>
      <point x="535" y="817" type="curve" smooth="yes"/>
      <point x="467" y="817"/>
      <point x="401" y="799"/>
      <point x="337" y="763" type="curve"/>
      <point x="337" y="158" type="line" smooth="yes"/>
      <point x="337" y="133"/>
      <point x="350" y="119"/>
      <point x="376" y="117" type="curve" smooth="yes"/>
      <point x="454" y="112" type="line"/>
      <point x="454" y="40" type="line"/>
      <point x="37" y="40" type="line"/>
      <point x="37" y="112" type="line"/>
      <point x="128" y="117" type="line" smooth="yes"/>
      <point x="154" y="119"/>
      <point x="166" y="133"/>
      <point x="166" y="158" type="curve" smooth="yes"/>
      <point x="166" y="798" type="line"/>
      <point x="39" y="798" type="line"/>
      <point x="39" y="859" type="line"/>
      <point x="262" y="928" type="line"/>
      <point x="337" y="928" type="line"/>
      <point x="337" y="836" type="line"/>
      <point x="463" y="912"/>
      <point x="563" y="950"/>
      <point x="638" y="950" type="curve" smooth="yes"/>
      <point x="730" y="950"/>
      <point x="797" y="908"/>
      <point x="841" y="824" type="curve"/>
      <point x="975" y="908"/>
      <point x="1082" y="950"/>
      <point x="1161" y="950" type="curve" smooth="yes"/>
      <point x="1320" y="950"/>
      <point x="1399" y="856"/>
      <point x="1399" y="669" type="curve" smooth="yes"/>
      <point x="1399" y="158" type="line" smooth="yes"/>
      <point x="1399" y="133"/>
      <point x="1412" y="119"/>
      <point x="1438" y="117" type="curve" smooth="yes"/>
      <point x="1526" y="112" type="line"/>
    </contour>
  </outline>
</glyph>
<glyph name="n" format="2">
  <advance width="1045"/>
  <unicode hex="006E"/>
  <outline>
    <contour>
      <point x="1008" y="40" type="line"/>
      <point x="1008" y="112" type="line"/>
      <point x="927" y="117" type="line" smooth="yes"/>
      <point x="901" y="119"/>
      <point x="888" y="133"/>
      <point x="888" y="158" type="curve" smooth="yes"/>
      <point x="888" y="667" type="line" smooth="yes"/>
      <point x="888" y="855"/>
      <point x="806" y="950"/>
      <point x="642" y="950" type="curve" smooth="yes"/>
      <point x="571" y="950"/>
      <point x="470" y="912"/>
      <point x="337" y="836" type="curve"/>
      <point x="337" y="928" type="line"/>
      <point x="262" y="928" type="line"/>
      <point x="37" y="859" type="line"/>
      <point x="37" y="798" type="line"/>
      <point x="166" y="798" type="line"/>
      <point x="166" y="158" type="line" smooth="yes"/>
      <point x="166" y="133"/>
      <point x="154" y="118"/>
      <point x="128" y="117" type="curve" smooth="yes"/>
      <point x="37" y="112" type="line"/>
      <point x="37" y="40" type="line"/>
      <point x="454" y="40" type="line"/>
      <point x="454" y="112" type="line"/>
      <point x="376" y="117" type="line" smooth="yes"/>
      <point x="350" y="119"/>
      <point x="337" y="133"/>
      <point x="337" y="158" type="curve" smooth="yes"/>
      <point x="337" y="763" type="line"/>
      <point x="409" y="799"/>
      <point x="477" y="817"/>
      <point x="540" y="817" type="curve" smooth="yes"/>
      <point x="658" y="817"/>
      <point x="717" y="756"/>
      <point x="717" y="637" type="curve" smooth="yes"/>
      <point x="717" y="158" type="line" smooth="yes"/>
      <point x="717" y="133"/>
      <point x="705" y="119"/>
      <point x="679" y="117" type="curve" smooth="yes"/>
      <point x="601" y="112" type="line"/>
      <point x="601" y="40" type="line"/>
    </contour>
  </outline>
</glyph>
<glyph name="o" format="2">
  <advance width="1003"/>
  <unicode hex="006F"/>
  <outline>
    <contour>
      <point x="940" y="483" type="curve" smooth="yes"/>
      <point x="940" y="753"/>
      <point x="775" y="950"/>
      <point x="506" y="950" type="curve" smooth="yes"/>
      <point x="235" y="950"/>
      <point x="63" y="751"/>
      <point x="63" y="483" type="curve" smooth="yes"/>
      <point x="63" y="214"/>
      <point x="230" y="18"/>
      <point x="499" y="18" type="curve" smooth="yes"/>
      <point x="767" y="18"/>
      <point x="940" y="215"/>
    </contour>
    <contour>
      <point x="749" y="485" type="curve" smooth="yes"/>
      <point x="749" y="304"/>
      <point x="682" y="101"/>
      <point x="501" y="101" type="curve" smooth="yes"/>
      <point x="324" y="101"/>
      <point x="256" y="305"/>
      <point x="256" y="485" type="curve" smooth="yes"/>
      <point x="256" y="667"/>
      <point x="322" y="867"/>
      <point x="504" y="867" type="curve" smooth="yes"/>
      <point x="681" y="867"/>
      <point x="749" y="665"/>
    </contour>
  </outline>
</glyph>
<glyph name="p" format="2">
  <advance width="1030"/>
  <unicode hex="0070"/>
  <outline>
    <contour>
      <point x="967" y="497" type="curve" smooth="yes"/>
      <point x="967" y="746"/>
      <point x="830" y="950"/>
      <point x="616" y="950" type="curve" smooth="yes"/>
      <point x="526" y="950"/>
      <point x="434" y="912"/>
      <point x="337" y="836" type="curve"/>
      <point x="337" y="928" type="line"/>
      <point x="265" y="928" type="line"/>
      <point x="40" y="859" type="line"/>
      <point x="40" y="798" type="line"/>
      <point x="166" y="798" type="line"/>
      <point x="166" y="-241" type="line" smooth="yes"/>
      <point x="166" y="-263"/>
      <point x="154" y="-277"/>
      <point x="128" y="-280" type="curve" smooth="yes"/>
      <point x="40" y="-289" type="line"/>
      <point x="40" y="-361" type="line"/>
      <point x="487" y="-361" type="line"/>
      <point x="487" y="-289" type="line"/>
      <point x="378" y="-280" type="line" smooth="yes"/>
      <point x="351" y="-278"/>
      <point x="337" y="-264"/>
      <point x="337" y="-241" type="curve" smooth="yes"/>
      <point x="337" y="35" type="line"/>
      <point x="406" y="24"/>
      <point x="461" y="18"/>
      <point x="501" y="18" type="curve" smooth="yes"/>
      <point x="794" y="18"/>
      <point x="967" y="208"/>
    </contour>
    <contour>
      <point x="783" y="472" type="curve" smooth="yes"/>
      <point x="783" y="273"/>
      <point x="686" y="103"/>
      <point x="487" y="103" type="curve" smooth="yes"/>
      <point x="440" y="103"/>
      <point x="391" y="113"/>
      <point x="337" y="133" type="curve"/>
      <point x="337" y="766" type="line"/>
      <point x="406" y="803"/>
      <point x="469" y="822"/>
      <point x="526" y="822" type="curve" smooth="yes"/>
      <point x="705" y="822"/>
      <point x="783" y="651"/>
    </contour>
  </outline>
</glyph>
<glyph name="q" format="2">
  <advance width="1012"/>
  <unicode hex="0071"/>
  <outline>
    <contour>
      <point x="985" y="-361" type="line"/>
      <point x="985" y="-292" type="line"/>
      <point x="895" y="-282" type="line" smooth="yes"/>
      <point x="869" y="-279"/>
      <point x="857" y="-266"/>
      <point x="857" y="-244" type="curve" smooth="yes"/>
      <point x="857" y="920" type="line"/>
      <point x="773" y="940"/>
      <point x="687" y="950"/>
      <point x="596" y="950" type="curve" smooth="yes"/>
      <point x="277" y="950"/>
      <point x="63" y="779"/>
      <point x="63" y="462" type="curve" smooth="yes"/>
      <point x="63" y="221"/>
      <point x="195" y="18"/>
      <point x="427" y="18" type="curve" smooth="yes"/>
      <point x="501" y="18"/>
      <point x="588" y="43"/>
      <point x="686" y="90" type="curve"/>
      <point x="686" y="-244" type="line" smooth="yes"/>
      <point x="686" y="-267"/>
      <point x="673" y="-280"/>
      <point x="647" y="-282" type="curve" smooth="yes"/>
      <point x="538" y="-292" type="line"/>
      <point x="538" y="-361" type="line"/>
    </contour>
    <contour>
      <point x="686" y="152" type="line"/>
      <point x="633" y="135"/>
      <point x="580" y="127"/>
      <point x="527" y="127" type="curve" smooth="yes"/>
      <point x="332" y="127"/>
      <point x="249" y="297"/>
      <point x="249" y="492" type="curve" smooth="yes"/>
      <point x="249" y="706"/>
      <point x="347" y="865"/>
      <point x="559" y="865" type="curve" smooth="yes"/>
      <point x="587" y="865"/>
      <point x="629" y="859"/>
      <point x="686" y="846" type="curve"/>
    </contour>
  </outline>
</glyph>
<glyph name="r" format="2">
  <advance width="721"/>
  <unicode hex="0072"/>
  <outline>
    <contour>
      <point x="703" y="740" type="line"/>
      <point x="703" y="923" type="line"/>
      <point x="670" y="941"/>
      <point x="632" y="950"/>
      <point x="590" y="950" type="curve" smooth="yes"/>
      <point x="505" y="950"/>
      <point x="400" y="830"/>
      <point x="346" y="764" type="curve"/>
      <point x="346" y="928" type="line"/>
      <point x="271" y="928" type="line"/>
      <point x="42" y="859" type="line"/>
      <point x="42" y="798" type="line"/>
      <point x="175" y="798" type="line"/>
      <point x="175" y="158" type="line" smooth="yes"/>
      <point x="175" y="133"/>
      <point x="163" y="119"/>
      <point x="137" y="117" type="curve" smooth="yes"/>
      <point x="46" y="110" type="line"/>
      <point x="46" y="40" type="line"/>
      <point x="507" y="40" type="line"/>
      <point x="507" y="112" type="line"/>
      <point x="385" y="117" type="line" smooth="yes"/>
      <point x="359" y="118"/>
      <point x="346" y="132"/>
      <point x="346" y="158" type="curve" smooth="yes"/>
      <point x="346" y="676" type="line"/>
      <point x="413" y="753"/>
      <point x="474" y="791"/>
      <point x="531" y="791" type="curve" smooth="yes"/>
      <point x="568" y="791"/>
      <point x="601" y="773"/>
      <point x="631" y="740" type="curve"/>
    </contour>
  </outline>
</glyph>
<glyph name="t" format="2">
  <advance width="626"/>
  <unicode hex="0074"/>
  <outline>
    <contour>
      <point x="615" y="79" type="curve"/>
      <point x="615" y="152" type="line"/>
      <point x="573" y="132"/>
      <point x="530" y="122"/>
      <point x="486" y="122" type="curve" smooth="yes"/>
      <point x="388" y="122"/>
      <point x="338" y="188"/>
      <point x="338" y="322" type="curve" smooth="yes"/>
      <point x="338" y="836" type="line"/>
      <point x="598" y="836" type="line"/>
      <point x="598" y="928" type="line"/>
      <point x="338" y="928" type="line"/>
      <point x="338" y="1151" type="line"/>
      <point x="258" y="1151" type="line"/>
      <point x="175" y="955" type="line"/>
      <point x="49" y="897" type="line"/>
      <point x="49" y="836" type="line"/>
      <point x="167" y="836" type="line"/>
      <point x="167" y="224" type="line" smooth="yes"/>
      <point x="167" y="84"/>
      <point x="224" y="18"/>
      <point x="364" y="18" type="curve" smooth="yes"/>
      <point x="446" y="18"/>
      <point x="530" y="38"/>
    </contour>
  </outline>
</glyph>
<glyph name="u" format="2">
  <advance width="1048"/>
  <unicode hex="0075"/>
  <outline>
    <contour>
      <point x="1010" y="40" type="line"/>
      <point x="717" y="40" type="line"/>
      <point x="717" y="145" type="line"/>
      <point x="607" y="61"/>
      <point x="508" y="18"/>
      <point x="422" y="18" type="curve" smooth="yes"/>
      <point x="252" y="18"/>
      <point x="167" y="117"/>
      <point x="167" y="316" type="curve" smooth="yes"/>
      <point x="167" y="816" type="line"/>
      <point x="39" y="816" type="line"/>
      <point x="39" y="879" type="line"/>
      <point x="265" y="950" type="line"/>
      <point x="338" y="950" type="line"/>
      <point x="338" y="351" type="line" smooth="yes"/>
      <point x="338" y="213"/>
      <point x="398" y="143"/>
      <point x="517" y="143" type="curve" smooth="yes"/>
      <point x="578" y="143"/>
      <point x="644" y="161"/>
      <point x="717" y="198" type="curve"/>
      <point x="717" y="816" type="line"/>
      <point x="588" y="816" type="line"/>
      <point x="588" y="879" type="line"/>
      <point x="813" y="950" type="line"/>
      <point x="888" y="950" type="line"/>
      <point x="888" y="158" type="line" smooth="yes"/>
      <point x="888" y="133"/>
      <point x="902" y="119"/>
      <point x="929" y="117" type="curve" smooth="yes"/>
      <point x="1010" y="112" type="line"/>
    </contour>
  </outline>
</glyph>
<glyph name="v" format="2">
  <advance width="975"/>
  <unicode hex="0076"/>
  <outline>
    <contour>
      <point x="957" y="856" type="line"/>
      <point x="957" y="928" type="line"/>
      <point x="634" y="928" type="line"/>
      <point x="634" y="856" type="line"/>
      <point x="717" y="851" type="line" smooth="yes"/>
      <point x="735" y="850"/>
      <point x="745" y="838"/>
      <point x="745" y="823" type="curve" smooth="yes"/>
      <point x="745" y="819"/>
      <point x="744" y="814"/>
      <point x="742" y="810" type="curve" smooth="yes"/>
      <point x="516" y="233" type="line"/>
      <point x="310" y="810" type="line" smooth="yes"/>
      <point x="309" y="814"/>
      <point x="308" y="818"/>
      <point x="308" y="821" type="curve" smooth="yes"/>
      <point x="308" y="838"/>
      <point x="322" y="850"/>
      <point x="337" y="851" type="curve" smooth="yes"/>
      <point x="426" y="856" type="line"/>
      <point x="426" y="928" type="line"/>
      <point x="18" y="928" type="line"/>
      <point x="18" y="856" type="line"/>
      <point x="120" y="845" type="line"/>
      <point x="417" y="40" type="line"/>
      <point x="536" y="40" type="line"/>
      <point x="859" y="845" type="line"/>
    </contour>
  </outline>
</glyph>
<glyph name="w" format="2">
  <advance width="1443"/>
  <unicode hex="0077"/>
  <outline>
    <contour>
      <point x="1425" y="856" type="line"/>
      <point x="1425" y="928" type="line"/>
      <point x="1102" y="928" type="line"/>
      <point x="1102" y="856" type="line"/>
      <point x="1187" y="851" type="line" smooth="yes"/>
      <point x="1212" y="849"/>
      <point x="1220" y="836"/>
      <point x="1213" y="810" type="curve" smooth="yes"/>
      <point x="1043" y="237" type="line"/>
      <point x="830" y="928" type="line"/>
      <point x="698" y="928" type="line"/>
      <point x="461" y="237" type="line"/>
      <point x="308" y="810" type="line" smooth="yes"/>
      <point x="301" y="836"/>
      <point x="310" y="849"/>
      <point x="336" y="851" type="curve" smooth="yes"/>
      <point x="422" y="856" type="line"/>
      <point x="422" y="928" type="line"/>
      <point x="18" y="928" type="line"/>
      <point x="18" y="856" type="line"/>
      <point x="120" y="845" type="line"/>
      <point x="355" y="40" type="line"/>
      <point x="487" y="40" type="line"/>
      <point x="730" y="729" type="line"/>
      <point x="948" y="40" type="line"/>
      <point x="1078" y="40" type="line"/>
      <point x="1331" y="845" type="line"/>
    </contour>
  </outline>
</glyph>
<glyph name="x" format="2">
  <advance width="940"/>
  <unicode hex="0078"/>
  <outline>
    <contour>
      <point x="922" y="40" type="line"/>
      <point x="525" y="40" type="line"/>
      <point x="525" y="112" type="line"/>
      <point x="589" y="119" type="line" smooth="yes"/>
      <point x="597" y="120"/>
      <point x="602" y="125"/>
      <point x="606" y="132" type="curve" smooth="yes"/>
      <point x="609" y="139"/>
      <point x="608" y="146"/>
      <point x="604" y="152" type="curve" smooth="yes"/>
      <point x="445" y="388" type="line"/>
      <point x="265" y="152" type="line" smooth="yes"/>
      <point x="260" y="146"/>
      <point x="258" y="140"/>
      <point x="261" y="132" type="curve" smooth="yes"/>
      <point x="264" y="124"/>
      <point x="269" y="120"/>
      <point x="277" y="119" type="curve" smooth="yes"/>
      <point x="368" y="112" type="line"/>
      <point x="368" y="40" type="line"/>
      <point x="18" y="40" type="line"/>
      <point x="18" y="112" type="line"/>
      <point x="124" y="126" type="line"/>
      <point x="388" y="469" type="line"/>
      <point x="136" y="840" type="line"/>
      <point x="27" y="856" type="line"/>
      <point x="27" y="928" type="line"/>
      <point x="434" y="928" type="line"/>
      <point x="434" y="856" type="line"/>
      <point x="368" y="847" type="line" smooth="yes"/>
      <point x="360" y="846"/>
      <point x="354" y="842"/>
      <point x="350" y="835" type="curve" smooth="yes"/>
      <point x="346" y="827"/>
      <point x="346" y="820"/>
      <point x="351" y="814" type="curve" smooth="yes"/>
      <point x="495" y="608" type="line"/>
      <point x="657" y="814" type="line" smooth="yes"/>
      <point x="661" y="820"/>
      <point x="662" y="827"/>
      <point x="660" y="834" type="curve" smooth="yes"/>
      <point x="656" y="842"/>
      <point x="651" y="846"/>
      <point x="643" y="847" type="curve" smooth="yes"/>
      <point x="563" y="856" type="line"/>
      <point x="563" y="928" type="line"/>
      <point x="896" y="928" type="line"/>
      <point x="896" y="856" type="line"/>
      <point x="796" y="840" type="line"/>
      <point x="550" y="525" type="line"/>
      <point x="822" y="126" type="line"/>
      <point x="922" y="112" type="line"/>
    </contour>
  </outline>
</glyph>
<glyph name="y" format="2">
  <advance width="976"/>
  <unicode hex="0079"/>
  <outline>
    <contour>
      <point x="958" y="856" type="line"/>
      <point x="862" y="845" type="line"/>
      <point x="508" y="-17" type="line" smooth="yes"/>
      <point x="449" y="-162"/>
      <point x="393" y="-260"/>
      <point x="341" y="-312" type="curve" smooth="yes"/>
      <point x="293" y="-360"/>
      <point x="240" y="-383"/>
      <point x="181" y="-383" type="curve" smooth="yes"/>
      <point x="139" y="-383"/>
      <point x="106" y="-372"/>
      <point x="81" y="-351" type="curve" smooth="yes"/>
      <point x="58" y="-331"/>
      <point x="46" y="-307"/>
      <point x="46" y="-277" type="curve" smooth="yes"/>
      <point x="46" y="-236"/>
      <point x="66" y="-199"/>
      <point x="105" y="-166" type="curve"/>
      <point x="278" y="-245" type="line"/>
      <point x="336" y="-188"/>
      <point x="387" y="-92"/>
      <point x="433" y="42" type="curve"/>
      <point x="120" y="845" type="line"/>
      <point x="18" y="856" type="line"/>
      <point x="18" y="928" type="line"/>
      <point x="426" y="928" type="line"/>
      <point x="426" y="856" type="line"/>
      <point x="337" y="851" type="line" smooth="yes"/>
      <point x="318" y="850"/>
      <point x="308" y="840"/>
      <point x="308" y="821" type="curve" smooth="yes"/>
      <point x="308" y="818"/>
      <point x="308" y="814"/>
      <point x="310" y="810" type="curve" smooth="yes"/>
      <point x="524" y="267" type="line"/>
      <point x="742" y="810" type="line" smooth="yes"/>
      <point x="746" y="819"/>
      <point x="745" y="828"/>
      <point x="740" y="836" type="curve" smooth="yes"/>
      <point x="735" y="845"/>
      <point x="727" y="850"/>
      <point x="717" y="851" type="curve" smooth="yes"/>
      <point x="630" y="856" type="line"/>
      <point x="630" y="928" type="line"/>
      <point x="958" y="928" type="line"/>
    </contour>
  </outline>
</glyph>
<glyph name="z" format="1">
  <advance width="852"/>
  <unicode hex="007A"/>
  <outline>
    <contour>
      <point x="789" y="40" type="line"/>
      <point x="63" y="40" type="line"/>
      <point x="63" y="138" type="line"/>
      <point x="552" y="842" type="line"/>
      <point x="231" y="842" type="line" smooth="yes"/>
      <point x="211" y="842"/>
      <point x="198" y="829"/>
      <point x="194" y="803" type="curve" smooth="yes"/>
      <point x="175" y="666" type="line"/>
      <point x="82" y="666" type="line"/>
      <point x="82" y="928" type="line"/>
      <point x="763" y="928" type="line"/>
      <point x="763" y="853" type="line"/>
      <point x="258" y="128" type="line"/>
      <point x="631" y="128" type="line" smooth="yes"/>
      <point x="639" y="128"/>
      <point x="647" y="133"/>
      <point x="656" y="143" type="curve" smooth="yes"/>
      <point x="665" y="152"/>
      <point x="670" y="162"/>
      <point x="671" y="172" type="curve" smooth="yes"/>
      <point x="689" y="318" type="line"/>
      <point x="789" y="318" type="line"/>
    </contour>
  </outline>
</glyph>
<glyph name="braceleft" format="1">
  <advance width="999"/>
  <unicode hex="007B"/>
  <outline>
    <contour>
      <point x="858" y="-252" type="line"/>
      <point x="678" y="-252"/>
      <point x="559" y="-222"/>
      <point x="502" y="-162" type="curve" smooth="yes"/>
      <point x="462" y="-120"/>
      <point x="437" y="-63"/>
      <point x="426" y="6" type="curve" smooth="yes"/>
      <point x="421" y="39"/>
      <point x="418" y="104"/>
      <point x="418" y="203" type="curve" smooth="yes"/>
      <point x="418" y="360"/>
      <point x="399" y="456"/>
      <point x="360" y="493" type="curve" smooth="yes"/>
      <point x="322" y="530"/>
      <point x="243" y="549"/>
      <point x="123" y="549" type="curve"/>
      <point x="123" y="641" type="line"/>
      <point x="243" y="641"/>
      <point x="322" y="659"/>
      <point x="360" y="696" type="curve" smooth="yes"/>
      <point x="399" y="733"/>
      <point x="418" y="830"/>
      <point x="418" y="987" type="curve" smooth="yes"/>
      <point x="418" y="1086"/>
      <point x="421" y="1151"/>
      <point x="426" y="1184" type="curve" smooth="yes"/>
      <point x="437" y="1253"/>
      <point x="462" y="1310"/>
      <point x="502" y="1352" type="curve" smooth="yes"/>
      <point x="559" y="1412"/>
      <point x="678" y="1442"/>
      <point x="858" y="1442" type="curve"/>
      <point x="858" y="1358" type="line"/>
      <point x="757" y="1358"/>
      <point x="688" y="1337"/>
      <point x="649" y="1296" type="curve" smooth="yes"/>
      <point x="624" y="1269"/>
      <point x="609" y="1225"/>
      <point x="603" y="1164" type="curve" smooth="yes"/>
      <point x="601" y="1143"/>
      <point x="600" y="1086"/>
      <point x="600" y="993" type="curve" smooth="yes"/>
      <point x="600" y="857"/>
      <point x="580" y="764"/>
      <point x="541" y="713" type="curve" smooth="yes"/>
      <point x="498" y="657"/>
      <point x="425" y="618"/>
      <point x="324" y="596" type="curve"/>
      <point x="424" y="574"/>
      <point x="496" y="534"/>
      <point x="541" y="477" type="curve" smooth="yes"/>
      <point x="580" y="426"/>
      <point x="600" y="333"/>
      <point x="600" y="197" type="curve" smooth="yes"/>
      <point x="600" y="104"/>
      <point x="601" y="47"/>
      <point x="603" y="26" type="curve" smooth="yes"/>
      <point x="609" y="-35"/>
      <point x="624" y="-79"/>
      <point x="649" y="-106" type="curve" smooth="yes"/>
      <point x="688" y="-147"/>
      <point x="757" y="-168"/>
      <point x="858" y="-168" type="curve"/>
    </contour>
  </outline>
</glyph>
<glyph name="bar" format="2">
  <advance width="922"/>
  <unicode hex="007C"/>
  <outline>
    <contour>
      <point x="525" y="-395" type="line"/>
      <point x="525" y="1448" type="line"/>
      <point x="397" y="1448" type="line"/>
      <point x="397" y="-395" type="line"/>
    </contour>
  </outline>
</glyph>
<glyph name="braceright" format="1">
  <advance width="999"/>
  <unicode hex="007D"/>
  <outline>
    <contour>
      <point x="876" y="549" type="line"/>
      <point x="756" y="549"/>
      <point x="677" y="530"/>
      <point x="638" y="493" type="curve" smooth="yes"/>
      <point x="600" y="456"/>
      <point x="581" y="360"/>
      <point x="581" y="203" type="curve" smooth="yes"/>
      <point x="581" y="104"/>
      <point x="578" y="39"/>
      <point x="573" y="6" type="curve" smooth="yes"/>
      <point x="562" y="-63"/>
      <point x="537" y="-120"/>
      <point x="497" y="-162" type="curve" smooth="yes"/>
      <point x="440" y="-222"/>
      <point x="321" y="-252"/>
      <point x="141" y="-252" type="curve"/>
      <point x="141" y="-168" type="line"/>
      <point x="242" y="-168"/>
      <point x="311" y="-147"/>
      <point x="350" y="-106" type="curve" smooth="yes"/>
      <point x="375" y="-79"/>
      <point x="390" y="-35"/>
      <point x="396" y="26" type="curve" smooth="yes"/>
      <point x="398" y="47"/>
      <point x="399" y="104"/>
      <point x="399" y="197" type="curve" smooth="yes"/>
      <point x="399" y="333"/>
      <point x="419" y="426"/>
      <point x="458" y="477" type="curve" smooth="yes"/>
      <point x="503" y="534"/>
      <point x="575" y="574"/>
      <point x="675" y="596" type="curve"/>
      <point x="574" y="618"/>
      <point x="501" y="657"/>
      <point x="458" y="713" type="curve" smooth="yes"/>
      <point x="419" y="764"/>
      <point x="399" y="857"/>
      <point x="399" y="993" type="curve" smooth="yes"/>
      <point x="399" y="1086"/>
      <point x="398" y="1143"/>
      <point x="396" y="1164" type="curve" smooth="yes"/>
      <point x="390" y="1225"/>
      <point x="375" y="1269"/>
      <point x="350" y="1296" type="curve" smooth="yes"/>
      <point x="311" y="1337"/>
      <point x="242" y="1358"/>
      <point x="141" y="1358" type="curve"/>
      <point x="141" y="1442" type="line"/>
      <point x="321" y="1442"/>
      <point x="440" y="1412"/>
      <point x="497" y="1352" type="curve" smooth="yes"/>
      <point x="537" y="1310"/>
      <point x="562" y="1253"/>
      <point x="573" y="1184" type="curve" smooth="yes"/>
      <point x="578" y="1151"/>
      <point x="581" y="1086"/>
      <point x="581" y="987" type="curve" smooth="yes"/>
      <point x="581" y="830"/>
      <point x="600" y="733"/>
      <point x="638" y="696" type="curve" smooth="yes"/>
      <point x="677" y="659"/>
      <point x="756" y="641"/>
      <point x="876" y="641" type="curve"/>
    </contour>
  </outline>
</glyph>
<glyph name="asciitilde" format="2">
  <advance width="1535"/>
  <unicode hex="007E"/>
  <outline>
    <contour>
      <point x="1376" y="604" type="curve"/>
      <point x="1376" y="724" type="line"/>
      <point x="1246" y="629"/>
      <point x="1130" y="582"/>
      <point x="1031" y="582" type="curve" smooth="yes"/>
      <point x="887" y="582"/>
      <point x="668" y="705"/>
      <point x="509" y="705" type="curve" smooth="yes"/>
      <point x="397" y="705"/>
      <point x="281" y="662"/>
      <point x="159" y="575" type="curve"/>
      <point x="159" y="455" type="line"/>
      <point x="291" y="551"/>
      <point x="403" y="599"/>
      <point x="497" y="599" type="curve" smooth="yes"/>
      <point x="667" y="599"/>
      <point x="872" y="475"/>
      <point x="1030" y="475" type="curve" smooth="yes"/>
      <point x="1135" y="475"/>
      <point x="1251" y="518"/>
    </contour>
  </outline>
</glyph>
<glyph name="exclamdown" format="2">
  <advance width="623"/>
  <unicode hex="00A1"/>
  <outline>
    <contour>
      <point x="424" y="836" type="curve" smooth="yes"/>
      <point x="424" y="898"/>
      <point x="373" y="950"/>
      <point x="311" y="950" type="curve" smooth="yes"/>
      <point x="250" y="950"/>
      <point x="197" y="901"/>
      <point x="197" y="836" type="curve" smooth="yes"/>
      <point x="197" y="770"/>
      <point x="248" y="723"/>
      <point x="311" y="723" type="curve" smooth="yes"/>
      <point x="375" y="723"/>
      <point x="424" y="772"/>
    </contour>
    <contour>
      <point x="422" y="-242" type="curve"/>
      <point x="355" y="594" type="line"/>
      <point x="267" y="594" type="line"/>
      <point x="199" y="-242" type="line" smooth="yes"/>
      <point x="198" y="-250"/>
      <point x="198" y="-257"/>
      <point x="198" y="-264" type="curve" smooth="yes"/>
      <point x="198" y="-343"/>
      <point x="236" y="-383"/>
      <point x="311" y="-383" type="curve" smooth="yes"/>
      <point x="386" y="-383"/>
      <point x="423" y="-343"/>
      <point x="423" y="-264" type="curve" smooth="yes"/>
      <point x="423" y="-257"/>
      <point x="423" y="-250"/>
    </contour>
  </outline>
</glyph>
<glyph name="cent" format="2">
  <advance width="1038"/>
  <unicode hex="00A2"/>
  <outline>
    <contour>
      <point x="897" y="82" type="curve"/>
      <point x="897" y="360" type="line"/>
      <point x="807" y="360" type="line"/>
      <point x="783" y="184" type="line" smooth="yes"/>
      <point x="781" y="168"/>
      <point x="770" y="158"/>
      <point x="761" y="154" type="curve" smooth="yes"/>
      <point x="724" y="137"/>
      <point x="679" y="128"/>
      <point x="632" y="128" type="curve"/>
      <point x="632" y="882" type="line"/>
      <point x="688" y="882"/>
      <point x="731" y="871"/>
      <point x="761" y="854" type="curve" smooth="yes"/>
      <point x="771" y="848"/>
      <point x="780" y="837"/>
      <point x="783" y="816" type="curve" smooth="yes"/>
      <point x="809" y="656" type="line"/>
      <point x="897" y="656" type="line"/>
      <point x="897" y="926" type="line"/>
      <point x="804" y="957"/>
      <point x="715" y="972"/>
      <point x="632" y="972" type="curve"/>
      <point x="632" y="1153" type="line"/>
      <point x="544" y="1153" type="line"/>
      <point x="544" y="965" type="line"/>
      <point x="300" y="931"/>
      <point x="140" y="750"/>
      <point x="140" y="504" type="curve" smooth="yes"/>
      <point x="140" y="251"/>
      <point x="292" y="70"/>
      <point x="544" y="44" type="curve"/>
      <point x="544" y="-143" type="line"/>
      <point x="632" y="-143" type="line"/>
      <point x="632" y="40" type="line"/>
      <point x="706" y="40"/>
      <point x="770" y="46"/>
      <point x="827" y="59" type="curve" smooth="yes"/>
      <point x="868" y="68"/>
      <point x="891" y="76"/>
    </contour>
    <contour>
      <point x="544" y="134" type="line"/>
      <point x="385" y="170"/>
      <point x="317" y="340"/>
      <point x="317" y="510" type="curve" smooth="yes"/>
      <point x="317" y="673"/>
      <point x="390" y="840"/>
      <point x="544" y="877" type="curve"/>
    </contour>
  </outline>
</glyph>
<glyph name="sterling" format="2">
  <advance width="1038"/>
  <unicode hex="00A3"/>
  <outline>
    <contour>
      <point x="955" y="40" type="line"/>
      <point x="955" y="191" type="line"/>
      <point x="409" y="191" type="line" smooth="yes"/>
      <point x="386" y="191"/>
      <point x="335" y="188"/>
      <point x="256" y="180" type="curve"/>
      <point x="430" y="294"/>
      <point x="452" y="438"/>
      <point x="452" y="646" type="curve"/>
      <point x="794" y="646" type="line"/>
      <point x="794" y="737" type="line"/>
      <point x="452" y="737" type="line"/>
      <point x="449" y="823"/>
      <point x="447" y="890"/>
      <point x="447" y="941" type="curve" smooth="yes"/>
      <point x="447" y="1184"/>
      <point x="530" y="1305"/>
      <point x="695" y="1305" type="curve" smooth="yes"/>
      <point x="717" y="1305"/>
      <point x="745" y="1301"/>
      <point x="778" y="1291" type="curve"/>
      <point x="778" y="1106" type="line"/>
      <point x="805" y="1100"/>
      <point x="828" y="1097"/>
      <point x="844" y="1097" type="curve" smooth="yes"/>
      <point x="905" y="1097"/>
      <point x="958" y="1143"/>
      <point x="958" y="1203" type="curve" smooth="yes"/>
      <point x="958" y="1336"/>
      <point x="799" y="1398"/>
      <point x="667" y="1398" type="curve" smooth="yes"/>
      <point x="400" y="1398"/>
      <point x="274" y="1197"/>
      <point x="274" y="939" type="curve" smooth="yes"/>
      <point x="274" y="872"/>
      <point x="274" y="804"/>
      <point x="274" y="737" type="curve"/>
      <point x="149" y="737" type="line"/>
      <point x="149" y="646" type="line"/>
      <point x="278" y="646" type="line"/>
      <point x="278" y="512" type="line" smooth="yes"/>
      <point x="278" y="307"/>
      <point x="216" y="188"/>
      <point x="79" y="152" type="curve"/>
      <point x="79" y="40" type="line"/>
    </contour>
  </outline>
</glyph>
<glyph name="currency" format="2">
  <advance width="1117"/>
  <unicode hex="00A4"/>
  <outline>
    <contour>
      <point x="1039" y="418" type="line"/>
      <point x="853" y="604" type="line"/>
      <point x="907" y="672"/>
      <point x="934" y="750"/>
      <point x="934" y="838" type="curve" smooth="yes"/>
      <point x="934" y="926"/>
      <point x="908" y="1002"/>
      <point x="857" y="1067" type="curve"/>
      <point x="1039" y="1251" type="line"/>
      <point x="975" y="1315" type="line"/>
      <point x="791" y="1133" type="line"/>
      <point x="722" y="1186"/>
      <point x="645" y="1213"/>
      <point x="561" y="1213" type="curve" smooth="yes"/>
      <point x="472" y="1213"/>
      <point x="394" y="1186"/>
      <point x="326" y="1131" type="curve"/>
      <point x="144" y="1315" type="line"/>
      <point x="77" y="1251" type="line"/>
      <point x="262" y="1067" type="line"/>
      <point x="211" y="999"/>
      <point x="184" y="924"/>
      <point x="184" y="838" type="curve" smooth="yes"/>
      <point x="184" y="754"/>
      <point x="211" y="676"/>
      <point x="265" y="606" type="curve"/>
      <point x="77" y="420" type="line"/>
      <point x="144" y="353" type="line"/>
      <point x="330" y="539" type="line"/>
      <point x="395" y="488"/>
      <point x="472" y="462"/>
      <point x="561" y="462" type="curve" smooth="yes"/>
      <point x="646" y="462"/>
      <point x="722" y="488"/>
      <point x="789" y="539" type="curve"/>
      <point x="975" y="353" type="line"/>
    </contour>
    <contour>
      <point x="842" y="838" type="curve" smooth="yes"/>
      <point x="842" y="681"/>
      <point x="719" y="554"/>
      <point x="561" y="554" type="curve" smooth="yes"/>
      <point x="403" y="554"/>
      <point x="276" y="678"/>
      <point x="276" y="838" type="curve" smooth="yes"/>
      <point x="276" y="997"/>
      <point x="404" y="1120"/>
      <point x="561" y="1120" type="curve" smooth="yes"/>
      <point x="719" y="1120"/>
      <point x="842" y="996"/>
    </contour>
  </outline>
</glyph>
<glyph name="yen" format="2">
  <advance width="1098"/>
  <unicode hex="00A5"/>
  <outline>
    <contour>
      <point x="1080" y="1199" type="line"/>
      <point x="1080" y="1277" type="line"/>
      <point x="728" y="1277" type="line"/>
      <point x="728" y="1199" type="line"/>
      <point x="816" y="1185" type="line" smooth="yes"/>
      <point x="845" y="1180"/>
      <point x="853" y="1167"/>
      <point x="841" y="1144" type="curve"/>
      <point x="573" y="670" type="line"/>
      <point x="330" y="1146" type="line" smooth="yes"/>
      <point x="319" y="1169"/>
      <point x="326" y="1182"/>
      <point x="352" y="1187" type="curve"/>
      <point x="431" y="1199" type="line"/>
      <point x="431" y="1277" type="line"/>
      <point x="18" y="1277" type="line"/>
      <point x="18" y="1199" type="line"/>
      <point x="127" y="1178" type="line"/>
      <point x="310" y="827" type="line"/>
      <point x="59" y="827" type="line"/>
      <point x="59" y="746" type="line"/>
      <point x="354" y="746" type="line"/>
      <point x="454" y="557" type="line"/>
      <point x="59" y="557" type="line"/>
      <point x="59" y="476" type="line"/>
      <point x="457" y="476" type="line"/>
      <point x="457" y="167" type="line" smooth="yes"/>
      <point x="457" y="143"/>
      <point x="442" y="129"/>
      <point x="411" y="126" type="curve" smooth="yes"/>
      <point x="302" y="117" type="line"/>
      <point x="302" y="40" type="line"/>
      <point x="783" y="40" type="line"/>
      <point x="783" y="117" type="line"/>
      <point x="677" y="126" type="line" smooth="yes"/>
      <point x="644" y="129"/>
      <point x="628" y="143"/>
      <point x="628" y="167" type="curve" smooth="yes"/>
      <point x="628" y="476" type="line"/>
      <point x="1039" y="476" type="line"/>
      <point x="1039" y="557" type="line"/>
      <point x="626" y="557" type="line"/>
      <point x="733" y="746" type="line"/>
      <point x="1039" y="746" type="line"/>
      <point x="1039" y="827" type="line"/>
      <point x="779" y="827" type="line"/>
      <point x="976" y="1176" type="line"/>
    </contour>
  </outline>
</glyph>
<glyph name="brokenbar" format="2">
  <advance width="922"/>
  <unicode hex="00A6"/>
  <outline>
    <contour>
      <point x="524" y="647" type="line"/>
      <point x="398" y="647" type="line"/>
      <point x="398" y="1331" type="line"/>
      <point x="524" y="1331" type="line"/>
    </contour>
    <contour>
      <point x="524" y="-275" type="line"/>
      <point x="398" y="-275" type="line"/>
      <point x="398" y="409" type="line"/>
      <point x="524" y="409" type="line"/>
    </contour>
  </outline>
</glyph>
<glyph name="section" format="2">
  <advance width="922"/>
  <unicode hex="00A7"/>
  <outline>
    <contour>
      <point x="813" y="639" type="curve" smooth="yes"/>
      <point x="813" y="572"/>
      <point x="789" y="510"/>
      <point x="743" y="453" type="curve" smooth="yes"/>
      <point x="702" y="402"/>
      <point x="651" y="365"/>
      <point x="589" y="341" type="curve"/>
      <point x="716" y="282"/>
      <point x="779" y="201"/>
      <point x="779" y="98" type="curve" smooth="yes"/>
      <point x="779" y="15"/>
      <point x="747" y="-53"/>
      <point x="682" y="-106" type="curve" smooth="yes"/>
      <point x="618" y="-159"/>
      <point x="536" y="-185"/>
      <point x="436" y="-185" type="curve" smooth="yes"/>
      <point x="337" y="-185"/>
      <point x="243" y="-165"/>
      <point x="153" y="-126" type="curve"/>
      <point x="153" y="116" type="line"/>
      <point x="245" y="116" type="line"/>
      <point x="271" y="-50" type="line"/>
      <point x="319" y="-82"/>
      <point x="377" y="-99"/>
      <point x="445" y="-99" type="curve" smooth="yes"/>
      <point x="499" y="-99"/>
      <point x="545" y="-85"/>
      <point x="580" y="-58" type="curve" smooth="yes"/>
      <point x="616" y="-31"/>
      <point x="634" y="5"/>
      <point x="634" y="51" type="curve" smooth="yes"/>
      <point x="634" y="96"/>
      <point x="589" y="147"/>
      <point x="504" y="207" type="curve" smooth="yes"/>
      <point x="413" y="271"/>
      <point x="291" y="324"/>
      <point x="245" y="354" type="curve" smooth="yes"/>
      <point x="150" y="416"/>
      <point x="109" y="504"/>
      <point x="109" y="602" type="curve" smooth="yes"/>
      <point x="109" y="753"/>
      <point x="189" y="828"/>
      <point x="326" y="891" type="curve"/>
      <point x="203" y="953"/>
      <point x="142" y="1031"/>
      <point x="142" y="1127" type="curve" smooth="yes"/>
      <point x="142" y="1308"/>
      <point x="261" y="1398"/>
      <point x="499" y="1398" type="curve" smooth="yes"/>
      <point x="605" y="1398"/>
      <point x="690" y="1384"/>
      <point x="756" y="1354" type="curve"/>
      <point x="756" y="1115" type="line"/>
      <point x="669" y="1115" type="line"/>
      <point x="651" y="1264" type="line"/>
      <point x="586" y="1299"/>
      <point x="528" y="1317"/>
      <point x="477" y="1317" type="curve" smooth="yes"/>
      <point x="377" y="1317"/>
      <point x="293" y="1260"/>
      <point x="293" y="1162" type="curve" smooth="yes"/>
      <point x="293" y="1113"/>
      <point x="338" y="1063"/>
      <point x="428" y="1015" type="curve" smooth="yes"/>
      <point x="584" y="931"/>
      <point x="668" y="883"/>
      <point x="678" y="876" type="curve" smooth="yes"/>
      <point x="768" y="809"/>
      <point x="813" y="731"/>
    </contour>
    <contour>
      <point x="669" y="593" type="curve" smooth="yes"/>
      <point x="669" y="696"/>
      <point x="584" y="782"/>
      <point x="415" y="853" type="curve"/>
      <point x="321" y="819"/>
      <point x="248" y="742"/>
      <point x="248" y="645" type="curve" smooth="yes"/>
      <point x="248" y="591"/>
      <point x="270" y="542"/>
      <point x="313" y="501" type="curve" smooth="yes"/>
      <point x="353" y="463"/>
      <point x="419" y="422"/>
      <point x="514" y="377" type="curve"/>
      <point x="548" y="395"/>
      <point x="580" y="422"/>
      <point x="611" y="459" type="curve" smooth="yes"/>
      <point x="649" y="505"/>
      <point x="669" y="549"/>
    </contour>
  </outline>
</glyph>
<glyph name="dieresis" format="2">
  <advance width="582"/>
  <unicode hex="00A8"/>
  <outline>
    <contour>
      <point x="582" y="1222" type="curve" smooth="yes"/>
      <point x="582" y="1269"/>
      <point x="547" y="1322"/>
      <point x="483" y="1322" type="curve" smooth="yes"/>
      <point x="432" y="1322"/>
      <point x="382" y="1275"/>
      <point x="382" y="1222" type="curve" smooth="yes"/>
      <point x="382" y="1162"/>
      <point x="429" y="1118"/>
      <point x="483" y="1118" type="curve" smooth="yes"/>
      <point x="544" y="1118"/>
      <point x="582" y="1171"/>
    </contour>
    <contour>
      <point x="201" y="1222" type="curve" smooth="yes"/>
      <point x="201" y="1275"/>
      <point x="159" y="1322"/>
      <point x="100" y="1322" type="curve" smooth="yes"/>
      <point x="46" y="1322"/>
      <point x="0" y="1274"/>
      <point x="0" y="1220" type="curve" smooth="yes"/>
      <point x="0" y="1166"/>
      <point x="46" y="1118"/>
      <point x="100" y="1118" type="curve" smooth="yes"/>
      <point x="156" y="1118"/>
      <point x="201" y="1166"/>
    </contour>
  </outline>
</glyph>
<glyph name="copyright" format="2">
  <advance width="1543"/>
  <unicode hex="00A9"/>
  <outline>
    <contour>
      <point x="1480" y="686" type="curve" smooth="yes"/>
      <point x="1480" y="1075"/>
      <point x="1170" y="1398"/>
      <point x="773" y="1398" type="curve" smooth="yes"/>
      <point x="377" y="1398"/>
      <point x="63" y="1080"/>
      <point x="63" y="684" type="curve" smooth="yes"/>
      <point x="63" y="291"/>
      <point x="378" y="-27"/>
      <point x="771" y="-27" type="curve" smooth="yes"/>
      <point x="1167" y="-27"/>
      <point x="1480" y="290"/>
    </contour>
    <contour>
      <point x="1062" y="294" type="curve"/>
      <point x="1062" y="526" type="line"/>
      <point x="981" y="526" type="line"/>
      <point x="955" y="369" type="line"/>
      <point x="905" y="346"/>
      <point x="854" y="334"/>
      <point x="802" y="334" type="curve" smooth="yes"/>
      <point x="624" y="334"/>
      <point x="518" y="506"/>
      <point x="518" y="688" type="curve" smooth="yes"/>
      <point x="518" y="878"/>
      <point x="639" y="1031"/>
      <point x="821" y="1031" type="curve" smooth="yes"/>
      <point x="869" y="1031"/>
      <point x="913" y="1018"/>
      <point x="951" y="992" type="curve"/>
      <point x="979" y="853" type="line"/>
      <point x="1062" y="853" type="line"/>
      <point x="1062" y="1071" type="line"/>
      <point x="957" y="1103"/>
      <point x="869" y="1118"/>
      <point x="802" y="1118" type="curve" smooth="yes"/>
      <point x="519" y="1118"/>
      <point x="349" y="935"/>
      <point x="349" y="684" type="curve" smooth="yes"/>
      <point x="349" y="428"/>
      <point x="532" y="250"/>
      <point x="800" y="250" type="curve" smooth="yes"/>
      <point x="886" y="250"/>
      <point x="974" y="264"/>
    </contour>
    <contour>
      <point x="1401" y="684" type="curve" smooth="yes"/>
      <point x="1401" y="334"/>
      <point x="1121" y="51"/>
      <point x="771" y="51" type="curve" smooth="yes"/>
      <point x="421" y="51"/>
      <point x="142" y="334"/>
      <point x="142" y="684" type="curve" smooth="yes"/>
      <point x="142" y="1034"/>
      <point x="423" y="1321"/>
      <point x="773" y="1321" type="curve" smooth="yes"/>
      <point x="1122" y="1321"/>
      <point x="1401" y="1033"/>
    </contour>
  </outline>
</glyph>
<glyph name="ordfeminine" format="2">
  <advance width="628"/>
  <unicode hex="00AA"/>
  <outline>
    <contour>
      <point x="598" y="746" type="line"/>
      <point x="598" y="789" type="line"/>
      <point x="541" y="792" type="line" smooth="yes"/>
      <point x="525" y="793"/>
      <point x="517" y="801"/>
      <point x="517" y="817" type="curve" smooth="yes"/>
      <point x="517" y="1126" type="line" smooth="yes"/>
      <point x="517" y="1237"/>
      <point x="454" y="1292"/>
      <point x="327" y="1292" type="curve" smooth="yes"/>
      <point x="228" y="1292"/>
      <point x="77" y="1260"/>
      <point x="77" y="1161" type="curve" smooth="yes"/>
      <point x="77" y="1141"/>
      <point x="92" y="1130"/>
      <point x="121" y="1130" type="curve" smooth="yes"/>
      <point x="209" y="1130" type="line"/>
      <point x="209" y="1225" type="line"/>
      <point x="237" y="1235"/>
      <point x="265" y="1241"/>
      <point x="294" y="1241" type="curve" smooth="yes"/>
      <point x="368" y="1241"/>
      <point x="405" y="1204"/>
      <point x="405" y="1131" type="curve" smooth="yes"/>
      <point x="405" y="1083" type="line"/>
      <point x="268" y="1058"/>
      <point x="49" y="1014"/>
      <point x="49" y="881" type="curve" smooth="yes"/>
      <point x="49" y="793"/>
      <point x="115" y="733"/>
      <point x="205" y="733" type="curve" smooth="yes"/>
      <point x="263" y="733"/>
      <point x="329" y="759"/>
      <point x="405" y="811" type="curve"/>
      <point x="421" y="746" type="line"/>
    </contour>
    <contour>
      <point x="405" y="850" type="line"/>
      <point x="346" y="815"/>
      <point x="298" y="798"/>
      <point x="258" y="798" type="curve" smooth="yes"/>
      <point x="206" y="798"/>
      <point x="168" y="840"/>
      <point x="168" y="890" type="curve" smooth="yes"/>
      <point x="168" y="985"/>
      <point x="291" y="1015"/>
      <point x="405" y="1041" type="curve"/>
    </contour>
    <contour>
      <point x="594" y="601" type="line"/>
      <point x="594" y="656" type="line"/>
      <point x="57" y="656" type="line"/>
      <point x="57" y="601" type="line"/>
    </contour>
  </outline>
</glyph>
<glyph name="guillemotleft" format="1">
  <advance width="814"/>
  <unicode hex="00AB"/>
  <outline>
    <contour>
      <point x="741" y="158" type="line"/>
      <point x="433" y="409" type="line"/>
      <point x="433" y="556" type="line"/>
      <point x="741" y="809" type="line"/>
      <point x="741" y="678" type="line"/>
      <point x="529" y="483" type="line"/>
      <point x="741" y="285" type="line"/>
    </contour>
    <contour>
      <point x="378" y="158" type="line"/>
      <point x="70" y="409" type="line"/>
      <point x="70" y="556" type="line"/>
      <point x="378" y="809" type="line"/>
      <point x="378" y="678" type="line"/>
      <point x="164" y="483" type="line"/>
      <point x="378" y="285" type="line"/>
    </contour>
  </outline>
</glyph>
<glyph name="logicalnot" format="2">
  <advance width="1535"/>
  <unicode hex="00AC"/>
  <outline>
    <contour>
      <point x="1297" y="388" type="line"/>
      <point x="1297" y="814" type="line"/>
      <point x="238" y="814" type="line"/>
      <point x="238" y="703" type="line"/>
      <point x="1186" y="703" type="line"/>
      <point x="1186" y="388" type="line"/>
    </contour>
  </outline>
</glyph>
<glyph name="softhyphen" format="1">
  <advance width="589"/>
  <unicode hex="00AD"/>
  <outline>
    <contour>
      <point x="508" y="552" type="line"/>
      <point x="81" y="552" type="line"/>
      <point x="81" y="414" type="line"/>
      <point x="508" y="414" type="line"/>
    </contour>
  </outline>
</glyph>
<glyph name="RegisteredSgn" format="1">
  <advance width="1543"/>
  <unicode hex="00AE"/>
  <outline>
    <contour>
      <point x="1480" y="685" type="curve" smooth="yes"/>
      <point x="1480" y="1079"/>
      <point x="1159" y="1398"/>
      <point x="772" y="1398" type="curve" smooth="yes"/>
      <point x="380" y="1398"/>
      <point x="63" y="1078"/>
      <point x="63" y="685" type="curve" smooth="yes"/>
      <point x="63" y="293"/>
      <point x="382" y="-27"/>
      <point x="769" y="-27" type="curve" smooth="yes"/>
      <point x="1163" y="-27"/>
      <point x="1480" y="293"/>
    </contour>
    <contour>
      <point x="1400" y="685" type="curve" smooth="yes"/>
      <point x="1400" y="339"/>
      <point x="1119" y="51"/>
      <point x="770" y="51" type="curve" smooth="yes"/>
      <point x="422" y="51"/>
      <point x="142" y="337"/>
      <point x="142" y="682" type="curve" smooth="yes"/>
      <point x="142" y="1041"/>
      <point x="427" y="1321"/>
      <point x="772" y="1321" type="curve" smooth="yes"/>
      <point x="1119" y="1321"/>
      <point x="1400" y="1037"/>
    </contour>
    <contour>
      <point x="1229" y="302" type="curve"/>
      <point x="1229" y="351" type="line"/>
      <point x="907" y="351"/>
      <point x="1141" y="629"/>
      <point x="848" y="694" type="curve"/>
      <point x="960" y="719"/>
      <point x="1064" y="770"/>
      <point x="1064" y="895" type="curve" smooth="yes"/>
      <point x="1064" y="1053"/>
      <point x="942" y="1109"/>
      <point x="741" y="1109" type="curve" smooth="yes"/>
      <point x="398" y="1109" type="line"/>
      <point x="398" y="1057" type="line"/>
      <point x="468" y="1052" type="line" smooth="yes"/>
      <point x="487" y="1050"/>
      <point x="496" y="1037"/>
      <point x="496" y="1026" type="curve" smooth="yes"/>
      <point x="496" y="385" type="line" smooth="yes"/>
      <point x="496" y="374"/>
      <point x="487" y="360"/>
      <point x="468" y="359" type="curve" smooth="yes"/>
      <point x="398" y="353" type="line"/>
      <point x="398" y="302" type="line"/>
      <point x="724" y="302" type="line"/>
      <point x="724" y="353" type="line"/>
      <point x="654" y="359" type="line" smooth="yes"/>
      <point x="636" y="360"/>
      <point x="626" y="374"/>
      <point x="626" y="385" type="curve" smooth="yes"/>
      <point x="626" y="659" type="line"/>
      <point x="630" y="659"/>
      <point x="660" y="661"/>
      <point x="688" y="661" type="curve" smooth="yes"/>
      <point x="1013" y="661"/>
      <point x="796" y="293"/>
      <point x="1122" y="293" type="curve" smooth="yes"/>
      <point x="1161" y="293"/>
      <point x="1219" y="300"/>
    </contour>
    <contour>
      <point x="920" y="890" type="curve" smooth="yes"/>
      <point x="920" y="761"/>
      <point x="841" y="719"/>
      <point x="695" y="719" type="curve" smooth="yes"/>
      <point x="675" y="719"/>
      <point x="630" y="720"/>
      <point x="626" y="720" type="curve"/>
      <point x="626" y="1052" type="line"/>
      <point x="689" y="1052" type="line" smooth="yes"/>
      <point x="855" y="1052"/>
      <point x="920" y="991"/>
    </contour>
  </outline>
</glyph>
<glyph name="degree" format="2">
  <advance width="608"/>
  <unicode hex="00B0"/>
  <outline>
    <contour>
      <point x="561" y="1094" type="curve" smooth="yes"/>
      <point x="561" y="1236"/>
      <point x="444" y="1349"/>
      <point x="304" y="1349" type="curve" smooth="yes"/>
      <point x="168" y="1349"/>
      <point x="48" y="1243"/>
      <point x="48" y="1094" type="curve" smooth="yes"/>
      <point x="48" y="949"/>
      <point x="163" y="838"/>
      <point x="304" y="838" type="curve" smooth="yes"/>
      <point x="449" y="838"/>
      <point x="561" y="955"/>
    </contour>
    <contour>
      <point x="487" y="1094" type="curve" smooth="yes"/>
      <point x="487" y="993"/>
      <point x="405" y="912"/>
      <point x="304" y="912" type="curve" smooth="yes"/>
      <point x="203" y="912"/>
      <point x="121" y="993"/>
      <point x="121" y="1094" type="curve" smooth="yes"/>
      <point x="121" y="1195"/>
      <point x="203" y="1275"/>
      <point x="304" y="1275" type="curve" smooth="yes"/>
      <point x="405" y="1275"/>
      <point x="487" y="1195"/>
    </contour>
  </outline>
</glyph>
<glyph name="plusminus" format="1">
  <advance width="1535"/>
  <unicode hex="00B1"/>
  <outline>
    <contour>
      <point x="1307" y="687" type="line"/>
      <point x="822" y="687" type="line"/>
      <point x="822" y="377" type="line"/>
      <point x="715" y="377" type="line"/>
      <point x="715" y="687" type="line"/>
      <point x="229" y="687" type="line"/>
      <point x="229" y="792" type="line"/>
      <point x="715" y="792" type="line"/>
      <point x="715" y="1102" type="line"/>
      <point x="822" y="1102" type="line"/>
      <point x="822" y="792" type="line"/>
      <point x="1307" y="792" type="line"/>
    </contour>
    <contour>
      <point x="1307" y="77" type="line"/>
      <point x="229" y="77" type="line"/>
      <point x="229" y="182" type="line"/>
      <point x="1307" y="182" type="line"/>
    </contour>
  </outline>
</glyph>
<glyph name="twosuperior" format="2">
  <advance width="673"/>
  <unicode hex="00B2"/>
  <outline>
    <contour>
      <point x="617" y="584" type="line"/>
      <point x="617" y="772" type="line"/>
      <point x="559" y="772" type="line"/>
      <point x="536" y="678" type="line"/>
      <point x="183" y="678" type="line"/>
      <point x="326" y="782"/>
      <point x="420" y="857"/>
      <point x="468" y="903" type="curve" smooth="yes"/>
      <point x="550" y="983"/>
      <point x="591" y="1058"/>
      <point x="591" y="1127" type="curve" smooth="yes"/>
      <point x="591" y="1267"/>
      <point x="483" y="1340"/>
      <point x="339" y="1340" type="curve" smooth="yes"/>
      <point x="229" y="1340"/>
      <point x="77" y="1289"/>
      <point x="77" y="1179" type="curve" smooth="yes"/>
      <point x="77" y="1136"/>
      <point x="102" y="1115"/>
      <point x="151" y="1115" type="curve" smooth="yes"/>
      <point x="174" y="1115"/>
      <point x="193" y="1121"/>
      <point x="208" y="1133" type="curve"/>
      <point x="208" y="1255" type="line"/>
      <point x="255" y="1270"/>
      <point x="287" y="1278"/>
      <point x="306" y="1278" type="curve" smooth="yes"/>
      <point x="410" y="1278"/>
      <point x="463" y="1224"/>
      <point x="463" y="1116" type="curve" smooth="yes"/>
      <point x="463" y="1047"/>
      <point x="425" y="975"/>
      <point x="351" y="899" type="curve" smooth="yes"/>
      <point x="307" y="854"/>
      <point x="210" y="774"/>
      <point x="57" y="657" type="curve"/>
      <point x="57" y="584" type="line"/>
    </contour>
  </outline>
</glyph>
<glyph name="threesuperior" format="2">
  <advance width="688"/>
  <unicode hex="00B3"/>
  <outline>
    <contour>
      <point x="617" y="800" type="curve" smooth="yes"/>
      <point x="617" y="733"/>
      <point x="589" y="679"/>
      <point x="530" y="637" type="curve" smooth="yes"/>
      <point x="472" y="595"/>
      <point x="399" y="575"/>
      <point x="311" y="575" type="curve" smooth="yes"/>
      <point x="237" y="575"/>
      <point x="175" y="588"/>
      <point x="130" y="616" type="curve" smooth="yes"/>
      <point x="90" y="640"/>
      <point x="70" y="667"/>
      <point x="70" y="698" type="curve" smooth="yes"/>
      <point x="70" y="740"/>
      <point x="94" y="761"/>
      <point x="140" y="761" type="curve" smooth="yes"/>
      <point x="157" y="761"/>
      <point x="171" y="758"/>
      <point x="181" y="752" type="curve"/>
      <point x="218" y="654" type="line"/>
      <point x="248" y="638"/>
      <point x="281" y="629"/>
      <point x="315" y="629" type="curve" smooth="yes"/>
      <point x="368" y="629"/>
      <point x="412" y="647"/>
      <point x="447" y="682" type="curve" smooth="yes"/>
      <point x="480" y="714"/>
      <point x="496" y="754"/>
      <point x="496" y="800" type="curve" smooth="yes"/>
      <point x="496" y="890"/>
      <point x="438" y="935"/>
      <point x="322" y="935" type="curve" smooth="yes"/>
      <point x="296" y="935"/>
      <point x="274" y="935"/>
      <point x="255" y="932" type="curve"/>
      <point x="255" y="1000" type="line"/>
      <point x="285" y="1000" type="line" smooth="yes"/>
      <point x="406" y="1000"/>
      <point x="466" y="1047"/>
      <point x="466" y="1141" type="curve" smooth="yes"/>
      <point x="466" y="1185"/>
      <point x="451" y="1220"/>
      <point x="421" y="1245" type="curve" smooth="yes"/>
      <point x="393" y="1268"/>
      <point x="357" y="1280"/>
      <point x="315" y="1280" type="curve" smooth="yes"/>
      <point x="274" y="1280"/>
      <point x="240" y="1272"/>
      <point x="212" y="1255" type="curve"/>
      <point x="212" y="1144" type="line"/>
      <point x="192" y="1134"/>
      <point x="174" y="1129"/>
      <point x="158" y="1129" type="curve" smooth="yes"/>
      <point x="112" y="1129"/>
      <point x="88" y="1150"/>
      <point x="88" y="1192" type="curve" smooth="yes"/>
      <point x="88" y="1234"/>
      <point x="113" y="1269"/>
      <point x="163" y="1298" type="curve" smooth="yes"/>
      <point x="213" y="1327"/>
      <point x="274" y="1341"/>
      <point x="346" y="1341" type="curve" smooth="yes"/>
      <point x="418" y="1341"/>
      <point x="475" y="1325"/>
      <point x="519" y="1292" type="curve" smooth="yes"/>
      <point x="565" y="1258"/>
      <point x="588" y="1211"/>
      <point x="588" y="1153" type="curve" smooth="yes"/>
      <point x="588" y="1068"/>
      <point x="526" y="1008"/>
      <point x="404" y="976" type="curve"/>
      <point x="462" y="974"/>
      <point x="510" y="960"/>
      <point x="549" y="932" type="curve" smooth="yes"/>
      <point x="595" y="900"/>
      <point x="617" y="856"/>
    </contour>
  </outline>
</glyph>
<glyph name="acute" format="2">
  <advance width="646"/>
  <unicode hex="00B4"/>
  <outline>
    <contour>
      <point x="646" y="1308" type="curve" smooth="yes"/>
      <point x="646" y="1363"/>
      <point x="618" y="1391"/>
      <point x="562" y="1391" type="curve" smooth="yes"/>
      <point x="525" y="1391"/>
      <point x="491" y="1374"/>
      <point x="463" y="1341" type="curve" smooth="yes"/>
      <point x="219" y="1055" type="line"/>
      <point x="323" y="1055" type="line"/>
      <point x="604" y="1234" type="line" smooth="yes"/>
      <point x="632" y="1252"/>
      <point x="646" y="1277"/>
    </contour>
  </outline>
</glyph>
<glyph name="mu" format="2">
  <advance width="1009"/>
  <unicode hex="00B5"/>
  <outline>
    <contour>
      <point x="1019" y="240" type="line"/>
      <point x="1009" y="92"/>
      <point x="947" y="18"/>
      <point x="833" y="18" type="curve" smooth="yes"/>
      <point x="742" y="18"/>
      <point x="688" y="78"/>
      <point x="671" y="197" type="curve"/>
      <point x="616" y="134"/>
      <point x="570" y="89"/>
      <point x="531" y="62" type="curve" smooth="yes"/>
      <point x="488" y="33"/>
      <point x="443" y="18"/>
      <point x="396" y="18" type="curve" smooth="yes"/>
      <point x="319" y="18"/>
      <point x="265" y="45"/>
      <point x="232" y="99" type="curve"/>
      <point x="232" y="55" type="line" smooth="yes"/>
      <point x="232" y="13"/>
      <point x="239" y="-46"/>
      <point x="254" y="-120" type="curve" smooth="yes"/>
      <point x="269" y="-194"/>
      <point x="276" y="-242"/>
      <point x="276" y="-263" type="curve" smooth="yes"/>
      <point x="276" y="-293"/>
      <point x="267" y="-318"/>
      <point x="249" y="-339" type="curve" smooth="yes"/>
      <point x="232" y="-359"/>
      <point x="211" y="-369"/>
      <point x="188" y="-369" type="curve" smooth="yes"/>
      <point x="166" y="-369"/>
      <point x="148" y="-359"/>
      <point x="131" y="-340" type="curve" smooth="yes"/>
      <point x="115" y="-320"/>
      <point x="107" y="-296"/>
      <point x="107" y="-267" type="curve" smooth="yes"/>
      <point x="107" y="-248"/>
      <point x="117" y="-196"/>
      <point x="137" y="-110" type="curve" smooth="yes"/>
      <point x="157" y="-25"/>
      <point x="166" y="88"/>
      <point x="166" y="225" type="curve" smooth="yes"/>
      <point x="166" y="928" type="line"/>
      <point x="337" y="928" type="line"/>
      <point x="337" y="404" type="line" smooth="yes"/>
      <point x="337" y="314"/>
      <point x="343" y="253"/>
      <point x="354" y="220" type="curve" smooth="yes"/>
      <point x="373" y="163"/>
      <point x="411" y="134"/>
      <point x="470" y="134" type="curve" smooth="yes"/>
      <point x="530" y="134"/>
      <point x="597" y="177"/>
      <point x="671" y="260" type="curve"/>
      <point x="671" y="928" type="line"/>
      <point x="842" y="928" type="line"/>
      <point x="842" y="293" type="line" smooth="yes"/>
      <point x="842" y="218"/>
      <point x="849" y="169"/>
      <point x="860" y="146" type="curve" smooth="yes"/>
      <point x="868" y="131"/>
      <point x="883" y="124"/>
      <point x="904" y="124" type="curve" smooth="yes"/>
      <point x="940" y="124"/>
      <point x="967" y="162"/>
      <point x="982" y="240" type="curve"/>
    </contour>
  </outline>
</glyph>
<glyph name="paragraph" format="2">
  <advance width="895"/>
  <unicode hex="00B6"/>
  <outline>
    <contour>
      <point x="846" y="1210" type="line"/>
      <point x="732" y="1192" type="line"/>
      <point x="732" y="-106" type="line"/>
      <point x="642" y="-106" type="line"/>
      <point x="642" y="1201" type="line"/>
      <point x="501" y="1201" type="line"/>
      <point x="501" y="557" type="line"/>
      <point x="355" y="557"/>
      <point x="247" y="581"/>
      <point x="175" y="629" type="curve" smooth="yes"/>
      <point x="92" y="686"/>
      <point x="49" y="782"/>
      <point x="49" y="916" type="curve" smooth="yes"/>
      <point x="49" y="1046"/>
      <point x="87" y="1140"/>
      <point x="163" y="1197" type="curve" smooth="yes"/>
      <point x="231" y="1250"/>
      <point x="337" y="1277"/>
      <point x="481" y="1277" type="curve" smooth="yes"/>
      <point x="846" y="1277" type="line"/>
    </contour>
  </outline>
</glyph>
<glyph name="periodcentered" format="2">
  <advance width="518"/>
  <unicode hex="00B7"/>
  <outline>
    <contour>
      <point x="383" y="657" type="curve" smooth="yes"/>
      <point x="383" y="622"/>
      <point x="371" y="593"/>
      <point x="346" y="569" type="curve" smooth="yes"/>
      <point x="322" y="546"/>
      <point x="292" y="534"/>
      <point x="258" y="534" type="curve" smooth="yes"/>
      <point x="224" y="534"/>
      <point x="195" y="546"/>
      <point x="171" y="570" type="curve" smooth="yes"/>
      <point x="147" y="594"/>
      <point x="135" y="623"/>
      <point x="135" y="657" type="curve" smooth="yes"/>
      <point x="135" y="692"/>
      <point x="147" y="721"/>
      <point x="171" y="746" type="curve" smooth="yes"/>
      <point x="195" y="770"/>
      <point x="224" y="782"/>
      <point x="258" y="782" type="curve" smooth="yes"/>
      <point x="292" y="782"/>
      <point x="322" y="770"/>
      <point x="346" y="746" type="curve" smooth="yes"/>
      <point x="371" y="721"/>
      <point x="383" y="692"/>
    </contour>
  </outline>
</glyph>
<glyph name="cedilla" format="1">
  <advance width="426"/>
  <unicode hex="00B8"/>
  <outline>
    <contour>
      <point x="426" y="-199" type="curve" smooth="yes"/>
      <point x="426" y="-255"/>
      <point x="406" y="-298"/>
      <point x="366" y="-329" type="curve" smooth="yes"/>
      <point x="328" y="-360"/>
      <point x="276" y="-375"/>
      <point x="212" y="-375" type="curve" smooth="yes"/>
      <point x="172" y="-375"/>
      <point x="127" y="-369"/>
      <point x="76" y="-356" type="curve"/>
      <point x="76" y="-284" type="line"/>
      <point x="121" y="-294"/>
      <point x="157" y="-299"/>
      <point x="186" y="-299" type="curve" smooth="yes"/>
      <point x="266" y="-299"/>
      <point x="306" y="-274"/>
      <point x="306" y="-224" type="curve" smooth="yes"/>
      <point x="306" y="-178"/>
      <point x="277" y="-155"/>
      <point x="220" y="-155" type="curve" smooth="yes"/>
      <point x="208" y="-155"/>
      <point x="194" y="-159"/>
      <point x="177" y="-166" type="curve"/>
      <point x="177" y="40" type="line"/>
      <point x="248" y="40" type="line"/>
      <point x="248" y="-76" type="line"/>
      <point x="282" y="-72"/>
      <point x="296" y="-69"/>
      <point x="292" y="-69" type="curve"/>
      <point x="381" y="-69"/>
      <point x="426" y="-112"/>
    </contour>
  </outline>
</glyph>
<glyph name="onesuperior" format="2">
  <advance width="619"/>
  <unicode hex="00B9"/>
  <outline>
    <contour>
      <point x="533" y="584" type="line"/>
      <point x="127" y="584" type="line"/>
      <point x="127" y="633" type="line"/>
      <point x="248" y="638" type="line" smooth="yes"/>
      <point x="265" y="638"/>
      <point x="274" y="646"/>
      <point x="274" y="661" type="curve" smooth="yes"/>
      <point x="274" y="1245" type="line"/>
      <point x="88" y="1216" type="line"/>
      <point x="88" y="1266" type="line"/>
      <point x="348" y="1340" type="line"/>
      <point x="392" y="1340" type="line"/>
      <point x="392" y="661" type="line" smooth="yes"/>
      <point x="392" y="646"/>
      <point x="401" y="638"/>
      <point x="420" y="638" type="curve" smooth="yes"/>
      <point x="533" y="633" type="line"/>
    </contour>
  </outline>
</glyph>
<glyph name="ordmasculine" format="2">
  <advance width="661"/>
  <unicode hex="00BA"/>
  <outline>
    <contour>
      <point x="616" y="1011" type="curve" smooth="yes"/>
      <point x="616" y="1177"/>
      <point x="503" y="1292"/>
      <point x="333" y="1292" type="curve" smooth="yes"/>
      <point x="155" y="1292"/>
      <point x="45" y="1172"/>
      <point x="45" y="1011" type="curve" smooth="yes"/>
      <point x="45" y="847"/>
      <point x="156" y="733"/>
      <point x="329" y="733" type="curve" smooth="yes"/>
      <point x="510" y="733"/>
      <point x="616" y="858"/>
    </contour>
    <contour>
      <point x="491" y="1012" type="curve" smooth="yes"/>
      <point x="491" y="898"/>
      <point x="444" y="782"/>
      <point x="330" y="782" type="curve" smooth="yes"/>
      <point x="219" y="782"/>
      <point x="171" y="901"/>
      <point x="171" y="1012" type="curve" smooth="yes"/>
      <point x="171" y="1127"/>
      <point x="217" y="1241"/>
      <point x="332" y="1241" type="curve" smooth="yes"/>
      <point x="445" y="1241"/>
      <point x="491" y="1125"/>
    </contour>
    <contour>
      <point x="611" y="601" type="line"/>
      <point x="611" y="656" type="line"/>
      <point x="49" y="656" type="line"/>
      <point x="49" y="601" type="line"/>
    </contour>
  </outline>
</glyph>
<glyph name="guillemotright" format="2">
  <advance width="814"/>
  <unicode hex="00BB"/>
  <outline>
    <contour>
      <point x="744" y="411" type="line"/>
      <point x="436" y="158" type="line"/>
      <point x="436" y="288" type="line"/>
      <point x="651" y="484" type="line"/>
      <point x="436" y="682" type="line"/>
      <point x="436" y="809" type="line"/>
      <point x="744" y="557" type="line"/>
    </contour>
    <contour>
      <point x="382" y="411" type="line"/>
      <point x="74" y="158" type="line"/>
      <point x="74" y="288" type="line"/>
      <point x="285" y="484" type="line"/>
      <point x="74" y="682" type="line"/>
      <point x="74" y="809" type="line"/>
      <point x="382" y="557" type="line"/>
    </contour>
  </outline>
</glyph>
<glyph name="onequarter" format="2">
  <advance width="1613"/>
  <unicode hex="00BC"/>
  <outline>
    <contour>
      <point x="1525" y="250" type="line"/>
      <point x="1388" y="250" type="line"/>
      <point x="1388" y="1" type="line"/>
      <point x="1284" y="1" type="line"/>
      <point x="1284" y="250" type="line"/>
      <point x="901" y="250" type="line"/>
      <point x="901" y="327" type="line"/>
      <point x="1307" y="788" type="line"/>
      <point x="1388" y="788" type="line"/>
      <point x="1388" y="325" type="line"/>
      <point x="1525" y="325" type="line"/>
    </contour>
    <contour>
      <point x="1272" y="1327" type="line"/>
      <point x="455" y="40" type="line"/>
      <point x="337" y="40" type="line"/>
      <point x="1156" y="1327" type="line"/>
    </contour>
    <contour>
      <point x="533" y="584" type="line"/>
      <point x="127" y="584" type="line"/>
      <point x="127" y="633" type="line"/>
      <point x="248" y="638" type="line"/>
      <point x="265" y="638"/>
      <point x="274" y="646"/>
      <point x="274" y="661" type="curve" smooth="yes"/>
      <point x="274" y="1245" type="line"/>
      <point x="88" y="1216" type="line"/>
      <point x="88" y="1266" type="line"/>
      <point x="348" y="1340" type="line"/>
      <point x="392" y="1340" type="line"/>
      <point x="392" y="661" type="line" smooth="yes"/>
      <point x="392" y="646"/>
      <point x="401" y="638"/>
      <point x="420" y="638" type="curve"/>
      <point x="533" y="633" type="line"/>
    </contour>
    <contour>
      <point x="1284" y="325" type="line"/>
      <point x="1284" y="659" type="line"/>
      <point x="997" y="325" type="line"/>
    </contour>
  </outline>
</glyph>
<glyph name="onehalf" format="2">
  <advance width="1613"/>
  <unicode hex="00BD"/>
  <outline>
    <contour>
      <point x="1530" y="40" type="line"/>
      <point x="1530" y="230" type="line"/>
      <point x="1469" y="230" type="line"/>
      <point x="1449" y="134" type="line"/>
      <point x="1095" y="134" type="line"/>
      <point x="1237" y="236"/>
      <point x="1331" y="311"/>
      <point x="1380" y="359" type="curve" smooth="yes"/>
      <point x="1462" y="439"/>
      <point x="1502" y="514"/>
      <point x="1502" y="584" type="curve" smooth="yes"/>
      <point x="1502" y="725"/>
      <point x="1391" y="796"/>
      <point x="1250" y="796" type="curve" smooth="yes"/>
      <point x="1179" y="796"/>
      <point x="1118" y="781"/>
      <point x="1066" y="750" type="curve" smooth="yes"/>
      <point x="1015" y="720"/>
      <point x="990" y="682"/>
      <point x="990" y="636" type="curve" smooth="yes"/>
      <point x="990" y="593"/>
      <point x="1014" y="571"/>
      <point x="1062" y="571" type="curve" smooth="yes"/>
      <point x="1084" y="571"/>
      <point x="1104" y="577"/>
      <point x="1120" y="589" type="curve"/>
      <point x="1120" y="710" type="line"/>
      <point x="1169" y="727"/>
      <point x="1201" y="735"/>
      <point x="1219" y="735" type="curve" smooth="yes"/>
      <point x="1323" y="735"/>
      <point x="1375" y="682"/>
      <point x="1375" y="575" type="curve" smooth="yes"/>
      <point x="1375" y="505"/>
      <point x="1337" y="431"/>
      <point x="1263" y="356" type="curve" smooth="yes"/>
      <point x="1219" y="312"/>
      <point x="1120" y="231"/>
      <point x="967" y="114" type="curve"/>
      <point x="967" y="40" type="line"/>
    </contour>
    <contour>
      <point x="1259" y="1327" type="line"/>
      <point x="1143" y="1327" type="line"/>
      <point x="324" y="40" type="line"/>
      <point x="440" y="40" type="line"/>
    </contour>
    <contour>
      <point x="529" y="584" type="line"/>
      <point x="529" y="633" type="line"/>
      <point x="417" y="638" type="line"/>
      <point x="398" y="638"/>
      <point x="389" y="646"/>
      <point x="389" y="661" type="curve" smooth="yes"/>
      <point x="389" y="1340" type="line"/>
      <point x="345" y="1340" type="line"/>
      <point x="85" y="1266" type="line"/>
      <point x="85" y="1216" type="line"/>
      <point x="271" y="1245" type="line"/>
      <point x="271" y="661" type="line" smooth="yes"/>
      <point x="271" y="646"/>
      <point x="262" y="638"/>
      <point x="245" y="638" type="curve"/>
      <point x="123" y="633" type="line"/>
      <point x="123" y="584" type="line"/>
    </contour>
  </outline>
</glyph>
<glyph name="questiondown" format="2">
  <advance width="895"/>
  <unicode hex="00BF"/>
  <outline>
    <contour>
      <point x="639" y="827" type="curve" smooth="yes"/>
      <point x="639" y="889"/>
      <point x="588" y="941"/>
      <point x="526" y="941" type="curve" smooth="yes"/>
      <point x="462" y="941"/>
      <point x="412" y="892"/>
      <point x="412" y="828" type="curve" smooth="yes"/>
      <point x="412" y="764"/>
      <point x="462" y="714"/>
      <point x="526" y="714" type="curve" smooth="yes"/>
      <point x="590" y="714"/>
      <point x="639" y="763"/>
    </contour>
    <contour>
      <point x="804" y="-202" type="curve" smooth="yes"/>
      <point x="804" y="-136"/>
      <point x="763" y="-102"/>
      <point x="683" y="-102" type="curve" smooth="yes"/>
      <point x="680" y="-102"/>
      <point x="670" y="-103"/>
      <point x="652" y="-105" type="curve"/>
      <point x="577" y="-292" type="line"/>
      <point x="401" y="-292"/>
      <point x="313" y="-208"/>
      <point x="313" y="-38" type="curve" smooth="yes"/>
      <point x="313" y="118"/>
      <point x="430" y="234"/>
      <point x="580" y="285" type="curve"/>
      <point x="580" y="588" type="line"/>
      <point x="477" y="588" type="line"/>
      <point x="477" y="347" type="line"/>
      <point x="290" y="265"/>
      <point x="127" y="159"/>
      <point x="127" y="-53" type="curve" smooth="yes"/>
      <point x="127" y="-264"/>
      <point x="304" y="-383"/>
      <point x="510" y="-383" type="curve" smooth="yes"/>
      <point x="649" y="-383"/>
      <point x="804" y="-327"/>
    </contour>
  </outline>
</glyph>
<glyph name="Agrave" format="2">
  <advance width="1242"/>
  <unicode hex="00C0"/>
  <outline>
    <contour>
      <point x="1233" y="40" type="line"/>
      <point x="1233" y="119" type="line"/>
      <point x="1150" y="134" type="line" smooth="yes"/>
      <point x="1127" y="138"/>
      <point x="1121" y="143"/>
      <point x="1111" y="169" type="curve" smooth="yes"/>
      <point x="684" y="1306" type="line"/>
      <point x="545" y="1306" type="line"/>
      <point x="116" y="142" type="line"/>
      <point x="9" y="119" type="line"/>
      <point x="9" y="40" type="line"/>
      <point x="380" y="40" type="line"/>
      <point x="380" y="119" type="line"/>
      <point x="271" y="128" type="line" smooth="yes"/>
      <point x="241" y="130"/>
      <point x="243" y="160"/>
      <point x="245" y="165" type="curve" smooth="yes"/>
      <point x="367" y="497" type="line"/>
      <point x="793" y="497" type="line"/>
      <point x="920" y="160" type="line" smooth="yes"/>
      <point x="924" y="151"/>
      <point x="911" y="130"/>
      <point x="901" y="128" type="curve"/>
      <point x="794" y="119" type="line"/>
      <point x="794" y="40" type="line"/>
    </contour>
    <contour>
      <point x="760" y="585" type="line"/>
      <point x="400" y="585" type="line"/>
      <point x="579" y="1068" type="line"/>
    </contour>
    <contour>
      <point x="700" y="1412" type="line"/>
      <point x="455" y="1697" type="line" smooth="yes"/>
      <point x="427" y="1730"/>
      <point x="394" y="1747"/>
      <point x="359" y="1747" type="curve" smooth="yes"/>
      <point x="301" y="1747"/>
      <point x="273" y="1719"/>
      <point x="273" y="1664" type="curve" smooth="yes"/>
      <point x="273" y="1634"/>
      <point x="287" y="1610"/>
      <point x="317" y="1591" type="curve" smooth="yes"/>
      <point x="598" y="1412" type="line"/>
    </contour>
  </outline>
</glyph>
<glyph name="Aacute" format="2">
  <advance width="1242"/>
  <unicode hex="00C1"/>
  <outline>
    <contour>
      <point x="925" y="1664" type="curve" smooth="yes"/>
      <point x="925" y="1719"/>
      <point x="897" y="1747"/>
      <point x="842" y="1747" type="curve" smooth="yes"/>
      <point x="805" y="1747"/>
      <point x="773" y="1730"/>
      <point x="744" y="1697" type="curve" smooth="yes"/>
      <point x="499" y="1412" type="line"/>
      <point x="605" y="1412" type="line"/>
      <point x="883" y="1591" type="line" smooth="yes"/>
      <point x="911" y="1609"/>
      <point x="925" y="1633"/>
    </contour>
    <contour>
      <point x="760" y="585" type="line"/>
      <point x="400" y="585" type="line"/>
      <point x="579" y="1068" type="line"/>
    </contour>
    <contour>
      <point x="1233" y="40" type="line"/>
      <point x="1233" y="119" type="line"/>
      <point x="1150" y="134" type="line" smooth="yes"/>
      <point x="1127" y="138"/>
      <point x="1121" y="143"/>
      <point x="1111" y="169" type="curve" smooth="yes"/>
      <point x="684" y="1306" type="line"/>
      <point x="545" y="1306" type="line"/>
      <point x="116" y="142" type="line"/>
      <point x="9" y="119" type="line"/>
      <point x="9" y="40" type="line"/>
      <point x="380" y="40" type="line"/>
      <point x="380" y="119" type="line"/>
      <point x="271" y="128" type="line" smooth="yes"/>
      <point x="241" y="130"/>
      <point x="243" y="160"/>
      <point x="245" y="165" type="curve" smooth="yes"/>
      <point x="367" y="497" type="line"/>
      <point x="793" y="497" type="line"/>
      <point x="920" y="160" type="line" smooth="yes"/>
      <point x="924" y="151"/>
      <point x="911" y="130"/>
      <point x="901" y="128" type="curve"/>
      <point x="794" y="119" type="line"/>
      <point x="794" y="40" type="line"/>
    </contour>
  </outline>
</glyph>
<glyph name="Acircumflex" format="2">
  <advance width="1242"/>
  <unicode hex="00C2"/>
  <outline>
    <contour>
      <point x="760" y="585" type="line"/>
      <point x="400" y="585" type="line"/>
      <point x="579" y="1068" type="line"/>
    </contour>
    <contour>
      <point x="894" y="1412" type="line"/>
      <point x="661" y="1725" type="line"/>
      <point x="524" y="1725" type="line"/>
      <point x="292" y="1412" type="line"/>
      <point x="401" y="1412" type="line"/>
      <point x="593" y="1596" type="line"/>
      <point x="783" y="1412" type="line"/>
    </contour>
    <contour>
      <point x="1233" y="40" type="line"/>
      <point x="1233" y="119" type="line"/>
      <point x="1150" y="134" type="line" smooth="yes"/>
      <point x="1127" y="138"/>
      <point x="1121" y="143"/>
      <point x="1111" y="169" type="curve" smooth="yes"/>
      <point x="684" y="1306" type="line"/>
      <point x="545" y="1306" type="line"/>
      <point x="116" y="142" type="line"/>
      <point x="9" y="119" type="line"/>
      <point x="9" y="40" type="line"/>
      <point x="380" y="40" type="line"/>
      <point x="380" y="119" type="line"/>
      <point x="271" y="128" type="line" smooth="yes"/>
      <point x="241" y="130"/>
      <point x="243" y="160"/>
      <point x="245" y="165" type="curve" smooth="yes"/>
      <point x="367" y="497" type="line"/>
      <point x="793" y="497" type="line"/>
      <point x="920" y="160" type="line" smooth="yes"/>
      <point x="924" y="151"/>
      <point x="911" y="130"/>
      <point x="901" y="128" type="curve"/>
      <point x="794" y="119" type="line"/>
      <point x="794" y="40" type="line"/>
    </contour>
  </outline>
</glyph>
<glyph name="Atilde" format="2">
  <advance width="1242"/>
  <unicode hex="00C3"/>
  <outline>
    <contour>
      <point x="925" y="1672" type="line"/>
      <point x="891" y="1536"/>
      <point x="820" y="1468"/>
      <point x="712" y="1468" type="curve" smooth="yes"/>
      <point x="681" y="1468"/>
      <point x="642" y="1483"/>
      <point x="593" y="1512" type="curve" smooth="yes"/>
      <point x="544" y="1542"/>
      <point x="499" y="1557"/>
      <point x="457" y="1557" type="curve" smooth="yes"/>
      <point x="433" y="1557"/>
      <point x="411" y="1548"/>
      <point x="392" y="1529" type="curve" smooth="yes"/>
      <point x="373" y="1511"/>
      <point x="362" y="1491"/>
      <point x="359" y="1468" type="curve"/>
      <point x="285" y="1468" type="line"/>
      <point x="319" y="1604"/>
      <point x="391" y="1672"/>
      <point x="499" y="1672" type="curve" smooth="yes"/>
      <point x="530" y="1672"/>
      <point x="570" y="1656"/>
      <point x="619" y="1627" type="curve" smooth="yes"/>
      <point x="669" y="1597"/>
      <point x="714" y="1583"/>
      <point x="756" y="1583" type="curve" smooth="yes"/>
      <point x="780" y="1583"/>
      <point x="801" y="1592"/>
      <point x="819" y="1610" type="curve" smooth="yes"/>
      <point x="838" y="1628"/>
      <point x="849" y="1648"/>
      <point x="851" y="1672" type="curve"/>
    </contour>
    <contour>
      <point x="1233" y="40" type="line"/>
      <point x="794" y="40" type="line"/>
      <point x="794" y="119" type="line"/>
      <point x="901" y="128" type="line" smooth="yes"/>
      <point x="906" y="129"/>
      <point x="912" y="133"/>
      <point x="915" y="141" type="curve" smooth="yes"/>
      <point x="920" y="149"/>
      <point x="922" y="155"/>
      <point x="920" y="160" type="curve" smooth="yes"/>
      <point x="793" y="497" type="line"/>
      <point x="367" y="497" type="line"/>
      <point x="245" y="165" type="line" smooth="yes"/>
      <point x="244" y="163"/>
      <point x="244" y="161"/>
      <point x="244" y="160" type="curve" smooth="yes"/>
      <point x="244" y="140"/>
      <point x="253" y="130"/>
      <point x="271" y="128" type="curve" smooth="yes"/>
      <point x="380" y="119" type="line"/>
      <point x="380" y="40" type="line"/>
      <point x="9" y="40" type="line"/>
      <point x="9" y="119" type="line"/>
      <point x="116" y="142" type="line"/>
      <point x="545" y="1306" type="line"/>
      <point x="684" y="1306" type="line"/>
      <point x="1111" y="169" type="line" smooth="yes"/>
      <point x="1117" y="155"/>
      <point x="1121" y="146"/>
      <point x="1125" y="143" type="curve" smooth="yes"/>
      <point x="1129" y="139"/>
      <point x="1137" y="136"/>
      <point x="1150" y="134" type="curve" smooth="yes"/>
      <point x="1233" y="119" type="line"/>
    </contour>
    <contour>
      <point x="760" y="585" type="line"/>
      <point x="579" y="1068" type="line"/>
      <point x="400" y="585" type="line"/>
    </contour>
  </outline>
</glyph>
<glyph name="Adieresis" format="2">
  <advance width="1242"/>
  <unicode hex="00C4"/>
  <outline>
    <contour>
      <point x="1233" y="40" type="line"/>
      <point x="1233" y="119" type="line"/>
      <point x="1150" y="134" type="line" smooth="yes"/>
      <point x="1124" y="139"/>
      <point x="1121" y="143"/>
      <point x="1111" y="169" type="curve" smooth="yes"/>
      <point x="684" y="1306" type="line"/>
      <point x="545" y="1306" type="line"/>
      <point x="116" y="142" type="line"/>
      <point x="9" y="119" type="line"/>
      <point x="9" y="40" type="line"/>
      <point x="380" y="40" type="line"/>
      <point x="380" y="119" type="line"/>
      <point x="271" y="128" type="line" smooth="yes"/>
      <point x="241" y="130"/>
      <point x="243" y="160"/>
      <point x="245" y="165" type="curve" smooth="yes"/>
      <point x="367" y="497" type="line"/>
      <point x="793" y="497" type="line"/>
      <point x="920" y="160" type="line" smooth="yes"/>
      <point x="924" y="151"/>
      <point x="911" y="130"/>
      <point x="901" y="128" type="curve"/>
      <point x="794" y="119" type="line"/>
      <point x="794" y="40" type="line"/>
    </contour>
    <contour>
      <point x="760" y="585" type="line"/>
      <point x="400" y="585" type="line"/>
      <point x="579" y="1068" type="line"/>
    </contour>
    <contour>
      <point x="894" y="1572" type="curve" smooth="yes"/>
      <point x="894" y="1627"/>
      <point x="849" y="1673"/>
      <point x="793" y="1673" type="curve" smooth="yes"/>
      <point x="738" y="1673"/>
      <point x="691" y="1622"/>
      <point x="691" y="1572" type="curve" smooth="yes"/>
      <point x="691" y="1516"/>
      <point x="737" y="1468"/>
      <point x="793" y="1468" type="curve" smooth="yes"/>
      <point x="851" y="1468"/>
      <point x="894" y="1518"/>
    </contour>
    <contour>
      <point x="512" y="1572" type="curve" smooth="yes"/>
      <point x="512" y="1624"/>
      <point x="471" y="1673"/>
      <point x="411" y="1673" type="curve" smooth="yes"/>
      <point x="360" y="1673"/>
      <point x="310" y="1630"/>
      <point x="310" y="1570" type="curve" smooth="yes"/>
      <point x="310" y="1513"/>
      <point x="359" y="1468"/>
      <point x="411" y="1468" type="curve" smooth="yes"/>
      <point x="471" y="1468"/>
      <point x="512" y="1521"/>
    </contour>
  </outline>
</glyph>
<glyph name="Aring" format="1">
  <advance width="1242"/>
  <unicode hex="00C5"/>
  <outline>
    <contour>
      <point x="833" y="1642" type="curve" smooth="yes"/>
      <point x="833" y="1578"/>
      <point x="811" y="1524"/>
      <point x="766" y="1479" type="curve" smooth="yes"/>
      <point x="721" y="1434"/>
      <point x="667" y="1412"/>
      <point x="603" y="1412" type="curve" smooth="yes"/>
      <point x="539" y="1412"/>
      <point x="485" y="1434"/>
      <point x="441" y="1479" type="curve" smooth="yes"/>
      <point x="397" y="1524"/>
      <point x="374" y="1578"/>
      <point x="374" y="1642" type="curve" smooth="yes"/>
      <point x="374" y="1706"/>
      <point x="397" y="1760"/>
      <point x="441" y="1804" type="curve" smooth="yes"/>
      <point x="485" y="1848"/>
      <point x="539" y="1871"/>
      <point x="603" y="1871" type="curve" smooth="yes"/>
      <point x="667" y="1871"/>
      <point x="721" y="1848"/>
      <point x="766" y="1804" type="curve" smooth="yes"/>
      <point x="811" y="1760"/>
      <point x="833" y="1706"/>
    </contour>
    <contour>
      <point x="1233" y="40" type="line"/>
      <point x="794" y="40" type="line"/>
      <point x="794" y="119" type="line"/>
      <point x="901" y="128" type="line" smooth="yes"/>
      <point x="906" y="129"/>
      <point x="912" y="133"/>
      <point x="915" y="141" type="curve" smooth="yes"/>
      <point x="920" y="149"/>
      <point x="922" y="155"/>
      <point x="920" y="160" type="curve" smooth="yes"/>
      <point x="793" y="497" type="line"/>
      <point x="367" y="497" type="line"/>
      <point x="245" y="165" type="line" smooth="yes"/>
      <point x="244" y="163"/>
      <point x="244" y="161"/>
      <point x="244" y="160" type="curve" smooth="yes"/>
      <point x="244" y="140"/>
      <point x="253" y="130"/>
      <point x="271" y="128" type="curve" smooth="yes"/>
      <point x="380" y="119" type="line"/>
      <point x="380" y="40" type="line"/>
      <point x="9" y="40" type="line"/>
      <point x="9" y="119" type="line"/>
      <point x="116" y="142" type="line"/>
      <point x="545" y="1306" type="line"/>
      <point x="684" y="1306" type="line"/>
      <point x="1111" y="169" type="line" smooth="yes"/>
      <point x="1117" y="155"/>
      <point x="1121" y="146"/>
      <point x="1125" y="143" type="curve" smooth="yes"/>
      <point x="1129" y="139"/>
      <point x="1137" y="136"/>
      <point x="1150" y="134" type="curve" smooth="yes"/>
      <point x="1233" y="119" type="line"/>
    </contour>
    <contour>
      <point x="723" y="1642" type="curve" smooth="yes"/>
      <point x="723" y="1675"/>
      <point x="711" y="1703"/>
      <point x="688" y="1727" type="curve" smooth="yes"/>
      <point x="664" y="1750"/>
      <point x="636" y="1762"/>
      <point x="603" y="1762" type="curve" smooth="yes"/>
      <point x="570" y="1762"/>
      <point x="542" y="1750"/>
      <point x="518" y="1727" type="curve" smooth="yes"/>
      <point x="495" y="1703"/>
      <point x="483" y="1675"/>
      <point x="483" y="1642" type="curve" smooth="yes"/>
      <point x="483" y="1609"/>
      <point x="495" y="1581"/>
      <point x="518" y="1557" type="curve" smooth="yes"/>
      <point x="542" y="1534"/>
      <point x="570" y="1522"/>
      <point x="603" y="1522" type="curve" smooth="yes"/>
      <point x="636" y="1522"/>
      <point x="664" y="1534"/>
      <point x="688" y="1557" type="curve" smooth="yes"/>
      <point x="711" y="1581"/>
      <point x="723" y="1609"/>
    </contour>
    <contour>
      <point x="760" y="585" type="line"/>
      <point x="579" y="1068" type="line"/>
      <point x="400" y="585" type="line"/>
    </contour>
  </outline>
</glyph>
<glyph name="AE" format="2">
  <advance width="1719"/>
  <unicode hex="00C6"/>
  <outline>
    <contour>
      <point x="1660" y="40" type="line"/>
      <point x="1660" y="348" type="line"/>
      <point x="1555" y="348" type="line"/>
      <point x="1528" y="165" type="line" smooth="yes"/>
      <point x="1525" y="142"/>
      <point x="1514" y="130"/>
      <point x="1495" y="130" type="curve" smooth="yes"/>
      <point x="1073" y="130" type="line"/>
      <point x="1073" y="638" type="line"/>
      <point x="1305" y="638" type="line" smooth="yes"/>
      <point x="1325" y="638"/>
      <point x="1336" y="627"/>
      <point x="1338" y="606" type="curve"/>
      <point x="1354" y="476" type="line"/>
      <point x="1444" y="476" type="line"/>
      <point x="1444" y="888" type="line"/>
      <point x="1354" y="888" type="line"/>
      <point x="1338" y="761" type="line"/>
      <point x="1336" y="738"/>
      <point x="1324" y="728"/>
      <point x="1305" y="728" type="curve" smooth="yes"/>
      <point x="1073" y="728" type="line"/>
      <point x="1073" y="1188" type="line"/>
      <point x="1430" y="1188" type="line" smooth="yes"/>
      <point x="1447" y="1188"/>
      <point x="1458" y="1177"/>
      <point x="1462" y="1153" type="curve" smooth="yes"/>
      <point x="1487" y="1002" type="line"/>
      <point x="1594" y="1002" type="line"/>
      <point x="1594" y="1277" type="line"/>
      <point x="617" y="1277" type="line"/>
      <point x="617" y="1199" type="line"/>
      <point x="707" y="1190" type="line" smooth="yes"/>
      <point x="727" y="1188"/>
      <point x="737" y="1179"/>
      <point x="737" y="1162" type="curve" smooth="yes"/>
      <point x="737" y="1159"/>
      <point x="736" y="1155"/>
      <point x="733" y="1151" type="curve" smooth="yes"/>
      <point x="107" y="134" type="line"/>
      <point x="9" y="119" type="line"/>
      <point x="9" y="40" type="line"/>
      <point x="372" y="40" type="line"/>
      <point x="372" y="119" type="line"/>
      <point x="267" y="128" type="line" smooth="yes"/>
      <point x="243" y="130"/>
      <point x="238" y="143"/>
      <point x="254" y="167" type="curve"/>
      <point x="461" y="501" type="line"/>
      <point x="886" y="501" type="line"/>
      <point x="886" y="167" type="line" smooth="yes"/>
      <point x="886" y="143"/>
      <point x="870" y="128"/>
      <point x="839" y="126" type="curve" smooth="yes"/>
      <point x="748" y="119" type="line"/>
      <point x="748" y="40" type="line"/>
    </contour>
    <contour>
      <point x="886" y="591" type="line"/>
      <point x="512" y="591" type="line"/>
      <point x="886" y="1192" type="line"/>
    </contour>
  </outline>
</glyph>
<glyph name="Ccedilla" format="2">
  <advance width="1156"/>
  <unicode hex="00C7"/>
  <outline>
    <contour>
      <point x="1084" y="82" type="curve"/>
      <point x="1084" y="381" type="line"/>
      <point x="977" y="381" type="line"/>
      <point x="934" y="180" type="line" smooth="yes"/>
      <point x="930" y="163"/>
      <point x="919" y="151"/>
      <point x="900" y="143" type="curve" smooth="yes"/>
      <point x="850" y="122"/>
      <point x="800" y="112"/>
      <point x="751" y="112" type="curve" smooth="yes"/>
      <point x="437" y="112"/>
      <point x="284" y="350"/>
      <point x="284" y="666" type="curve" smooth="yes"/>
      <point x="284" y="965"/>
      <point x="429" y="1203"/>
      <point x="726" y="1203" type="curve" smooth="yes"/>
      <point x="785" y="1203"/>
      <point x="848" y="1188"/>
      <point x="914" y="1155" type="curve" smooth="yes"/>
      <point x="932" y="1146"/>
      <point x="943" y="1133"/>
      <point x="946" y="1113" type="curve" smooth="yes"/>
      <point x="973" y="945" type="line"/>
      <point x="1084" y="945" type="line"/>
      <point x="1084" y="1234" type="line"/>
      <point x="928" y="1282"/>
      <point x="806" y="1306"/>
      <point x="717" y="1306" type="curve" smooth="yes"/>
      <point x="331" y="1306"/>
      <point x="72" y="1047"/>
      <point x="72" y="661" type="curve" smooth="yes"/>
      <point x="72" y="308"/>
      <point x="304" y="39"/>
      <point x="656" y="12" type="curve"/>
      <point x="656" y="-166" type="line"/>
      <point x="673" y="-159"/>
      <point x="687" y="-155"/>
      <point x="698" y="-155" type="curve" smooth="yes"/>
      <point x="757" y="-155"/>
      <point x="786" y="-178"/>
      <point x="786" y="-224" type="curve" smooth="yes"/>
      <point x="786" y="-274"/>
      <point x="746" y="-299"/>
      <point x="668" y="-299" type="curve" smooth="yes"/>
      <point x="639" y="-299"/>
      <point x="601" y="-294"/>
      <point x="555" y="-284" type="curve"/>
      <point x="555" y="-356" type="line"/>
      <point x="606" y="-369"/>
      <point x="651" y="-375"/>
      <point x="691" y="-375" type="curve" smooth="yes"/>
      <point x="810" y="-375"/>
      <point x="907" y="-317"/>
      <point x="907" y="-199" type="curve" smooth="yes"/>
      <point x="907" y="-112"/>
      <point x="862" y="-69"/>
      <point x="772" y="-69" type="curve" smooth="yes"/>
      <point x="766" y="-69"/>
      <point x="749" y="-72"/>
      <point x="730" y="-76" type="curve"/>
      <point x="730" y="10" type="line"/>
      <point x="806" y="10"/>
      <point x="886" y="22"/>
      <point x="972" y="45" type="curve" smooth="yes"/>
      <point x="1012" y="56"/>
      <point x="1050" y="69"/>
    </contour>
  </outline>
</glyph>
